/* XPM */
static char *result[] = {
/* columns rows colors chars-per-pixel */
"64 64 39 1 ",
"  c #056B05",
". c #047307",
"X c #047909",
"o c #02950E",
"O c #029210",
"+ c #019C12",
"@ c #01A414",
"# c #00AD17",
"$ c #00B516",
"% c #00BC16",
"& c #00C515",
"* c #00CE12",
"= c #00D312",
"- c #00E210",
"; c #BFB771",
": c #C2BA77",
"> c #C4BD7C",
", c #C9C285",
"< c #CCC589",
"1 c #CFC98C",
"2 c #D0C789",
"3 c #D0C98C",
"4 c #D3CC92",
"5 c #D5CE9A",
"6 c #D7D09D",
"7 c #D8D19F",
"8 c #DDD4A5",
"9 c #DED6A9",
"0 c #DFD8AB",
"q c #E0D7AA",
"w c #E2DAAD",
"e c #E3DCB2",
"r c #E8DFB6",
"t c #E9E1AD",
"y c #E7E0B7",
"u c #EBE3B6",
"i c #E7E0B8",
"p c #EDE5BC",
"a c #F2E9BA",
/* pixels */
"aaaaaaaaaaaaaaaaaaaaaaaaaaaaaaaaaaaaaaaaaaaaaaaaaaaaaaaaaauaaaaa",
"aaauuaaauuuuuauuaauaatuauauuuuauuauauauuuuauauuaauauuuuauuuuuutt",
"aawyeeetttetetttwtrwttteettttyetttteeteteettttteytetetteeteyte1<",
"aut8077060600607887q788888746660607770608888788706067076teettt1,",
"aut86677777766677777686866644146777767777777777766777760eeetee1,",
"aae8667777776677777766667776444167776777777777776676600etteeee1,",
"aut8777777777777777767567777764416667777777777776776eettetet0t1,",
"aut8777777777777777777887777776141667777777777776670etteeet06t1,",
"at6444467766766677777544444444444444444444667777787444441611661,",
"at2211145644664645545424333232221111111111114344444311111111111>",
"at,,,,,,,1,<,,,,>2,,>>2>2,,,2,,,,11>,,,,,,,,,,,,,,2>,,,,,1,1,1>1",
"at44344111111441442544444334345411414411344344334443444111111111",
"aaaapaaaaaaaaaaaaaaaaaaaaaaappaaaaaaaaaaaaaaaapaaaaaaaaaaaaaaaa1",
"aauayyuuuuuyuuuurrrrrrrrtuuurrrruuuuuuyytayuuuuytautyyyyuuyytt1;",
"autw0eeeeee0eeteeeewreweeewwqeeeee0e0eeeteeweeeeeeteee0eeetet4>;",
"aueweee0ee0eeee0weeweeeeqewreeeee0ee0eeet0we0eew0ee0eee0eeee4,>;",
"auww989qpppppr88888qppppppppreeeieeeeeeieeeeeee989888wpp8555,,>;",
"auwe8889pppppr8888qrppppppppq8weeeeeeeeeeeeeeeee00e089pp0875,,>;",
"aywe8898pppppwq88qppppppppr98859eeeeeeeeeeeeeeieeypp99ppe885,,>;",
"auee8888rppppw88qppppppprw88885590eeeeeeeeeeeeeieeppe9ipe985,,>;",
"arew88888rpppq88ppppappw8889ppe55790piiieeeeieippeiee90e9895,,>;",
"aree988888rppq88ppppppr89889rppe579epiiieeeiiiiipeeee9888887,,>;",
"arew888qwwppp888pppppppr8899epppiieeiipieeeippiireeeee988887<,>;",
"aree88qrppppr888rprrppppr989erppiii5eipiieiipppieeeeeee88897,,>;",
"apee88rpppppq888weerpppppr98eeeiii0755777eippieeeeeeeee08987,,>;",
"aree8qpppppr588qreeeppippp899eeeee7977555eipiiee79eeeeee8887,,>;",
"arww8wppppr7588qeeeeippppr888weee9797975590eiee7558555890885,,>;",
"areeqrppprq555589999eppppe8wwqeee997997555eeee97555555557885,,>;",
"arewrppprq85554555555epprqrppq8q97ei9977557e9888555577555785,<>;",
"arwwpppp8q87555555555ippepppr8875ippe99975898888979988877885,,>;",
"apeepppw8888555555555pppppprq858iippi97988898888888898889885,,>;",
"areepppq888q555555558pppppw8885rppiii97988888889888888899875<<>;",
"preeppr8888855555555qppprq8887rpppppi799889888888898899ee975,,>:",
"arweppq8888754555555qpprq88888pppppi95988988778888889eeee885,,>;",
"arwepr888887555555557rpp88887epppppi5779888555588888eeeee875,,>;",
"arwrpe88888555555555qqur88q87pppppi9789787555589888899ee9975,,>;",
"auewe888888755555557888q88q6qppppi77997555559eeeeq9888997975,,>:",
"aprw888888855555455q8qqq88q6ppppi77879755559eeeriiee98889975,,>;",
"prwr8888888555455578q7ppqq77pppr88888855559eeeipipiee8889775,,>;",
"arew888888q8555555887qppqq7qppw65888887557qeeippppiiee887955,,>;",
"arrw8888qrrp7555588888qq885ppr55988888887889pppppp99ee989955,,>;",
"arww8888rppp65556778888q88qppq5788888888888epppppi757998978i,,>;",
"apee8888pprq5555555578888qppu558988889888qqppppppi5555889eip,,>;",
"arew88q8aprq5555555578888rpp8588888888888qppppppii5555799ipp,,>;",
"arww8888rppr555554557888eppr578888888888qrppppppp955558epppp,,>:",
"arew88888rpr5555555578qwppp6588-88888999rpprppppp85555eipppp,,>;",
"aree8q888885555565558rrapp7588-88888888qpprqppppi55559pppppp,,>;",
"aree8888886555555558rppppp80qq-888988989prq8qrppe55589pppppi,,>;",
"apwe888888765555555uppppppppp-pu0888888897799epiq55555pppppp<,>;",
"apee8q-888764755558pppppppppp-pppw$880=879988epiq55555pppppp<<>;",
"arwe888-8q64555557upppppppppp-ppp#888-8899889899955565pppppp,,>;",
"arww8888=qq4545558rppppppaapu&rep#88=0888898880e955558pppppp,,>;",
"arew#8888-8855556880erppppe85$78#888&9988989eeee755550pppppp,,>;",
"arweq@888-888555808898rpe0555%0#888$8888890eeeee%5555epppppp,,>;",
"apweq@q888-888778-8888&977788%8#888#8999eeeeeee8=7555ppppppp,,>;",
"apee88#qq8=88888=988989@88888$#888#8890eieeeeee7=858-ppiippp<,>;",
"pree88#988=8888-889ee088#8889#@888#88wereipppiee*eer=pieirpp<,>;",
"arew888#88&888&8897eeee9#8888#8888#89eeeeeipppee%ee*ppieeeip,,>;",
"aree888#88%98$0878790eeiw#88$#88q#88eeeeeeeip$ie%r#eiieeeeei,<>;",
"aae8455@444%%454455555557#55%#554#457575757877%7$#57777#7775,,>;",
"aaq2,,,,O,<$#<,,,,,,,<,,,,@<##<,##,,,,,,,<,,,<$<##<,<<@,,,,,,,>;",
"au<,,,,,O,,#OX,,<,,,,,,<,,#,#+#<@@,,,,,,,<,,,<%##<@,<<#<,,,,<,>;",
"w:::;;;;+;#+  ;;;;;;;;;;;;+O. X#O;;;;;;;;;;;;;;+  +#:+;;;;;;;;;;",
">;;;;;;;;o#X  ;;;;;;;;;;;;;.  X+O;;;;;;;;;;;;;;X   +#;;;;;;;;;;;"
};
