/* XPM */
static char *result[] = {
/* columns rows colors chars-per-pixel */
"64 64 30 1 ",
"  c #C2BB72",
". c #C5BE79",
"X c #C7C07C",
"o c #C9C17E",
"O c #C7C181",
"+ c #CBC483",
"@ c #CBC58A",
"# c #CEC88D",
"$ c #D0C78F",
"% c #D1CA8D",
"& c #CFC791",
"* c #CFC991",
"= c #D1CA94",
"- c #D5CD9A",
"; c #D8CF9D",
": c #D7D097",
"> c #DAD197",
", c #D7D09A",
"< c #D9D29D",
"1 c #D6CEA1",
"2 c #D7D0A2",
"3 c #DDD6A1",
"4 c #DFD8A4",
"5 c #E0D7A1",
"6 c #E1D9A6",
"7 c #E5DDAB",
"8 c #E8DFAE",
"9 c #E8DFB0",
"0 c #E8E0AF",
"q c #EBE2B3",
/* pixels */
"3333<55533o   :<333333333377< X5<53<5<4<3333%     :3334333333533",
"333355333o  . .:3535333350qqq  <3333444543335#     :333333533333",
"353355<>o  #<X .<5333335qqqq0X =33344<<4333333::%   ,43333333333",
"35<3<55X  #25:  .<333530qq8<<+ +53<5<4<43434:3333:  .:3433534433",
"3344<<X .=2233:  .35-336q42<,* .4<<5544<333#@#3333%  o<34454qq43",
"33<4<o X&224333:  O===33<<,<22  <4454<<433#@@#33345o  o#%%%3qq63",
"3545o  %22222233$  O===12<;122O %5<4550<3#@@#3353533        :qq0",
"3<<<XXo<222223:+    &===<<<<22@ X<54<5<<#@@#3433333X         5q0",
"*@:4>>3342222&    oo===&331121&  .<5332#@@@4qqq733X  :223:,.  44",
"#@#<4<3322221     %<$==-2===--=&. X<43#@@@@0qqqq3X  ,42344<:.  :",
"#@@<<4332271   &%  $===;==&&&&=-,. .,@@@@@,6qqqqX  347q73334:.  ",
".@@:<434222O  -27>  O=--&=-1==-22,. @@@@@13450qo .,40qq0333:3,X ",
"#@@@:<3<2-.  ,4qqq<  X<<1253222221@@@@1222<43<o .7qqqq0442<<,3,o",
"3<@@=334,.  ,0qqqqq<  %5333332222@@@@=2223433X  7qqqqq43<<<<<434",
"34@@*33=   :0qqq46qq<  @5<3333241@@@=2223434o  <0qqqqqq7<<<<<333",
"33@@:<:   #0qq04338qq$ X35334422*@@=2242333<..<0qqq60qq0<<<<,433",
"<4%@<4o. +0qq03333,2,**207653332,*. *3<43,,,<7qqq03334743<<<3333",
"<44<<<  .0qq043533,,***2qqqq07<<2X  @#:*@@@@3qqq7433333333334333",
"4<44<#  %qq744333<<,==*20qqqqqq0O  #@@@@@@@@0q063333333333333333",
"<44<<X  0q655<3333<:=**,36qq0q0+  <<*@@@#:,,,74333333333353:3533",
"3333>  o44534333<32<==&-533<<+. .,343,,2,,2# +,*:<,3333333#@:333",
"3333%  <<4<433333333-&&-5<3:.   ,33<,<2,2<4<  .**,23344,@@@@:333",
"Xo33. o5<44<334334331&&-<5+  . .33,,,2,,<<33:   *:,,33<@@@+#3333",
"Xo3%  <554<44<64<3442&&-5o  %<. #,<22,3<<3334,  @#**=4<#@%%3400 ",
"X<5X o43333337q044<43=*;= .:33=  ,,<2,2<2433*@#@@@***<33333304  ",
">5:  :3333534qq04<5<4=&;X %3335. @<<<<2,4233#@@@@@@###%335404  X",
"33o X43334340qq4<444<**#  <3333=  ,2<<<24444,#@@@@@@@@@@%407  .:",
"5<   :33340qqq035<4<<=@  @33333-. @<<<<3422443#@,<*###@@#07  X:4",
"3<.   :440qqq02,<4<<#X  .=1333-&@ .:24<42222<333243353:#07  .:45",
"353X  .:6qq03:===<+X  X+$=======:  #3333422233334333334q6.  :435",
"3333o   3qq0::**X   X%<,-==&=&==<: .:35342222333333334q0   :3533",
"3335:o   6qq%***  o><<0<221-=--2<5X  +<3422232334333407X  :33333",
"1&-3-=+  .6;=&=<:<33444222**24<4433+   %<<32223<335507X  =<-=<33",
"==&===&#  .-<343333434222-@@=<433533:o  .#<<2433334q0X  :<3**--3",
"3-&==&$==  .3343334422242*@@,233333533:   o=2<<333q0X  =<33===*-",
"331-&--33:  =34223242222-@@@==3333333:33@.  @-<<5q0X  @*<33,=&&=",
"33333333<=&#==2222222621 .@*==43<44<:==<<<+   @:qqo  +@@333323<<",
"33333333<==&*=2222242221  ,2**2344<4<*=,3<<:X  X=o X:#@@<3334333",
"33333342&=&=-2<22222222,  4,:*<3554<4=*,3<,#X      <<,@@<5553333",
"3333333--=-3-<<,22622222  42**:34<242**<3<:   X++X><3#@@<3<33333",
"332265O :<<2<,<<24353233  :3:#335533<**233+ o:5q0333,@@#<54<5<4<",
"32222+  ,<<,<2<<24333333X  :<333<4332*=,3<  <<0q7333*@@*<4<444<4",
"3222.  -<<<<<2<3233353333X  :44333532-=*<# o57q03333#@#*<3354<54",
"322@ .-344<433336633333333X X:33333344=*=  :<0q03333#@#*,<4<<4<4",
"32+ .66600<<333533353333333.  <4353<33,,: o<5q044335#X@:33350<55",
"3+  59qqqq043333<33334333333  .:<<2,<30qo %<0q04<433+ .<3334<<4<",
"$  =6qqqqqqq<53353333533333:   X,<,<4qq4 X<5qq5<5333<  .<55<<54<",
"  =55677%<qq555<<<33333334:  @  :,,20q0o +<0q044<,3333  .:4<455%",
" %5354<X  %0<5<<@@:<%#<343. o4<:<,**04.  30q044<**,4<4<XXXX :5% ",
"$<33<%X    %<<5<@@#@@@#:3:  :344,**::  X30q0433:*==,545<X XX>%  ",
"335<+ Xo%X  :55<@@@@@@@@:,  #43,**:<  O<0q04443#==*=<<<:X  >%  #",
"3335 X+<00X  ::@@@@%%@@@:3   :<***<4o@::qq44<44:--==<<<   <<X %<",
"3533::540q0X      Xo<53343<.  @%*243<<#@:443333342<,<<X X6qq>%45",
"3333<3<4<0q0        %333334<   @2433<:@@:4333333424<<X X6qq05533",
"33335533<<qq4:%%%X  :5353333:  X33434#@@333333334<4:X X0qq033335",
"<5353333:*<qq04<3%  :33333333o X,::,#@@%33333433<4<X X00qq533333",
"33343333=*,7qq035<  %333==<44@ .@@@@@@@<::##:34333. X7qqq5334333",
"53333335,*<40qq73   :33<=**=<+ O@@@@@@@@+@@@:334:  X7qq733333353",
"3333533333333qq0X  %33332****X @*****@@@@@%%<33:  X7qq7533533333",
"3333334<333333q+  %3333324,*:. #<,*,<<**:35333:. X50q03333335333",
"35334555<44<33o .#534<<443343  *<433333433334:  X353555335333333",
"3333<5<445<4<o  %333454<334<:  %333333333533:  X4433333333333333",
"333355<0<0<5X  %3355<4<44<<4% o:333333333344  o43335353533333353",
"35335<<<<<<o X%<54<4<544<4<4o #333333333353:  X%:333333333353333"
};
