/* XPM */
static char *result[] = {
/* columns rows colors chars-per-pixel */
"64 64 33 1 ",
"  c #BFB771",
". c #C1B974",
"X c #C4BC7C",
"o c #C7BF81",
"O c #C8BF82",
"+ c #C7C082",
"@ c #C9C285",
"# c #CEC58B",
"$ c #CFC98C",
"% c #D0C78D",
"& c #D0C98D",
"* c #CFC791",
"= c #D3CC92",
"- c #D8CF95",
"; c #D5CE9A",
": c #D8CF9D",
"> c #D7D09C",
", c #D8D19F",
"< c #DCD4A4",
"1 c #DED6A9",
"2 c #DFD8AB",
"3 c #E0D8A7",
"4 c #E0D7AA",
"5 c #E2DAAD",
"6 c #E3DCB2",
"7 c #E8DFB6",
"8 c #E9E1AD",
"9 c #E7E0B7",
"0 c #EBE3B6",
"q c #E7E0B8",
"w c #ECE4BC",
"e c #F0E7B9",
"r c #F2E9BA",
/* pixels */
"rrrrrrrrrrrrreererrrrrrrrrrreerrrreeeerrrrrrrreeeeeeeeeeer0rrrrr",
"rre0e00rr000eeeeeee0ee000ree00e0e0e0e00ee0e00reeeeee09eeee000088",
"r0896886898896868698868866888968886899886866898889686686896988$@",
"r08<<<<<,,2>,>2,<,<<><<<,2>=>>>22>,2>,2,<,3<,,,2>2,,>2>>668288$@",
"re6<>>,,,,,,>,,,,,,,,,,,>>>====>>>>2>>,,,,,,,,,,>>,,,,>2662926$+",
"re8,><,,,,,,>>,,,,,,,,,,,,,>===$>>>,>>,,,,,,,,,,,,>>>226868269$@",
"re53>>,,,,,,,,,,,,,,,,,,,,,,>>====>>,,,,,,,,<>,,,,,26668689868$@",
"re5<<>,,2,,,,,,,,,,,,,,,,,,,>>>===>>,,,,,,,,,,,,,,,,68866682>8$@",
"r8--===>>>,,,>>>:,,<::=========&==========->>>>>,>>==--===-==-$+",
"r8$$$$$=>===>>=>--==;=&&&&&&&&&&$$$$$$$$$$$$=====--$$$$$$$$$$$$+",
"r8@@@@+@++@+@@+@O@@O@@@O@+@@@@@@@@++@@+@@+$+@@@@@@++@@++@@@++$++",
"r8-----=>=----------=-------------=>--->------==------>=>=-----$",
"rre89090090900097777q700000077q7009909998r99q09900000009900088-.",
"rr6666666666826666666666856566668662686628666666826662666268>$X.",
"r066<<32wwww06,2<<47wwwwwwww626626699wqw9wwq9662222<22ww2>>>+$X.",
"r062<<<2qwwrw6,3467wwwwwwwww6,;<2669wwwwrwww966629w022009,,>++X ",
"r0661<<<16www5<<7ww7##*O%%%#506,:,1<#%#%**##2qqw96966226211>@@X ",
"r026<1<1667ww1<<www4XXXOOOXX10w7666:XXOoXoXX2qww9966622,<<<,@@X ",
"r022<<5wwwww6<<<676<XXXO%-OX<67w7q6*XX#OO;oX277666666662<<<;@@X ",
"r066<2wwww71;<<4766<XXXO#=OX:56664<:XX#@#OXX<661>>22,1261<<;@@X ",
"rq562wwww6<;;;;,<<<;XXXXO=OX<4561,<,XX@#=oX ,21,;;;;;;;;;<1;@*X ",
"r756wwwq1<<,;;;;;;;*XXXXo%OX777777w5Xo==OXXo;<<1,,,2,2,>,1,;@@X ",
"rq66www11<<<;;;;;;;*XXXXXXXo7wewwww5XXoXXXXX;<<<2<<<2,121<1;+*X ",
"r066ww2<<<<,;;;;;;:*X.XXXXXX%*====##XXXXXXXX;,<<<<<<22666<,;++X ",
"r066w7<<<<<:;;;;;;;;<<<<::;XXXXXXXXXX:::<,,<<;,1<<<<226621,;@@o ",
"r0554<<<4<<:;;;;;;;<<<<477:XX%%@OXXX*6775::<226666221<11<<,;@@X ",
"r766<<<<<<<::;;;;;,<<<0www5XO=OOoXXX<e7ww;<6667wqwq622<<<1,;@@o ",
"r766<1<<1777:;=;;<<<1<5;%%OXO=OXXXXXO%*%*<227wwwww22261<1,;;@+X ",
"r766<<<<7w74::;;;;;:,<<OXXXO%OXXXXXXXXXX#<2wwwwwww;;;,<<22qw@@+ ",
"rq65<<<<www6;;;;;;;;:11OXXX%=OXXXX.XXXXX@6wwwwwww2;;;;<2qwww@@X ",
"r066<<<11571;;;;;;;;,26#XXXOOOXXXXXX.XXX#ww6wwwwq,;;;,qwqwww@@X ",
"r056<<<<1<:;;;;=;;;<7ww*XXX.OXXXXXXXXXXX#6<22qww6;;;;1wwwwww@@X ",
"e765<<<<<<,;;;;;;;4wwww*XXXXXXXXXXXXXXOO@1<<<2qq2;;;,;qwwwww*+X ",
"e7661<<<<<<;;;;;;<7wwww#X#XXO<::1<%XXO%X+1<<<1222;;;;,qwwwww**X ",
"e766<<1<<<<<:;:;<<<<257*XO#XO<<1<<;XX%%X@2262666;;;;,6wqwwww+*X ",
"r765<<<<1<<<<<:<<<<<<1<@XXXXO<<<<<:XXXXX@666666<;;;;2wwqwwww++X ",
"r766<1<<<<<4<<<<<<<6622;%%##=1<<1<<=%%%O>6qwwq65226qqwq66qww++X ",
"rr66<<<1<<1:<3<4<<<1266241<<<1<<<<<14<44169wwq666666qq66666q*+X ",
"rr<*@@@O@@OO@@@@@@O@@@@@@@O@@@@@OO@@@OOO@@@@@@@@@@@@@@*+@@+@+*X ",
"7%XoXXoXoXXoXXXXoXXXXXXXoXXoXXXXooXXoXooXoXXXXXXoXXXXXXXX+XXXX  ",
">-===&=====&-&======&-&=====&-====&=*;==&==&**;==&===&==**=====@",
"rr7700000q0000q700070000000007077q0077q90000qqqq00000000qq9995$ ",
"r0564435w777755415157777w777656666666666666666664414450721,2&@X ",
"r766<<33wwwwr6<<<16wwwwrww763::52666666666666666660711ww61,>@@X ",
"r766<<<<46wwe4457wrewww6457www64<<1577766696666q76776<562<<>@@+ ",
"r765<<<5767ww706<=:6www75477wwe0ww62www7666qqwww7qwqq00791<>@@X ",
"r756<3wwwwww7<@XXXXX&6qwe6XXO%=47w7<,,,,<2qwq66qw:*#$$$$<92>@@X ",
"r765<7wwwwe<OXXX@OXXX@5ww6XXXXXXo6w7<<,;;<26962q:XXXooXXX,9>@@X ",
"r056wwww5wOXXOOOOXXXXX#w775@XX%@XO7ww777777wqq51oXXX@=@XXX:;@@o ",
"rw65www<wOXXXOXOXXXXOXOrw75<@XXXXX#4wewwwwwwwww<XXXXXX oXX#;@@  ",
"r766ww<75XoXXXXO#XXX%XX0<<<<:XXXXXXXoO@%####$$*1;*==@oXXXXO;@@o ",
"r765744wOOOXXX*:<<XX#X@5<<<<1=X@=%OOXXXXXoo+oX#2221<<XXXXXo;@@o ",
"r766<<7:XOOXXO::7%XXXX*75<<,q5X@%OOOXXXXOO@=* *q7w665OXXoXX;@@o ",
"r765<<wOXOXXO;:54XXXXX:54<<7w5XXOoXXXXXXXXoO* *www2<2*o @XX<@@X ",
"r056<55XO#XX*;<7OXOOXX<<<4ww5-XXOXoO#O@@@oXXoX*ww7;;;# o*XXq@@X ",
"rw75<7;X%XX%;:7%XoOXX%<57w01>,XXXXO1<<<<41OXo *ww<:;;*ooXXXw@@X ",
"w766<woXOXX=;,:XXoXXO7weww1125;oXX#<<<<5q21@XX#q6;;;;,*XXX+w@@o ",
"w756<* oXXO;;;XXXoX*wwwwwwwwwww5XXO<<<<<1,,,+X*q1;;;;;1XXX@w@@  ",
"rw55<;oo#=::;;%Ooo*6wwwwwww65562;O;<<<<<,222<*;22;;;;<w6;@<w@@o ",
"r066<<<<<<<4<,:<<1<<1<664<;,,<<<<<<<<<<4222q6221;;;;;qwwqwww@@o ",
"r766<<1<<<<<<<<1<<<222<1<<<<<<1<<<<1146666qqqq62<212qww66qww@@+ ",
"re65<<<<<<<<<<<<11<12666521<<1<<<<<14666666wq6622666qqq666qq@@X ",
"ee:*O##OO##O@@OO#OO#OO@@@@@@O#O*OO#OOOOO+@*@@@+*+*++@@@+@@@@@@X ",
":X             .                       X                        "
};
