/* XPM */
static char *result[] = {
/* columns rows colors chars-per-pixel */
"64 64 40 1 ",
"  c #C1BA71",
". c #C6BE7A",
"X c #C7C07C",
"o c #C8C17D",
"O c #C7C081",
"+ c #CBC484",
"@ c #CEC68A",
"# c #CFC88C",
"$ c #D0C78F",
"% c #D2CA8C",
"& c #CCC590",
"* c #CFC894",
"= c #D4CC94",
"- c #D8CF93",
"; c #D5CE9C",
": c #D9D196",
"> c #D6D09C",
", c #DAD29D",
"< c #E0D79F",
"1 c #D7D2A2",
"2 c #DDD5A5",
"3 c #DFD8A7",
"4 c #DED6A9",
"5 c #DFD9AE",
"6 c #E0D7A3",
"7 c #E3DBA5",
"8 c #E0D7A9",
"9 c #E3DAAB",
"0 c #E8DFAD",
"q c #E4DEB5",
"w c #E8DFB2",
"e c #E7DFB9",
"r c #EAE1AE",
"t c #E6E0B6",
"y c #EAE1B3",
"u c #E7E0BB",
"i c #E9E1BB",
"p c #F0E7B7",
"a c #F0E7B9",
"s c #F2E9BA",
/* pixels */
"qeqqqqqtttuttqqqqqqisssssssssuquttttqtssssiqqqqttqqqpssssssssstt",
"qqqeqquttqputpputtqtsssssssssuqqqttttussssitttttqtqqussssssssstt",
"uqtqttssttssssssitueqtapssspu55uqqqtssssauqqssssiquqqussststssst",
"qqqqttssstsssssst111141tssiqu5uuqquussss51uusssssuqqqqtuutttsstq",
"quqqqqtut553111>&&&*ys4=r3115qqqttsssst1&&1uiayyq15tqqqqtqqqustt",
"qqqtq551>>*&*&&&&&&*sss&&&*;*1;11tsss5>*&&1111>>>>1***11155qtutt",
"quq41;;*>>**&*******9p3=*>>;1*1;>1t5>>>>*;>;>>;=>*1**&&&&&*>1tqq",
"**&+++O&+O+++++++++++++++++++++++++++++++++++++O+++OOOOOOOOO+#**",
"                                                                ",
"                                     .                          ",
"tt8X  2iuuuuuutu,  rysssssssssssssttuuuuti5>@  rsssssssiuuuuuuuu",
"tqX  :siuuuuuuuu3  0ssssssssssssssuuuuuuui1>  +sssssiiiuuuuuuuuu",
"t+  :sssiuuuuuuu9  <sssyrysssssssssuuuuuuq=X  7siiiiiuiiuuuuuuuu",
">  %sssiuuuuuuuue  ,ssy290rssssssssuuuuui*X  @sttiiiuuiuiiuuuuuu",
". .psssit9tuuuuut  :sa22ww04wissssuuuuuu*   #p3qiuiiuuiuuiuuuuut",
"  6sssss8235uuuut. %s823www369sssstuuus>  X:pr>1eiiituuiuiuuuuu>",
" osssssss8326eeie+ Oy2238www880yi85eiiq  .yse;;;;221eeeuiuieeie.",
" ,sppyssss8344eeq+ .632288ww88228;;eii$  0sw,;;;;;4eiuiieq89ww- ",
"X273137issy322242@  2222229982222;;5iiO +sw;;;;;;4uuee92;49ww9. ",
"@2222337sss832222$  ,222228282282;;qii  -y;;;;;;;quue42;;;eew;  ",
"=22232228yy22224,$  ;3222222889e,;;29;  -w,;;;;;14eq2;;;;,892$  ",
";,2222222233222,;*  $,2222228www8,22,=  <w2;;;;222221;;;22222@  ",
";;222322222222;;;;  @;;22228wwwwq222;$  6y8;;,2222222;;222222+  ",
"*;122222222222=@+.  +;;;22289www8222;$  8ww88222222222222222,$  ",
"@;;222222-$+..      .;;;;22222882228,$  6yywww82222882;;;;28;;  ",
".$@+@+o.         O.  o;;;;,22222222,;+  6ywwwww82222,;;;;;;,;;  ",
"            O%60psp@  O;;;;,22282$.     .@669wyw822,;;,,2;;;;O  ",
"     ..O%=;368ssssapo  +;;;;;;;2$          $29ww922;*;,222;;@   ",
";,222222222222ysssssyX  &;,;;;;+  .;9w0<%   $<,%+       =2:@  .9",
"222222222222220ssssssr.  ..OO+.  .9iissssy              .,@  .ya",
"222222822222232ysssass7         .9ieiiiaasr     +%:6<<%  O  .ysw",
"2282222232222226pp0;6as0.  ...O-eeieiiieias7  @pssaasss+    0sa6",
"2222222822222222,;;;;0sa  $iiieeeeiiieeieeis+.osssaaypsy   ossr6",
"2222222822288222;;;;26w7  2eiiieieiiee548eei=  aa98628ss:  %ss02",
"822228ww8229ew2;;;22222$  eeiieee982224488qe,  0ss0228psr  :ss73",
"22220wwww8wwww2;;148224. Oeeeq82,82222229w8w,  0sssw23wsso +sa61",
"2228wwwwwwwwww2;;2qw84;  =eee4222222222qssy2@  assss029as@  sp32",
"242wwwepwwwww82,29ww42@  8eee222222222wassr2+ .swyss82226-  ys22",
"22www9888wye98228pew2;+ .eiie222222222aasy26. @a629832223,  7a22",
"220w82289wwpwww2www84;. +iee82228828wwasa226  -w4322233ww7  ,sy2",
"2222289wwwwwewpw9ww22;. O8622224wwwwiwyyw22,  $28889www8@   ors0",
"24222www6:::-9wwww922;. O8642224wwewwwwywww=  =28wweww:       :9",
"$,22;O        +928862;  O12222428wwywwwww:.   O+%-9ww:   %<-   .",
"  .            .$$$$&=. .;;,,;,2868w9ww=           =+   0aas0o  ",
"       +:669-.           .XX+@%;;2222=.   .=;$++      .0ssssaa:.",
"2+ .-7aassssa-                  .;88=   O2ieiiiie2   $passiipap7",
"8eisaaaasssss%  7ppp006-%%+X      ==   ;eiiieeieew%  sssaueeeq22",
"8eeeaw86eeeyao  aassasaasssssy7:     .2eiieiiieq22$  ssaiueew222",
"8eeeue24euiis. .asssssssssssssss7    2iieiiiii8228:  asaeie42222",
"4eeeuu29iuiiy  =aasssssssssssssss<   iiiiiiii9222w:  ssiii522222",
"2qiiuueqiuii<  ,ap8psssssssssyssss=  iieieeie2226a,  asaii922222",
"24eiueeuuiii-  0p868aassssss96ysss$ .ieeiieq222240-  sasiiq22224",
"228eeiuuiiaa.  sy8228assssa9222yss% .weqe58422226w-  assiie22222",
"222eiiuieepp  .s822228say0322222ys+ O28822222828ww%  sssiee42222",
"228eiiuiiis<  .y22222222632222220s  @8ew2222228www$ .sssaie52222",
"24eeiiiuisa@  +722222226642232229:  -8we842268wwww+  wassieq9e92",
"49ieieiiaay    2222228wew222226:+   -60wwyww8wwyyw.  .assaiiiii8",
"2eieiiiias<    $22229wwyw22222+      -8wywwwwyyy9:    -sssaiiiee",
"$$=2eeyssa. .   $68wyww922,8-.   %0.  ,8wywwyww98.  .  <saasaee*",
"    .=yas-  -,   =wwww82220=   @0sa7  .6www6wwiw@  :r.  ,assw$  ",
"..    .%$  .22,   $088222,.. .<sssaa<   -yy9ww:.  +aa0   @w<.   ",
"222$.     .,228,.   ..OO+   +yssa99aa7   +--$.   -aasa0.      +=",
"22822,o   ,82222,O         :aaw86828ws0.       .7ap0wasa%   .=22",
"6222282-$22222226,$+@.....:98822222668wa.    .$9962627w07$ .,222"
};
