/* XPM */
static char *result[] = {
/* columns rows colors chars-per-pixel */
"64 64 96 2 ",
"   c #3C0A08",
".  c #36110D",
"X  c #39130F",
"o  c #3D1412",
"O  c #450000",
"+  c #480104",
"@  c #4E030A",
"#  c #440E0F",
"$  c #48090E",
"%  c #56040C",
"&  c #5D040D",
"*  c #5E0D0D",
"=  c #5D100D",
"-  c #450E10",
";  c #4C0F12",
":  c #590911",
">  c #421616",
",  c #4C1514",
"<  c #471818",
"1  c #4C1A1A",
"2  c #521515",
"3  c #5B1313",
"4  c #541A15",
"5  c #5C1916",
"6  c #5D1519",
"7  c #521B1B",
"8  c #5B1D1C",
"9  c #660405",
"0  c #6B0102",
"q  c #640807",
"w  c #63040F",
"e  c #6D030C",
"r  c #640B0B",
"t  c #6A090B",
"y  c #730007",
"u  c #73030D",
"i  c #7C000D",
"p  c #630510",
"a  c #6B0611",
"s  c #630D13",
"d  c #6A0C13",
"f  c #660E18",
"g  c #760614",
"h  c #790511",
"j  c #730B14",
"k  c #790817",
"l  c #740F1A",
"z  c #7D0B19",
"x  c #641314",
"c  c #6B1116",
"v  c #64161A",
"b  c #6A161C",
"n  c #631A1C",
"m  c #69181C",
"M  c #75101C",
"N  c #7A131E",
"B  c #5C201F",
"V  c #5E1E20",
"C  c #631F21",
"Z  c #7D1520",
"A  c #7E1A25",
"S  c #572121",
"D  c #5B2323",
"F  c #622524",
"G  c #652828",
"H  c #6B2D2D",
"J  c #6F3030",
"K  c #723232",
"L  c #783737",
"P  c #7D3B3B",
"I  c #800411",
"U  c #830815",
"Y  c #810F1D",
"T  c #8A121F",
"R  c #831623",
"E  c #891623",
"W  c #851A26",
"Q  c #8A1926",
"!  c #861D28",
"~  c #8C1D2A",
"^  c #901A27",
"/  c #911E2B",
"(  c #8F202D",
")  c #92212E",
"_  c #962431",
"`  c #9A2734",
"'  c #9E2835",
"]  c #813F3F",
"[  c #A22937",
"{  c #A72B39",
"}  c #AB2C3A",
"|  c #B42E3E",
" . c #B82F3F",
".. c #B9303F",
"X. c #BD3141",
"o. c #854242",
/* pixels */
"7 2 2 2 , 7 7 7 2 2 , 7 F H J H G G G G S 7 1 S G H J K K K K K K H G G G G G S 1 7 G G G G H K K K K K K K K G G G G G G G D S ",
"7 2 2 7 S S S S S S 8 7 7 7 S G G G D S 7 7 1 V G J K K K K K K J J G G G G G D > 7 V G G G G H K K K K K K J G G G G G G F S D ",
"S 7 B S S S S S S S S S S 7 7 7 S 1 1 7 > 1 7 S J K K K K K K K K K J G G G G G < < 7 G G G G G H K K K K K G G G G G G D S S S ",
"S S S S S S S S D S S S S S V 7 7 7 7 7 > > 7 7 K K K K K K K K K K K J G G G F 2 < 1 S G G G G G H J J J H G F G G G G D V 8 S ",
"S S G G F G G G G G D D S S S S 1 1 7 1 < > 1 7 D J K K K K K K K K K K G G G D , , > 7 F G G G G G G G G G G G G G G S 7 2 2 8 ",
"H H G G G G G G G G G G D D S S S V 7 7 < o < 7 V D G H J K K K K K K K G G D V 2 2 , > 8 G G G G G G G G F G G G G S 7 7 7 S G ",
"G G G G G G G G G G G G G G D D S S S 1 1 > > 1 1 7 D G G H J J K K K K G G D S 2 2 2 , > S G G G G G G G G G G F 8 1 1 8 H J J ",
"J G G G G G G G G G G G G G G D S S S V 7 < o < 1 7 7 S G G H H J K J G G G S 1 7 , 2 2 2 < D G G G G G G G F V 1 1 S D J K K K ",
"K K J G G G G G G G G H H G G G D S S S S 1 > > 2 7 7 7 V F G G G G G G G D V 1 V 1 7 2 2 2 , D G F G G F 8 7 7 7 7 D J J K K K ",
"K K K K J H G G G G G K G G G G G D S S S 1 < o < 7 1 7 1 1 V F G G G G D S 7 1 1 1 , 2 2 2 2 2 2 8 8 7 2 7 1 7 7 7 H G J K K K ",
"K K K K K K K K K J J J G G G G G G D S S 1 1 > > 2 7 1 1 7 7 7 7 S D S D S S S V 1 7 7 7 2 , < 2 2 2 2 1 7 7 1 1 V G G J K K K ",
"L L K K K K K K K K K G G G G G G G G D S 1 7 1 2 2 2 1 7 1 1 7 7 S D D D D D D D G G D S S S B 2 2 2 2 1 7 7 7 7 S G G J K K K ",
"o.o.o.L K K K K K K J G H K K H G G G D S V 7 1 2 2 7 8 D F F G G G G G G G H K J K K K K J H D S 2 2 1 7 7 1 1 1 7 G G H J K K ",
"P o.o.o.P K K K K K G J K K K K H G G G S 1 7 1 7 V D H K K K J H H G H J K K K K K K K K K K K S 7 7 7 7 1 S D D 7 D G G H K K ",
"K P o.o.o.L K K K J H J K K K K G G G G 1 1 7 S S G J K K K K K K K K K K J K K K K K K K K K K D 8 7 1 V D G G G G D F G G H J ",
"K K P o.o.o.K K G G J K K K K J G G G G 1 7 S S G J K K K K K K K L L L L J J J J K K K K K K K H 7 1 8 J G G G G G H D D G G G ",
"H K K ] o.o.P K H J K K K K J G G G G S 7 1 D G H J K K K P ] o.o.o.o.o.H G G G J K K K K K K K H 7 7 J K K J G G G G G F F G G ",
"G K K L o.o.o.L K K K K K K H G G G D 7 7 8 D G J K K ] o.o.o.o.o.o.o.L G G F H K K K K K K K K D 1 D J K K K K H G G G G D D G ",
"G J K K L o.o.P K K K K K H G G G D 7 1 1 D G H K L o.o.o.o.o.o.o.o.P G G G G K K K K K K K K K S S K K K K K J J G G G G G D D ",
"D H K K K K L ] K K K K J G G G D 1 7 7 V G G J K o.o.o.o.o.o.o.o.L G G H H K K K K K K J H H D 1 D K J H J J J K J G G G G F D ",
"2 F K K K K K K K K K J G G G S 7 2 2 2 S G J J ] o.o.o.o.o.o.o.P J K K K K K K K K K H G G F 7 M M l l l l l l l l J G G G G D ",
"2 2 G K K K K K K K H G G G S S 2 2 2 2 D H K K o.o.o.o.o.o.o.P L K K K K K K K K K H G G M M l Z A W ! ! ! ! R Z l l l G G G G ",
"8 2 7 K K K K K K H G G H D S 7 2 2 , 1 H K K K o.o.o.o.o.o.P K K K K K K K K K K H F M M Z ~ ` ` ` ` ` ` ` ` ` ` ` ( Z p G G G ",
"F 2 2 G K K K H G G J K H S 7 7 , > > < J K K K ] o.o.o.o.L K K K K K K K K K K G G l M ~ ` ` ` ` ` ` ` [ [ ` ` ` ` ` ` d p G G ",
"G 8 , 8 H H G G H K l l l l l l M M M l l l K K K L L L K K K K K K K K K K K G G G l ~ ` ` ` ` } | X.X.X.X.[ ` ` ` ` ` ~ p J G ",
"H F , 2 F G G l M l M M N R Z Z Z Z N N N M d w w K K K K K K K K K K K K J G G G l Z ` ` ` ' X.X.X.X.X.X. .[ ` ` ` ` ` / a p K ",
"K J F 2 2 F M M ! ) ` ` ` ` ` ` ` ` ` ` ` ` _ W l w H K K K K K K K K K H G G G F l ( ` ` [ X.X.X.X.X...} ` ` ` ` ` ` E h e p K ",
"K K K 7 2 l N _ ` ' } | ` ` ` ` ` ` ` ` ` ` ` ` ` R p K K K K K K K J G G G G S l M ` ` ' X.X.X.X.X. .[ ` ` ` ` ` ` Y h i i p p ",
"K K K G V l ) ` ` | X.X.{ ` ` ` ` ` ` ` ` ` ` ` ` ` p H J K J K H H G G G F 2 2 l Z ` ` } X.X.X.X. .` ` ` ` ` ` ) z h i i i w w ",
"K K K G l Z ` ` | X.X.X.[ ` ` ` ` ` ` ` ` ` ` ` / i e w H J J H G G G D 7 2 8 G l E ` ` | X.X.X.| ` ` ` ` ` ` Q k h i i i i w p ",
"K K J G l ~ ` ' X.X.X.X.[ ` ` ` ` ` ` ` ` ` ` ~ h i u w G G G G G 8 7 2 8 F G K l ! ` ` X.X.X. .[ ` ` ` ` / Y k g i i i i i w w ",
"K K H G l ~ ` [ X.X.X.X.[ ` ` ` ` ` ` ` ` ` E h i i u p K G V 7 2 2 , V G G J K l W ` ` X.X.X.[ ` ` ` ` R k g g h i i i i i p w ",
"K J H G l _ ` [ X.X.X.X.[ ` ` ` ` ' ` ` ` Y i i i i u w 2 2 2 2 2 2 V G G H K K l Z ` ` X.X.| ` ` ` E k k g g h i i i i i 0 w w ",
"K H G D l _ ` [ X.X.X.X.[ ` ` ` ` ` ` ~ k j i i i i i w 2 2 2 , 2 8 G G H K K K K l _ ` X.X.` ) R k g g g g h i i i I y 0 9 w K ",
"H G G 7 l _ ` [ X.X.X. .` ` ` ` ` _ R g g i I i i i i w 1 2 2 2 7 G G G K K K K K l z ` ~ R z g g k g g g g i i i y 0 0 0 w w K ",
"F S 7 1 M ~ ` ' X.X.} ` ` ` ` ` E k g g i i i i i i e p 1 2 2 , F G G H K K K K K K l N l g g g g g g g i u y 0 0 0 9 w w p K H ",
"7 7 7 7 l ~ ` ` [ [ ` ` ` ` ~ z k g g i i i i i i 0 0 w 1 7 1 1 G G H K K K K K H G G l a p g g g g g y 0 0 0 0 0 9 w w w 8 1 7 ",
"7 1 7 S l E ` ` ` ` ` ` ~ z h g g i i i i i i y 0 0 9 w 7 7 7 V G G H K K K K K G G G G J & g g g u 0 0 0 0 0 0 0 0 p , 2 1 7 1 ",
"7 1 S S l l ` ` ` _ E k j k h i i i i i i i 0 0 0 0 w w 1 7 7 S G G K K K K K J G G G J K p g g u 0 0 0 0 0 0 0 0 0 p 2 7 1 7 7 ",
"1 S S D G l ~ ! Y g h i i i i i i i i i 0 0 0 9 9 9 w 1 7 7 7 D G H K L P K K J G G J K K p a g u 0 0 0 0 0 0 0 0 9 p 7 7 7 7 1 ",
"S S S D H J M l a p u i i i i i u y 0 0 0 0 & w p p > 1 2 1 7 G J K L o.o.K K K H J K K K p g g k u u a e 0 0 0 0 0 w 1 7 1 7 7 ",
"S S S D K K J J J w u I i i y 0 0 0 0 0 0 0 w G 7 < > < 7 7 7 D K K K o.o.] K K K K K K K p g g j g u u u 0 0 0 0 9 w 7 7 7 7 7 ",
"S S D D J K K J G p i i y 0 0 0 0 0 0 0 0 9 w F 2 , > > 1 7 1 D K K K ] o.o.] J K K K K J p g g k u u u 0 0 0 0 0 * & 1 1 7 1 S ",
"S S D G H J J G G p u i u 0 0 0 0 0 0 0 0 0 w D 2 2 > > 1 7 V 7 K K K K o.o.o.o.L K K K J w a g g g u u u 0 0 0 0 * w 1 7 7 7 S ",
"S S F G G D S S G w d i i i 0 0 0 0 0 0 0 9 w 2 , 2 , o > 1 7 7 H K K K K ] o.o.K K K J H p g g u g u e e 0 0 0 9 : p S 7 7 V S ",
"S D G G G V 1 1 D w c h i i i 9 0 0 0 0 0 * p 2 2 2 2 , > p p p w w p p w w p J K J H G G p a g u u u e y 0 0 0 9 * p S D 1 1 S ",
"S D G G D 7 7 1 7 w c j i i h t 0 0 0 0 9 * p 7 2 2 , @ % l E W ~ ~ ~ ~ W N d % % G G F G p g g u u 0 e y 9 0 0 q * p D S S 1 S ",
"7 S G G D 1 S S D w v c i i c v 9 0 0 0 q * p 7 8 7 @ : ~ ` ` ` ` ` ` ' ` ` ` ! : @ G F 2 p e u u e y 0 9 9 0 0 q r & G D S S 1 ",
"7 2 8 F G & @ @ & p v b c l d c t q 9 9 r = : H G G @ ( ` ` ` ` ' ` _ ' ` ` ` ` E @ 2 , 2 2 e u u y t t t 0 0 9 q = : G G D V 1 ",
"2 2 , p p d s s p p f b C b c d x t 9 9 = = 2 K K @ f ' ` ` ` ` _ ` ' ` ` ` ` ^ h % % , 2 6 t u e 0 y t t 0 0 0 r = 2 G G F V 1 ",
"2 7 p d ( ` ` ` l p C C n m d c r r 9 q = = 2 K J @ A ' ` ` ` ` ' ` ' ` ` _ T i i e @ V D 6 d u 0 e t c t t 0 0 = = 2 G F G V < ",
"V p a _ ` ` ` ` f : C C m n x c r r 9 q = = 3 K K @ ( ` ` ` ` ` ` ` ` ` ) U i i i u % F G 2 a 0 y e t d t t 0 q = = 3 G G G G , ",
"V & W ` ` ` ` ` C 6 8 B F F n m x t r r = * 2 L K @ _ ` ` ` ` ` ` ' _ T I i i I I i @ F G 7 v 0 e 0 c x t t t * = : : J J J J , ",
"V & _ ` ` ` ` ` b 2 n F D F B n 5 n = = * 3 3 K K @ ( ` ` ` ` ` _ T I i i i i i i i @ G G 7 n c y t c x t q = = = 3 6 K K K K 7 ",
"& d ` ` ` ` ` ` b : B F F F B n 5 3 = = 3 4 3 K K @ A ' ` ` ` E I i i i i i i i i e @ G H 7 v b m m c c x = * = = 3 2 K K K J 8 ",
"p d ` ` ` ` ` ` C 2 n F B F B 8 5 5 = = 4 2 4 K K @ : A ! W h h I i i i i i u e e % @ G J 7 v b m c m x x * * = = 2 ; K K J G V ",
"7 % ` ` ` ` _ E : > 8 F C F n B 5 5 = 4 4 4 # K J H @ @ $ - u i i i I i i u # $ @ @ G G K > v b m m m x = = = = 4 2 # K H G G B ",
"1 @ _ ` / Y k h , > 7 F C C B n 5 5 5 4 4 = # G G D 1 1 7 - u i i i i i i u # B F G G G K o v b m m c x x = = = 4 2 # G G G G F ",
"7 @ l z k g j k , o V C C F 5 5 5 = 4 4 4 , # F S 1 7 V S - e i i i i i i e > 7 D G G G K > 6 b c m x x x 3 4 4 4 , $ G G G G D ",
"7 @ @ % & a h g ; o 8 F C C C C 5 4 4 4 4 4 # B 7 7 7 S D # g h i h h u g e # 7 D G G G J o 6 m c m v v x 3 4 4 4 , # G G G G D ",
"1 7 1 @ + O g g # X 4 n C C B B 4 7 4 1 4 ,   7 7 S D H H   6 C b C b b b 6   7 S G G G H . 6 b m m m n 5 4 4 4 B ,   G G G G B ",
"7 7 7 7 1 O w h # X 8 F F B B B B 4 4 4 4 ,   1 V D G H K   : C b m b b m 6   < 7 G G G G . 6 m m m n n 4 B 4 B , ,   G G G G B ",
"7 1 7 1 B   t j , . 8 F F F B 5 B 4 4 4 4 ,   7 D G G J K   6 b b b b b b 6   < 7 F G G G . 6 m m v n 5 4 4 4 4 4 ,   G G G G B ",
"7 7 7 2 4 + 0 j # . 4 F n B B B B B 1 4 4 4   S G G H J K   s b b C b b b 6   > 1 S G G G . 6 b m v v n 4 B 4 4 4 ,   G G H D S "
};
