/* XPM */
static char *result[] = {
/* columns rows colors chars-per-pixel */
"64 64 226 2 ",
"   c #411616",
".  c #421616",
"X  c #431616",
"o  c #431717",
"O  c #461515",
"+  c #441616",
"@  c #451616",
"#  c #441717",
"$  c #451717",
"%  c #471616",
"&  c #461717",
"*  c #481515",
"=  c #4A1515",
"-  c #4B1515",
";  c #481616",
":  c #4A1616",
">  c #4B1616",
",  c #4C1515",
"<  c #4D1515",
"1  c #4E1515",
"2  c #4F1515",
"3  c #4C1616",
"4  c #4C1717",
"5  c #4F1717",
"6  c #461818",
"7  c #471818",
"8  c #481818",
"9  c #491818",
"0  c #491919",
"q  c #4A1919",
"w  c #4B1919",
"e  c #491A1A",
"r  c #4A1A1A",
"t  c #4B1B1B",
"y  c #4C1919",
"u  c #4E1919",
"i  c #4C1A1A",
"p  c #4D1A1A",
"a  c #4E1A1A",
"s  c #4F1A1A",
"d  c #4F1B1B",
"f  c #501515",
"g  c #511515",
"h  c #501616",
"j  c #511616",
"k  c #501717",
"l  c #511717",
"z  c #521616",
"x  c #531616",
"c  c #521717",
"v  c #531717",
"b  c #501818",
"n  c #501919",
"m  c #511919",
"M  c #531818",
"N  c #531919",
"B  c #501A1A",
"V  c #511A1A",
"C  c #501B1B",
"Z  c #511B1B",
"A  c #531A1A",
"S  c #521B1B",
"D  c #531B1B",
"F  c #541818",
"G  c #541919",
"H  c #551919",
"J  c #561919",
"K  c #541A1A",
"L  c #541B1B",
"P  c #561A1A",
"I  c #571A1A",
"U  c #561B1B",
"Y  c #571B1B",
"T  c #511C1C",
"R  c #501D1D",
"E  c #521C1C",
"W  c #521D1D",
"Q  c #531D1D",
"!  c #531E1E",
"~  c #531F1F",
"^  c #541C1C",
"/  c #551C1C",
"(  c #541D1D",
")  c #551D1D",
"_  c #561C1C",
"`  c #571C1C",
"'  c #561D1D",
"]  c #541E1E",
"[  c #551E1E",
"{  c #541F1F",
"}  c #551F1F",
"|  c #561E1E",
" . c #561F1F",
".. c #571F1F",
"X. c #581B1B",
"o. c #581C1C",
"O. c #591C1C",
"+. c #581D1D",
"@. c #591D1D",
"#. c #5A1E1E",
"$. c #5B1E1E",
"%. c #5A1F1F",
"&. c #5B1F1F",
"*. c #5C1F1F",
"=. c #532020",
"-. c #552020",
";. c #562020",
":. c #572020",
">. c #562121",
",. c #572121",
"<. c #582020",
"1. c #592020",
"2. c #582121",
"3. c #592121",
"4. c #5A2020",
"5. c #5A2121",
"6. c #5B2121",
"7. c #582222",
"8. c #592222",
"9. c #592323",
"0. c #5A2222",
"q. c #5B2222",
"w. c #5A2323",
"e. c #5B2323",
"r. c #5C2020",
"t. c #5D2020",
"y. c #5C2121",
"u. c #5D2121",
"i. c #5C2222",
"p. c #5D2222",
"a. c #5C2323",
"s. c #5D2323",
"d. c #5E2222",
"f. c #5F2222",
"g. c #5F2323",
"h. c #5B2424",
"j. c #5C2424",
"k. c #5D2424",
"l. c #5D2525",
"z. c #5E2424",
"x. c #5F2424",
"c. c #5E2525",
"v. c #5F2525",
"b. c #5E2626",
"n. c #602222",
"m. c #602323",
"M. c #612424",
"N. c #602525",
"B. c #612525",
"V. c #622525",
"C. c #602626",
"Z. c #612626",
"A. c #602727",
"S. c #612727",
"D. c #622626",
"F. c #632626",
"G. c #622727",
"H. c #632727",
"J. c #642727",
"K. c #652727",
"L. c #622828",
"P. c #632828",
"I. c #642828",
"U. c #652828",
"Y. c #642929",
"T. c #652929",
"R. c #662828",
"E. c #662929",
"W. c #672929",
"Q. c #662A2A",
"!. c #672A2A",
"~. c #672B2B",
"^. c #682929",
"/. c #682A2A",
"(. c #682B2B",
"). c #692B2B",
"_. c #692C2C",
"`. c #6A2C2C",
"'. c #6B2C2C",
"]. c #6A2D2D",
"[. c #6B2D2D",
"{. c #6B2E2E",
"}. c #6C2D2D",
"|. c #6C2E2E",
" X c #6D2E2E",
".X c #6D2F2F",
"XX c #6E2F2F",
"oX c #6F2F2F",
"OX c #6F3030",
"+X c #703030",
"@X c #703131",
"#X c #713131",
"$X c #713232",
"%X c #723232",
"&X c #733232",
"*X c #733333",
"=X c #743333",
"-X c #743434",
";X c #753434",
":X c #753535",
">X c #763535",
",X c #763636",
"<X c #773636",
"1X c #773737",
"2X c #783737",
"3X c #793737",
"4X c #793838",
"5X c #7A3838",
"6X c #7A3939",
"7X c #7B3A3A",
"8X c #7C3A3A",
"9X c #7C3B3B",
"0X c #7D3B3B",
"qX c #7E3C3C",
"wX c #7F3C3C",
"eX c #7F3D3D",
"rX c #803D3D",
"tX c #803E3E",
"yX c #813E3E",
"uX c #813F3F",
"iX c #823F3F",
"pX c #824040",
"aX c #834040",
"sX c #834141",
"dX c #844141",
"fX c #854242",
/* pixels */
"Z g g g g m W S z g g F N.XXOX'.E.U.U.U...C C ..U.).%X%X%X%X%X%X%X!.U.U.U.U.U.~ w T J.U.U.U.`.%X%X%X%X%X%X%X%X!.U.U.U.U.U.U.k.,.",
"D g j L ;.,.,.,.,.:.) N B Z q.J.U.U.N. .C C C ..!.#X%X%X%X%X%X%X%X@XW.U.U.U.U.J.$ C q.U.U.U.U.|.%X%X%X%X%X%XOXU.U.U.U.U.U.H.,.,.",
":.L ;.,.,.,.,.,.,.,.,.,.;.Q C C Q E C C $ 0 C  .#X%X%X%X%X%X%X%X%X%X+XU.U.U.U.U.: 9 E I.U.U.U.U.|.%X%X%X%X%X/.U.U.U.U.U.U.e.,.,.",
",.,.,.,.,.,.7.0.7.,.,.,.,.,.;.E C C C C X o C E @X%X%X%X%X%X%X%X%X%X%X[.U.U.U.B.f + p q.U.U.U.U.U.).OX#X+X).U.U.U.U.U.U.z.[ / :.",
",.9.C.G.H.I.U.U.U.J.N.w.,.,.,.,.! C C C &   y C a.OX%X%X%X%X%X%X%X%X%X#XU.U.U.6.g < X d G.U.U.U.U.U.U.U.U.U.U.U.U.U.U.6.j g c ;.",
"|.[.E.U.U.U.U.U.U.U.U.U.Z.8.,.,.,.} C C q   $ C C s.W.}.@X%X%X%X%X%X%X%XE.U.U.( g g - o ] U.U.U.U.U.U.U.U.U.U.U.U.I.<.b g N 0.Y.",
"E.U.U.U.U.U.U.U.U.U.U.U.U.U.k.,.,.,.-.C a     u C C s.U.U._.#X%X%X%X%X+XU.U.N.C j g g < + 8.U.U.U.U.U.U.U.U.U.U.B.( C b +._.%XOX",
"XXW.U.U.U.U.U.U.U.U.U.U.U.U.U.c.,.,.,.} C $   % C C C 5.U.U.E.|.#X%XOX!.U.U. .C b g g g f ; k.U.U.U.U.U.U.U.F.<.C C C C.$X%X%X%X",
"%X%X|.E.U.U.U.U.U.U.U.(.`.U.U.U.c.,.,.,.W w   . k C C C [ D.U.U.U.U.U.U.U.k.E C C l g g g g h p.U.U.U.U.B.@.V C C C S.[.+X%X%X%X",
"%X%X%X%XXX`.!.U.U.U.!.#XE.U.U.U.U.k.,.,.{ C #   = b C C C C <.Z.U.U.U.H.j.,.! C C C k g g g g g F @.O.F g b C C C T [.U.#X%X%X%X",
"%X%X%X%X%X%X%X$X+XXX#X.XU.U.U.U.U.U.e.,.-.C w   O g b C C C C C Q <.w.,.,.,.,.{ W T T V l g g g g g g g k C C C C  .E.U.@X%X%X%X",
"<X2X&X%X%X%X%X%X%X%X%X/.U.U.E.U.U.U.I.8.;.C C > g g g b C C C T Q ..a.j.k.z.z.c.L.L.A.b.e.,. .L j g g j C C C C C  .U.U..X%X%X%X",
"fXfXaX2X%X%X%X%X%X%XOXU.}.%X%X|.U.U.U.Z.} C C n g c L [ e.C.G.U.U.U.U.U.U.W. X%X%X%X%X%X%X@X~.w. .g g B C C C C C T U.U./.%X%X%X",
"eXfXfXfX8X%X%X%X%X%X/..X%X%X%X%XE.U.U.U. .C C Z ) ,.c.|.%X%X#XXX}._./.).XX%X%X%X%X%X%X%X%X%X%X@X8.A n C C Z  .3.:.E z.U.U.'.%X%X",
"%XqXfXfXfX4X%X%X%X X).%X%X%X%X%XE.U.U.U.[ C T ;.2.G.$X%X%X%X%X%X%X%X%X%X%X%X%X%X%X%X%X%X%X%X%X%XL.Q C C [ H.U.U.U.J.q.D.U.U.).#X",
"$X%XeXfXfXdX-X$XE.U.OX%X%X%X%XXXU.U.U.H.C C } 7.G.OX%X%X%X%X%X%X*X>X1X4X:XXXXXXX+X%X%X%X%X%X%X%X~.E C  . X).U.U.U.U.U.k.C.U.U.!.",
"'.%X*XuXfXfXqX%X|.@X%X%X%X%X#XE.U.U.U.<.C W 2.G.).%X%X%X-X6XeXaXfXfXfXfX XU.U.U.OX%X%X%X%X%X%X%XQ.C T |.%X%X+X!.U.U.U.U.c.k.U.U.",
"U.#X%X;XdXfXfX:X%X%X%X%X%X%X(.U.U.U.s.C C } Z.U.+X%X-XwXfXfXfXfXfXfXfX1XU.U.U.).%X%X%X%X%X%X%X%Xc.C C.%X%X%X%X#X/.U.U.U.U.k.j.U.",
"U. X%X%X2XpXfXqX%X%X%X%X%X[.U.U.U.z.C C C a.U.).%X<XdXfXfXfXfXfXfXfX9XE.U.U.!.#X%X%X%X%X%X%X%X%X] E @X%X%X%X%X%X#XE.U.U.U.U.w.k.",
"v.`.%X%X%X%X5XiX*X%X%X%X XU.U.I.e.S b B W H.E.@X;XdXfXfXfXfXfXfXfX6XE.E./.[.#X%X%X%X%X%X@X[./.z.C v.$XOXXXXXXXOX%XOXE.U.U.U.J.7.",
"c f.%X%X%X%X%X&X*X%X%X XU.U.H.8.^ g g j <.U.XX%XeXfXfXfXfXfXfXfX0X#X$X%X%X%X%X%X%X%X%X}.U.U.H.E C (.E.U.U.U.U.E.@X%XOXU.U.U.U.z.",
"v g ^.%X%X%X%X%X%X%X[.U.U.H.7.-.l g g g g.[.%X=XfXfXfXfXfXfXfX8X%X%X%X%X%X%X%X%X%X#X(.U.U.U.[ C [ U.U.U.U.U./.#X%X%X%XXXU.U.U.I.",
"&.g F #X%X%X%X%X#X).U.E.|.l.,.T g g < h W.%X%X=XfXfXfXfXfXfX7X%X%X%X%X%X%X%X%X%X#X/.U.U.U.<.C C q.U.U.U.U.).%X%X<X%X%X%XXXU.U.U.",
"F.g g K.%X%X%X XE./. X$X].,.Q B 2 @   e OX%X%X%XyXfXfXfXaX<X%X%X%X%X%X%X%X%X%X#X/.U.U.U.<.C B C x.U.U.U.!.$X%X%XiX,X%X%X%XOXE.U.",
"U.o.g X.`.).E.U.|.%X%X%XS.} C 5 X     =.%X%X%X%X*X3X6X<X%X%X%X%X%X%X%X%X%X%X#X!.U.U.J. .b g g g u.U.U.U.XX%X%X>XfXeX%X%X%X%X+XW.",
"`.V.g g M.U.U.W.%X%X%X%X8.C s +     . k.%X%X%X%X#X@X%X%X%X%X%X%X%X%X%X%X%XOXE.U.U.D.] C g g g g O.U.U.U.%X%X%X<XfXfX>X%X%X%X%X$X",
"%X@Xn.g v D.U.).%X%X%X+XW a o     # a C.%X%X%X%X).U.XX%X%X%X%X%X%X%X%X%X[.U.U.U.x.T C C g g g g z I.U.U.#X%X%X=XfXfXiX*X%X%X%X%X",
"%X%X%XX.g | C.OX%X%X$Xs.9 .     8 C C a.%X%X%X%XU.U.W.%X%X%X%X%X%X%XXX!.U.U.J.3.C C C Z N F z g j q.U.U. X%X%X%XqXfXfXeX%X%X%X%X",
"%X%X%XT. .,.,.7.r.$.F ,       q C C C  .[.%X%X@XU.U.U.`.%X%X%X%XOX(.U.U.U.d.M l  .P.|.%X[.U.U.B.3.Z v.U.W.$X%X%X*XpXfXfXqX%X%X%X",
"%X%X%XE.,.,.,.[ g g g %     0 C C C C T I.[.%XXXE.}. X!.`.OXOX`.U.U.U.d.H z #.J.OX%X%X%X%XXXU.U.U.N.E Z.U.).%X%X%X;XdXfXfXrX=X%X",
"%X%XOXU. .} ,.;.g g g -   8 C C C C C C 3.U././.@X%X%X#XW.U.U.U.F.*.F g Y F.E.@X%X%X%X%X%X%XXXU.U.U.z.W H.U.`.%X%X%X>XaXfXfXaX2X",
"%X%X[.U.[ C ;.,.K g H o.4.S.I.v.5...Q C C  .H.+X%X%X%X%X@XU.r.P g g g *.U.E.+X%X%X%X%X%X%X%X%X[.U.U.U. .( J.U.`.%X%X%X-XeXfXfXfX",
"%X#XE.U.T C W 8.v.J.U.!.OX%X%X%X}.U.U.D.3.Z C E :.q.y.O.v g g g g g u.U.U.XX%X%X%X%X%X%X%X%X%X%X!.U.U.N.j I U.U.).$X%X%X%X*X;X-X",
"%X`.U.N.C C 5.U.U.U.).%X%X%X%X%X%X}.U.U.U.D.Q C C C C n g g g g g #.U.U.'.%X%X%X%X%X%X%X%X%X%X%XXXU.U.U.F g Y U.U.!.#X%X%X%X%X%X",
" XU.H.( C 1.U.U.U.`.%X%X%X%X%X%X%X%X).U.U.U.H.E C C C C n g g g H U.U.E.$X%X%X%X%X%X%X%X%X%X%X%X%X!.U.U.@.g g P F.U.E.OX%X%X%X%X",
"N.3.T C E J.U.U.(.%X%X%X*X4X4X=X%X%X@XU.U.U.U.s.C C C C C n g g m.U.U. X%X%X%X%X%X%X#XOXOX%X%X%X%X}.U.U.#.g g g z #.M.U. X%X%X|.",
"C C C T s.U.U.E.#X%X%X=XaXfXfXdX;X%X%X`.U.U.U.I.8 d C C C C b z U.U.W.%X%X%X%X%X}.W.U.U.).%X%X%X%X#XE.U.+.g g g g g g z F L T C ",
"C C Z ;.G.U.U.XX%X%X%XqXfXfXfX7X%X%X%XXXU.U.U.U.t 6 C C C C C U U.U.|.%X%X%X%X#XU.U.U.!.#X%X%X%X%X%XXXU.D * 2 g g g g g j C C C ",
"C Z ;.2.U.U.(.%X%X%X%XtXfXfX2X%X%X%X%X#XU.U.U.U.R   w C C C C 3.U.R.#X%X%X%X%XOXU.U.E.+X%X%X%X%X%X%X%X|.q   . 1 g g g g B C C C ",
"C -.,.w.U.U.XX%X%X%X%X<XdX7X%X%X%X%X%X%XU.U.U.U.)   o C C C C z.U.[.%X5X8X%X%X+XU.U.XX%X%X%X%X%X%X%X%Xz.8     . < g j B C C C C ",
"{ ,.,.h.[.|.%X%X%X%X%X%X=X%X%X%X%X%X%X%XU.U.U.U.o.X   i C C C G.@X%X<XfXfX:X%X%X`.OX%X%X%X%X%X%X%X$XI.C o       . 3 C C C C C C ",
",.,.,.w.%X%X%X%XXXOX%X%X%X%X%X%X%X%X%X@XU.U.U.U.H *   7 C C C Z.%X%X-XfXfXyX&X%X%X%X%X%X%X%X%X%XOXZ.Z y             p C C C C W ",
",.,.,.c.OX%X%XOXU.(.%X%X%X%X%X%X%X%X%X XU.U.U.J.g 1   . C C C k.%X%X%XeXfXfXeX*X%X%X%X%X%X%X%X[.v.C s o             # C C C C ;.",
",.,.0.I./.@XOXE.U.U.#X%X%X%X%X%X%X%X%X/.U.U.U.u.g g @   q C C } %X%X%X-XaXfXfXaX2X%X%X%X%XOX!.Z.T a o       o 6 7 6 6 q C C T ,.",
",.,.H.U.U.D.] 5.U.U.U.}.%X%X%X%X%X%XXXU.U.U.I.A g g ,   . d C C [.%X%X%X-XeXfXuX-X%X%X@X`.U.J.T 8       $ i C C ! ,.,.>.W C W ,.",
",.0.U.U.I.Q C C s.I.U.W.%X%X%X%X%X@XE.U.U.U.:.b g g g *   # d C <.$X%X%X%X%X*X%X%X@X'.U.U.U._ +     . w C C C ] 8.8.,.,.,.T T ,.",
",.8.U.U.a.C C C C T :.D.+X%X%X%X+XE.U.U.H. .C n g g g g =   8 C C a.#X%X%X%X#X X).U.U.U.U.#.g f X # a C ] v.[.XXU.U.H.e.,.} C { ",
"] ,.J.U.i.C Q  .e.k.a.3.I. X@X[.U.J.x.<.Z C C ( ' Y F g g *   d C C [ G.!.E.U.U.U.U.U.B.P g g g 4 C 3.Z.R.@X%X%X}.U.U.U.k.,.T C ",
"j j ` U.U.Z.U.).%X%X%X#X).I.z. .C C C C C ( !.'.E.U.U.*.g g X 0 C C C C T | %.u.d.&.J g g g g G i.U.(.}.@X%X%X%X%XE.U.U.U.w.Q n ",
"g g g J.U.U.W.#X%X%X%X%X%X).U.U.a.C C C [ OX%X%X%X XE.U.z g , $ C C C C C C B j g g g g M ' x._.OX%X%X%X%X%X%X%X%X[.U.U.U.G.] g ",
"g L 5.U.U.U.OX%X%X%X%X%X%X%X_.U.U.5.C C `.%X%X%X%X%X#X/.P g g @ C C C C C C C B j j L ;.z.I.XX%X%X%X%X%X%X%X%X%X%X#XE.U.U.U.5.g ",
") ,.I.U.U. X%X%X%X%X%XOX%X%X%X`.U.I. .a.%X>X-X%X%X%X%X#X@.g g = a C C C C C C C E ;.7.D.U.U.OX%X%X%X%X%X%X>XqXqX*X%XoXU.U.U.T.g ",
",.,.OX|.+X%X%X%X%X#X/./.%X%X%X%XOX|.OX%X>XsXdX:X%X%X%X%Xt.g g 2 p C C C C C C E ,.2.G.U.U.U.[.%X%X%X%X*XqXfXfXfX7X%X%X@X|.OXOXg ",
";.7.%X%X%X%X%X%X+XW.U.+X%X%X%X%X%X-X4XrXfXfXrX%X%X%X%X%X$.g g g s C C C C C C } ,.N.U.U.E./.E.#X%X%X%X4XfXfXfXfX2X%X%X%X%X%X%XH ",
"^ ,.$X%X%X%X%X%X`.U. X%X%X%X%X%X&XiXfXfXdX8X%X%X%X%X%X+Xx g g g C C C C C C q ,.8.U.U.U.}.|.U.).%X%X%X5XfXfXuX:X%X%X%X%X%X%X.XX.",
"C ;.{.%X%X%X%X$X(.!.%X%X%X%X%X%X7XfXrX5X*X%X%X%X%X%X%Xm.g g g b C C C C C C $ ,.j.U.U.U.+X%X/.U.(.OX%X-XdXeX*X%X%X%X%X%X%XOXE.5.",
"C C C.%X%X%X`.U.U.E.%X%X%X%X%X;XdX6X%X%X%X%X%X%XXX'.G.C n b n C C C C C C p 6 ;.v.U.U.U.%X%X#X`.U.U.!.+X-X%X%X%X%X%X%X$X[.U.U.a.",
"C C T ).#X XU.E.'. X%X%X%X%X%XeX2X%X%X%X%X%XXXE.U.s.C C C E T C C C C C C 0 6 { N.U.U.U.%X%X%X%X+X`.E.`.%X%X%X%X%X%X#X/.U.U.U.z.",
"C C C q.E.R.U.OX%X%X%X%X%X%X%X*X%X%X%X%X%XOXU.U.5.C C ! ,.,.,.,.] C C C C 7 $ W v.U.U.U.#X%X%X%X%X%X%X+X%X%X%X%X%X%X_.U.U.U.U.z.",
"C C C T H.U.U.[.#X%X%X%X%X%X%X%X%X%X%X%X%X!.U.5.C C ] 2.e.A.b.7.,.;.T C C 7 . C k.U.U.U.XX%X%X%X%X%X%X%X%X%X%X%X%XoXU.U.U.U.U.s.",
"C C C C ] I.U.U.E.XX%X%X%X%X%X%X%X%X%X%X}.U.z.C C } C.U._.%X%X+Xj.,.,.E C 8   s <.U.U.U.`.%X%X%X%X%X%X%X%X%X%X%X%X!.U.U.U.U.U.q.",
"C C C C C  .J.U.U.U.|.%X%X%X%X%X%X%X%XoXU.H.T C [ I.U.!.$X%X%X%XE.v.,.,.T q   w E U.U.U.E.%X%X%X%X%X%X%X%X%X%X%X.XU.U.U.U.U.U.<.",
"C C C C C C Q N.U.U.U.OX%X%X%X%X%X%XXXE.U.<.C C D.U.U.+X%X%X%X%X).U.H.j.:.p   7 C N.U.U.U.|.%X%X%X%X%X%X%X%X%X%X!.U.U.U.U.U.U.;.",
"C B b l b B C B Y d.H.!.%X%X%X%X$X[.U.U.D.C C [ U.U.}.%X%X%X%X%XXXU.U.U.J.k.r . C <.U.U.U.E.#X%X%X%X%X%X%X%X%X.XU.U.U.U.U.U.G.;."
};
