/* XPM */
static char *result[] = {
/* columns rows colors chars-per-pixel */
"64 64 55 1 ",
"  c #400000",
". c #46040D",
"X c #4B0308",
"o c #53060D",
"O c #4E0611",
"+ c #4F0814",
"@ c #500511",
"# c #5C0615",
"$ c #421616",
"% c #4C1515",
"& c #461818",
"* c #4B1919",
"= c #511515",
"- c #511B1B",
"; c #591D1D",
": c #630615",
"> c #650718",
", c #6A071A",
"< c #640919",
"1 c #6D091B",
"2 c #70081C",
"3 c #6C0F20",
"4 c #750D21",
"5 c #780F23",
"6 c #6D1021",
"7 c #731426",
"8 c #7B1326",
"9 c #771628",
"0 c #791729",
"q c #741A29",
"w c #7E1A2D",
"e c #572121",
"r c #5B2323",
"t c #622626",
"y c #652828",
"u c #6B2D2D",
"i c #6F3030",
"p c #723232",
"a c #783737",
"s c #7C3B3B",
"d c #821A2D",
"f c #861E31",
"g c #891F33",
"h c #852032",
"j c #8B2235",
"k c #8E2538",
"l c #91263A",
"z c #93283C",
"x c #813E3E",
"c c #9D2A40",
"v c #A32B42",
"b c #AC2D45",
"n c #B02E46",
"m c #B9304A",
"M c #854242",
/* pixels */
"-====---===-tuiuyyyy;*--yypppppppyyyyty-*-tytyuppppppppyyyyyyyt;",
"-==-eeeeee;---rtyyte---eupppppppppyyyyyy$-ryyytippppppiyyyyyytee",
"e-;eeeeeeeeee-------&**epppppppppppyyyyy%*-tyyytupppppyyyyyyyree",
"eeeeeeeeeeeree;--*--$$--pppppppppppuyyyt=$-eyyyytuipiuyyyyyyt--e",
"ertttyyyyyteeeee---*$$*-rpppppppppppyyyr=%$-tyyyyyyytyyyyyy;===e",
"uuyyyyyyyyyyteeeee--*$$--ryuppppppppyyy-==%$;yyyyyyyyyyyyte-=-ry",
"yyyyyyyyyyyyyyreeee--$$*--ryyupppppiyyt-===%$eytyyyyyyyyt-*-;ypp",
"pyyyyyyyyyyyyyyteee--$$$*--etyyupppyyy;--====%rtyyyyyyt;---tpppp",
"ppuyyyyyyyyyuyyyreer-*$$%--*-tyytyyyyr----=====rytytt;----tuippp",
"ppppiuyyytypyyyyyreee-$$%-----etytytree-*-======-;;==--*--uypppp",
"pppppppppuppyyyyyyree**$$==------ereeee-e----==%====%----eyyippp",
"aapppppppppyyyyyyyyee*-*===-*----errrtrttttrree-====----*;yyippp",
"MMMapppppppyuppuyyyte---==-;rtttyyyyyuuppppppiur;==---*---yyyppp",
"xMMMspppppyuppppyyyy-*---;tupppiiuyyippppppppppir-=----re-ryyupp",
"pxMMMspppuupppppyyyye-*eetppppppppppppppppppppppy---eyyyyyryyyup",
"ppsMMMppyyupppppyyyt--ertipppppppaaappupipppppppu---uyyyyyyrryyy",
"uppMMMspupppppiyyyye--eyyppipsxxMMMMuyyyppppppppy--ipppytyyyrryy",
"tppaMMMpppppppuyyyr---typpaxMMMMMMMayyyuppppppppr-rpppppyyyyyrry",
"yuppaMMxpppppuyyyr-*-ryupaMMMMMMMMxyyyyppppppppp-epppppppyyyyyrt",
"typpppaxppppuyyyr----typpMMMMMMMMsyyyupppppppuyt*rpiiiupppyyyytr",
"=tpppppppppiyyye-===etupxMMMMMMMsppppppppppuyyt--uyyyyyyipiyyyyr",
"==ypppppppuyyyee====tuppMMMMMMMsppppppppppyyyy--eytyyyyppppiyyyy",
";=-ppppppuyyure-==%=yppaMMMMMMsppppppppppyyyt;--eyyyyuppppppiyyy",
"y==ypppuyyipue--=$$*ppppxMMMxappppppppppyyyy;---tyyyypppMapppiyy",
"y;==uutyipppte**$$$-pppppaappppppppppppyyyte-===ryyyppppMspppppy",
"ut==ttyyppppr**&$$$rppppppppppppppppppyyyt--====;yyypppaMMpppppp",
"ppt=-ttupppie*$$$$*tppppuyppppppppppuyyyr---=====tyyppppMMMppppp",
"ppp;=-tpppit&$$$*--rppppyyypppppppiyyyye-----====ryyupppsMMMpppp",
"pppy;;er;;=%$$$**--eupppyyyuppppiuyyyt==-yupuytte-ttyppppMMMsppp",
"pppyeee-===%$$***---yupiyuuyypiutyy;-=;tpppppiyyyt-tyuppppMMMxpp",
"ppuy;eee===%$**----*eyyyppppyyytt;;=;typppppppptyyt-yyuppppMMMMa",
"ppuy--ee;==;;rytre---eyipppppyr;===;typppppppppuyyy--yyuppppxMMM",
"ppyy---eryyyppppuyyte---;r;;======;uyippppppppppyyyr=;yyypppppap",
"puyt*-ryyyuppppppuyyyt-----*=====;yyupppppppppppiyyy==;yyypppppp",
"uyt--eyyyuppppppppyyyyy-*----===;yyypppppppppppppyyy;==-yyyipppp",
"tr-*;yyyuppppaappppyyyyr-----===ttyuppppppppippppuyy;====;tyuppu",
"*-*-ryyyppppMMMMpppuyyyt**-*-*-=yyypppppuyyyupppppyy;========-;*",
"---etyyipppsMMMsppppyyyy*&------yyuppppiyyyyipppppiy-$%======;--",
"--eeyyuppppxMMapppppyyyy*$*-*--eyyippppiyyyipppppppu*$$%====*--*",
"*eeryyipppppMappppppyyyye$&*---ryupaxppiyyippppppppt%$$$%==-----",
"eeeruippppppppppppppyyyy;$$*---tppaxMpppu6661666666*$$$$$%--*--*",
"eeerppppiippppppppppyyyy-%$$---tppaxMxp6670dddddwq763$$$$$*-----",
"eeerippiyupppppppppuyyyt=%$$---tpppxM33wkbmmmmmmnzzlw66$$$$**--e",
"eeryyiiyyypppppppppyyyyr==$$%**-pppaM6fzzvmmmmmmmnzzzw6&$%&*---e",
"eeyyyteryyyuppppp666yyt-==%$$**-yppp37zzzzvmmmmmmmczzz76eeee-*-r",
"eryyy--*ryyyp66666664666===%$&--;ppp30zzzzzvnnnnnnzzzz96ererr--e",
"eryyr*----e669hkzzzzkjw6#===%$%*-rip69zzzzzzzzzzzzzzld<#tytree*e",
"-eyyr--err66wzzzzzzzzzzk>#===$$---;t69zzzzzzzzzzzzj021<#uyyyre--",
"==-yyttupp6hzzzzzzzzzzf22>#;==$%--*-39zzzzzzzzzzg52222>#pyyyyr--",
"===yyyypp6dzzzzzzzzzg52222#:==%$*---37zzzzzzzld4222222##puyyyt-=",
"%;ryyyip66zzzzzzzzz8222222>#;==$----*6kzzzzg8222222211=ippyyyye=",
";eyyyupp67zzzzzzld22222221,#;==%*-*--69jkf52222222221<+cpppyyyy=",
"eeiupppp69zzzzzd2222222222,#;===*-*---33>#,2222221:###MMsppiiii=",
"eepppppp66zzzj222222222222>#;===-------ee#,2222221#aMMMMapppppp-",
"-eppppppu6fk82222222222221:#====-*-*-**er#1222222,#aMMMpppppppi;",
"-eupppppy661122222222211,:#t===------*&er@,212222,@pMspppppppiy;",
"--tpppuyyy66o ,1222221 X##y--**------*&erO<222221>.ippppppppuyyr",
"-*-upuyyuippX :222222: yyr-------**-**&erO>122222>.upppppppyyytt",
"*-*ryyyippppp :212222: tr**-eeree*--*&&-r.>222122>.ippppppuyyyyt",
"----yyyuppppp :222222: r--eertreee---*$*eX>222222>.ppppppityyytr",
"----eyyyyuppp :222221: --eryypp.rer--&$*e >222222> ppppppyyyyytr",
"*--**etyyyupp :222222> --yyui..+..ee-*$*- :222222> pppppiyyyyyy;",
"-------tyyyip :222222> *tyyi.+jg3O.rr*$&- :212222: pppppyyyyyyy;",
"--*==--=-tyup :222222> eyyup.qcg1>.ytr*$- :222221> ppppiyyyyyyte"
};
