/* XPM */
static char *result[] = {
/* columns rows colors chars-per-pixel */
"64 64 151 2 ",
"   c #3A120F",
".  c #361713",
"X  c #3D1914",
"o  c #301F19",
"O  c #39231A",
"+  c #3E2D24",
"@  c #4D0604",
"#  c #490C09",
"$  c #530000",
"%  c #5C0000",
"&  c #550907",
"*  c #5E0905",
"=  c #510E0A",
"-  c #5A0F0A",
";  c #42140F",
":  c #4B130E",
">  c #55110D",
",  c #5C110D",
"<  c #421613",
"1  c #4C1515",
"2  c #461A14",
"3  c #4D1A14",
"4  c #461818",
"5  c #4B1A19",
"6  c #511515",
"7  c #5B1713",
"8  c #531A15",
"9  c #5D1D16",
"0  c #511B1B",
"q  c #5A1E1C",
"w  c #650000",
"e  c #6B0202",
"r  c #6F0906",
"t  c #6C0708",
"y  c #650D0A",
"u  c #6D0D0C",
"i  c #750000",
"p  c #7B0304",
"a  c #720608",
"s  c #7E0608",
"d  c #740A0A",
"f  c #7A0B0D",
"g  c #66120E",
"h  c #69120E",
"j  c #72120F",
"k  c #7A110F",
"l  c #7E0F11",
"z  c #631511",
"x  c #6C1512",
"c  c #631A14",
"v  c #6B1A16",
"b  c #661E19",
"n  c #6B1D19",
"m  c #741412",
"M  c #7B1312",
"N  c #741916",
"B  c #7B1A17",
"V  c #751C19",
"C  c #7B1B19",
"Z  c #4D211A",
"A  c #55251C",
"S  c #5B241C",
"D  c #532A1F",
"F  c #5C281F",
"G  c #63221B",
"H  c #6A231C",
"J  c #61281F",
"K  c #72241E",
"L  c #462B22",
"P  c #4D2E24",
"I  c #572121",
"U  c #5B2222",
"Y  c #542C23",
"T  c #5C2B21",
"R  c #533126",
"E  c #5A3126",
"W  c #53352A",
"Q  c #5C3329",
"!  c #57392E",
"~  c #5C3A2E",
"^  c #622626",
"/  c #632B22",
"(  c #6A2B23",
")  c #652828",
"_  c #6B2D2D",
"`  c #722721",
"'  c #712A23",
"]  c #6C3127",
"[  c #663128",
"{  c #6A342A",
"}  c #623D2E",
"|  c #72332B",
" . c #6F3030",
".. c #723232",
"X. c #783737",
"o. c #723B31",
"O. c #7E3C3C",
"+. c #820102",
"@. c #880506",
"#. c #820709",
"$. c #8A0709",
"%. c #81080A",
"&. c #890A0E",
"*. c #860E11",
"=. c #890E11",
"-. c #851316",
";. c #8B1315",
":. c #801817",
">. c #8B1817",
",. c #851619",
"<. c #8E1719",
"1. c #84191A",
"2. c #8E181B",
"3. c #911215",
"4. c #941619",
"5. c #931A1D",
"6. c #9B191C",
"7. c #82201E",
"8. c #951D21",
"9. c #9A1F22",
"0. c #A21E21",
"q. c #8A2924",
"w. c #942222",
"e. c #9C2225",
"r. c #9F2428",
"t. c #9E2C29",
"y. c #803D3D",
"u. c #A22326",
"i. c #AA2327",
"p. c #A12529",
"a. c #AF2629",
"s. c #AA292D",
"d. c #B1272B",
"f. c #B52B2E",
"g. c #A3312D",
"h. c #AE2C31",
"j. c #B32D31",
"k. c #BC2E32",
"l. c #AB3B36",
"z. c #B73135",
"x. c #BB3135",
"c. c #C02F34",
"v. c #C23135",
"b. c #C73438",
"n. c #C93539",
"m. c #B1423C",
"M. c #CC3D41",
"N. c #D13E42",
"B. c #854242",
"V. c #D54145",
"C. c #D94347",
/* pixels */
"0 6 6 6 6 0 0 0 6 6 6 6 ^  . ._ ) ) ) ) q 5 5 I ) _ ..............) ) ) ) ) ) I 4 0 ^ ) ) ) _ ................) ) ) ) ) ) ) U I ",
"0 6 6 0 I I I I I I q 0 0 0 U ^ ) ) ^ I 0 0 0 I ) ..................) ) ) ) ^ ^ 4 0 U ) ) ^ ) _ ............ .) ) ) ) ) ) ^ I I ",
"I 0 I I I I I I I I I I I 0 0 0 0 0 5 0 4 5 0 I ......................) ) ^ ) ) 1 4 0 ) ) ) ) ) _ ..........) ) ) ) ) ) ) U I I ",
"I I I I I I I I U I I I I I I 0 0 0 0 5 < < 5 0  ....................._ ) ) ) ^ 1 4 0 I ) ) ) ) ^ _  ... ._ ) ) ) ) ) ) ^ 0 I I ",
"I U ^ ) ^ ) ) ) ) ) U I I I -.-.-.-.-.-.f f 5 5 U  .....................) ) ) U 6 5 4 0 -.-.-.-.-.-.,.-.f f ) ) ) ) ) I 6 6 6 I ",
"_ _ ) ) ) ) ) ) ) ) ,.-.-.-.;.<.2.2.2.,.l f f f l U )  .................) ) ) 0 6 l -.-.-.2.2.8.8.8.8.2.f f f f l ) I 6 6 0 I ) ",
") ) ) ) ) ) ) ) ,.=.2.8.9.r.p.r.p.p.p.p.r.r.e.5.=.f t ) ^ _ ............) ) ^ l l l 8.r.p.p.p.p.0.p.p.p.r.p.r.8.-.f f 1 I _ .. .",
" .) ) ) ) ) -.-.2.9.p.p.p.p.p.p.p.p.p.p.p.s.p.p.r.9.w w ) ) ) _  .....) ) ) d f 2.9.p.p.p.p.p.p.p.p.p.h.p.p.r.p.r.8.l f  .......",
"...._ ) ) -.,.8.r.r.p.p.p.p.p.p.u.u.r.z.V.V.C.x.p.p.5.a w ^ ) ) ^ ) ) ) ) f l r.p.p.p.p.p.p.p.p.p.p.M.C.z.p.p.p.r.r.9.l w ......",
"........-.-.e.p.p.p.p.p.p.p.p.r.r.r.r.h.V.V.C.V.p.p.4.<.e w I ^ ) ) ) ^ f 2.p.p.p.p.p.p.p.9.9.9.e.M.C.N.p.9.9.9.e.9.8.=.w ......",
"........-.9.p.p.p.p.p.r.9.5.<.4.4.2.>.5.5.e.N.C.h.e.3.<.i w w 0 0 I U f l 9.p.p.r.r.9.8.2.2.2.8.M.N.N.2.8.2.2.2.;.&.&.#.e w ....",
"X.X...-.5.p.p.p.p.p.9.8.<.<.<.<.>.2.4.2.2.>.x.C.s.5.<.;.i e w 0 0 U U d 8.p.p.p.9.8.2.2.2.-.&.d.C.M.7.V 2.2.<.<.&.&.&.a i w w ..",
"B.B.,.;.r.p.v.j.u.e.f.v.5.<.4.<.<.<.<.4.>.<.;.<.%.%.%.s i i w ^ ) ) u ,.p.p.p.r.8.2.2.;.&.#.%.9.x.;.N V 2.2.2.=.&.&.#.i p e w  .",
"y.B.-.8.p.p.v.v.u.f.v.k.4.<.<.<.<.<.;.&.#.%.#.%.%.%.s s i i e w _ _ u 9.p.p.9.2.2.2.,.*.#.s s %.%.l N B 2.4.<.=.&.=.p i i i w ..",
"..y.-.r.p.p.f.v.c.v.k.5.4.<.2.<.*.%.#.%.%.%.%.#.%.%.%.p i i e w ..u l p.p.p.8.2.2.,.#.#.%.s %.%.i a N V <.<.=.&.&.&.p i i i w ..",
"..-.,.r.p.p.i.v.v.k.5.<.<.<.*.%.%.%.%.%.%.%.%.%.%.#.#.a i i e w ..u ,.p.p.p.8.2.2.*.#.s %.%.%.s i i m B <.<.=.&.&.&.%.i i i w ) ",
"_ -.8.r.p.p.r.u.f.6.>.<.;.%.%.%.%.%.%.%.%.s %.%.%.%.%.i i i e e t u 2.p.p.u.2.2.,.%.%.s %.#.%.#.p i d 1.>.&.%.&.%.&.&.p i i w w ",
") -.8.p.p.p.8.4.<.<.<.=.#.%.%.%.s %.%.s #.%.%.%.%.%.p i i i e w w y w.p.p.e.2.2.;.%.%.%.%.#.f %.s i i *.&.%.%.%.%.%.&.&.#.i w ) ",
") ,.9.p.p.p.4.<.<.<.=.%.%.%.%.%.%.%.%.#.%.%.%.%.%.%.p i i i i w t u w.p.p.r.2.2.&.%.%.%.%.%.%.%.%.p i i s s %.s %.%.%.&.=.%.w U ",
"U ;.e.p.p.r.<.<.>.;.%.%.%.%.%.#.%.%.;.3.%.s %.%.#.%.i i i i e w y u 2.r.r.r.2.2.*.%.#.%.w.;.%.%.%.%.p i p %.%.%.%.%.%.%.#.p w I ",
"0 ,.e.i.b.j.4.<.>.%.#.%.%.%.f %.*.d.c.x.=.%.%.%.%.s i i i i e w t u ,.p.p.p.2.2.-.%.s <.m.g.%.%.%.%.s s s %.%.%.%.%.#.i i e w U ",
"6 ,.e.s.n.v.<.<.=.%.%.#.#.#.#.#.a.c.f.0.%.%.%.%.#.i i i i i w w w $ u p.p.p.5.2.;.#.s &.m.l.%.%.%.%.%.%.%.%.%.%.%.s i i i w w ) ",
"q ,.e.p.b.n.f.0.%.%.%.%.%.%.%.&.k.f.$.%.k k #.%.#.i i i i i w w e $ % p.p.p.8.2.2.%.%.f l.m.g.t.<.s %.%.%.%.%.%.p i i i i w ) ) ",
"^ -.8.p.s.b.n.n.;.%.%.#.%.%.%.&.k.a.%.k N N f %.p i i i i e w e i % $ 7.p.u.e.2.2.&.%.%.>.m.m.m.g.#.%.%.%.%.%.p i i i i e w ) ) ",
") -.8.r.p.9.i.i.#.%.%.%.%.%.%.%.3.k N N N k %.s i i i i i e w e i w $ y p.p.p.2.2.<.#.#.i f q.q.*.%.&.#.%.%.p i i i i e w ....) ",
"_ =.2.p.p.8.4.,.%.%.%.%.%.%.%.f m N N N M %.%.i i i i i i w w i i i $ $ M p.p.8.<.2.-.s i a N m s %.%.#.p i i i i i i w w ......",
"..-.,.p.p.9.<.<.%.#.#.%.%.%.%.N N m N k %.#.p i i i i i e w e i &.&.e $ $ 1.p.9.<.2.<.=.i p M %.s s i i i i i i i i e w ........",
"....-.8.p.e.4.<.%.%.%.%.%.%.k N N K k &.%.#.i i i i i i w w i p =.&.&.e $ $ u ,.-.,.2.,.i i s %.%.i i i i i i i i w w O.........",
"....d t 9.p.<.<.;.#.%.%.%.f N N N k #.f #.i i i i i i e w w i &.&.&.&.&.d $ $ $ $ $ ,.<.*.%.#.#.%.s t r a e * * w w B.B.O.......",
"......w t 9.8.2.>.s s %.%.k N N M %.#.s i i i i i i i w w i i &.&.&.&.&.=.s w % $ $ d %.s %.s f h g g g g g , ......B.B.B.y.....",
".... .) w w *.<.4.&.s %.f N N M %.%.p p i i i i i i w w % i s &.&.&.&.&.&.p i i % $ a %.f d x g h z g g g g - ......X.B.B.B.B.X.",
"...._ ) I w w w d d %.%.M N M %.s r i r a a i i i w w w $ i &.&.&.&.=.&.p i i p % $ a d z z y z g g g g g g * _ ........y.B.B.B.",
"....) ) 0 0 0 w w w f %.f j u h g h h g g g w w w w e % $ a &.&.&.&.&.p i i i i % $ M ,.,.N c z c c c c c , w ) _  .............",
".._ ) U 5 0 I ) ) w p s d h g g g g g g g y w w e i i w $ t &.&.&.&.#.i i i i i % $ M <.2.,.9 c v c 9 9 c 7 w ) ) )  ...........",
"_ ) ) q 0 I ) ) ) w s s g g x g h g g h h y w e i i i e $ $ p i i i i i i i i i % $ M 2.2.2.C n N c c 9 9 g w 0 ) ) )  .........",
"^ I 0 0 0 ) ) ^ ) w s -.f h y z h g g h g y w w i i i i % $ % w e i i i i i i i % $ x <.2.2.,.:.N v c 9 c z w 6 8 q ^ )  ..... .",
"0 0 0 0 U ) $ $ w w :.2.<.2.M x g g h g h y w e +.i i i i % $ $ $ $ i i i i i i % $ x N :.1.C C V K H H H c w 6 6 6 6 6 0 0 0 0 ",
"5 0 0 I w w y y w w -.2.5.2.2.M h h h g g y w e +.p i i i p e % $ $ e i p k i i % $ h N N N ` ' K ` ' ' ' V w 6 6 6 6 6 6 0 0 0 ",
"5 0 I w t 5.p.p.d w -.<.2.<.,.M M x h z h y w w +.+.p +.+.i i i % $ e p B M i i % $ h N N N K K K ( ` ' ' H w 1 6 6 6 6 5 0 0 5 ",
"0 I w t e.p.p.r.d w M 2.2.2.<.m m m d h g g w e $.+.+.+.p p i i % $ e M C s i i % $ j N N N K K H S ' ' / q w X 1 6 6 0 0 0 0 0 ",
"q I w 8.r.p.p.p.d w x 2.2.2.,.M m u d h x y - y 3.$.+.+.p i i i % $ u C k i i i w $ x N m N K n G S F D D S w X < 1 0 0 0 5 0 0 ",
"I w l p.p.p.p.p.d w m C 2.<.:.m M u x n z g - g ;.3.+.p p p i i % $ m C i i i i % $ h N N N n n G S D D D 8 w 4 < < 5 5 0 0 0 0 ",
"I w 2.p.p.p.p.p.r w x N 2.2.:.M h j n G z g - y 3.3.+.+.+.+.i i % $ m M i i i i % $ h N N N n n G F D D D 8 w 4 X 4 4 0 0 0 0 I ",
"I w e.r.t.r.e.C t w j N ,.2.M j h n G H z g > g 3.3.#.+.+.+.i i % $ m C p i i i & # x N N N n n S S D D D S w 4 4 4 4 4 4 0 0 I ",
"I w e.p.w.C N N g - x N m M j j N v G H z g 1 g 3.3.%.$.@.+.i a % $ x C C k r r & # x N N N v n G S D D D 8 w 5 I I I I 0 0 0 I ",
"I w M B N N N N - - x N m m m N H H H H x z 8 7 3.-.&.*.$.@.i p % $ m C K C h h = # z N m N n n G F D D D q w q I I I I I 0 0 I ",
"I w t N N N N N g - x N m k j H 9 G G G c , 6 g 3.k j *.M -.h r % $ y C :.:.j h = # x N N N H J S S D D Y 8 w _ ) ) ) U I I 0 I ",
"q I w y d m N N g , v N j N N v S G G S z g 6 7 ;.m j k k k h h & @ y x :.K h h & # x N N H E T F F D D Y I w .._ ) ) ) U I 0 0 ",
"6 0 0 e $ # v N y - x V N N N b S S S A 9 g 3 7 k m :.*.k j h h = # , h h m t i & # z N H Q E T E Y D D D Z Z ....) ) ) ) U 0 0 ",
"1 6 6 ^ ) # x N 7 - x V V N ) n G G A A S , 3 7 j m M j h j h h = # 8 g h h i i = ; v H Q [ E E E R P R P P Z ....{ ) ) ) ^ 0 6 ",
"6 q I ) ) # x N - , v N N N ( ( G S A A A 7 3 7 N j j j c c h h = # 8 c h h a i = ; S Q Q Q E E E E P P P P Z ......) ) ) ) I 6 ",
"0 I ) ^ ^ # z N , - x N N V ] { J F A A A S 3 7 j N j j c 9 9 h = # 7 9 c g r i > ; T Q E Q E E Y R P P P P Z O..... .) ) ) ) 6 ",
"I I .._  .# > , 6 3 x N N ( { { J F A D S A Z 8 m j j v c S S h > # 8 S 9 g h r = ; R E Q E E Y Y Y P P P P + B.O....... . . .6 ",
"I I ......4 > , 6 1 b N V X.{ { J F S A A Z Z Z N j v b 9 G S 9 : X 8 c 9 9 g h 2 X P Q Q Q E E Y Y D D P P + B.X.............6 ",
"0 I ......; > , 6 8 v N | o.{ { J A A A A A Z 8 N c 9 S J G A A : ; Z G 9 9 9 g 4 X W ! ! ! E Y E D D P P P + X. ........... .q ",
"0 I _ ....< > , > 3 n ' o.o.[ [ F S A A A A Z Z j 9 S A J K A / 3 ; Z S 9 9 9 S Z X P ! ! ! Q E Y D R R P L +  ........... .) I ",
"0 0 ^ ....; > g : ; n o.o.o./ J J F A A D A X 2 9 9 S F J ] A ] 3 ; Z S 9 9 9 9 2 X Y Q ! ! } } Q Y P P P P O .......... .) ) U ",
"0 5 0 _ ..; 1 6 ; ; [ o.[ ( / J J J A S A Z X 2 9 G S J J K J ] Z ; A A S 9 9 9 2 X Y E ! ! ~ } Q W P R P L O ...... .) ) ) ) U ",
"5 0 0 I ) ; 3 8 2 ; [ { H J / J J F A A A Z X 2 c c F T ( ( ] ] 3   A A S 9 G 9 2 X Y Q Q ! } } Q E P P P P O ......_ ) ) ) ) ^ ",
"0 0 0 0 ^ ; 8 8 ; ; / / / / J J J F A A A A X ; 9 S S F ( J ] ] 3 ; Z A A S 9 9 2 X Y Q ! ! ! ~ E R P Y P L O .... .) ) ) ) ) U ",
"0 0 0 0 0 < 3 8 <   A T / / T T F F D A A Z . X 9 S S S S S J ] 3 ; Z A A A S S 2   D Q ! ! ! W W W P P P L o ....) ) ) ) ) ) I ",
"5 0 0 5 0   2 8 <   A / / T F F F S A A A Z . 2 9 c 9 S A 8 S ( 2   A A A A A A X   D Q ! ! W W W P P P P L o .. .) ) ) ) ) ) I ",
"0 0 0 0 0   1 8     A / / T T F F D A F A Z . X 9 9 9 A S S A S 2   Z A A A A A <   R ! ! ! ! W P W P P P L o ..) ) ^ ) ) ) ) I ",
"0 0 5 6 6   3 6 <   A / / / F F F F A A A Z . X 9 9 9 S S S S A ;   A A A A A A <   P ! ! ! W W W W P P Y L o  .) ) ) ) ) ) ^ I "
};
