/* XPM */
static char *result[] = {
/* columns rows colors chars-per-pixel */
"64 64 119 2 ",
"   c #073200",
".  c #0A3A00",
"X  c #094301",
"o  c #0A4D00",
"O  c #194500",
"+  c #164F01",
"@  c #0E5200",
"#  c #0F5901",
"$  c #115C01",
"%  c #255B02",
"&  c #076301",
"*  c #0E6503",
"=  c #076B00",
"-  c #0B6902",
";  c #146403",
":  c #196303",
">  c #126B05",
",  c #1A6C06",
"<  c #067401",
"1  c #097B02",
"2  c #147107",
"3  c #1D7206",
"4  c #1E7906",
"5  c #167608",
"6  c #197608",
"7  c #197B0A",
"8  c #257505",
"9  c #287505",
"0  c #247D05",
"q  c #2A7E04",
"w  c #247309",
"e  c #2A740A",
"r  c #247D0A",
"t  c #387F00",
"y  c #3D7C0F",
"u  c #924A1B",
"i  c #9A4E1D",
"p  c #9E501D",
"a  c #A4531E",
"s  c #AA561F",
"d  c #AC5720",
"f  c #AE5820",
"g  c #B35B21",
"h  c #BB5E22",
"j  c #028604",
"k  c #0C8204",
"l  c #068B04",
"z  c #158206",
"x  c #1F8109",
"c  c #128A08",
"v  c #1C8B0E",
"b  c #029404",
"n  c #0B9303",
"m  c #039B03",
"M  c #0A9C05",
"N  c #149406",
"B  c #159E05",
"V  c #14990A",
"C  c #1B9E0F",
"Z  c #258306",
"A  c #2B8806",
"S  c #22840A",
"D  c #238809",
"F  c #288809",
"G  c #368605",
"H  c #3D8B04",
"J  c #338C09",
"K  c #389601",
"L  c #359509",
"P  c #39900B",
"I  c #3F9A0D",
"U  c #219712",
"Y  c #01A503",
"T  c #01AB02",
"R  c #0FAB06",
"E  c #11A606",
"W  c #00B401",
"Q  c #0BB405",
"!  c #01B902",
"~  c #0ABA05",
"^  c #16B704",
"/  c #13B309",
"(  c #22AC07",
")  c #38B707",
"_  c #3BB508",
"`  c #409903",
"'  c #44910F",
"]  c #418311",
"[  c #458F10",
"{  c #489710",
"}  c #4B9A11",
"|  c #70930C",
" . c #45A802",
".. c #41A308",
"X. c #4CA70C",
"o. c #45AD08",
"O. c #4DAB0D",
"+. c #54AE0B",
"@. c #59AE0A",
"#. c #46B607",
"$. c #47B109",
"%. c #4DB20A",
"&. c #51B503",
"*. c #54BF07",
"=. c #59BE04",
"-. c #52B60A",
";. c #5AB50A",
":. c #55BD08",
">. c #5CBB09",
",. c #64B70A",
"<. c #02C500",
"1. c #0BC504",
"2. c #02C800",
"3. c #14C302",
"4. c #05D200",
"5. c #52C107",
"6. c #5CC206",
"7. c #5FCC02",
"8. c #69D100",
/* pixels */
"g g f g g f g g f g g g g g g g g g g g h h h h h h h h h g g g g g g g f h h h h h h g g g g g g g g g h h h h h h h h h h g g ",
"g g g g g g g h g g h h g h g g g f g g h h h h h h h h h g g g g g g g g h h h h h g g g g h g g f g f g h h h h h h h h h g g ",
"g g f g g g h h g g h h h h h h g g g f g g h h h h h h g f f g f g f g h h h h h g g g h h h h h g g g g g h h h h g h h h h g ",
"g f g g g g h h h g h h h h h h f d d d d d d f h h h g g g g g g g g h h h h h d d g g h h h h h g g f g g g g h g g g h h h g ",
"f g g g g f f g g g d d d d d p p i p p h h s a g g a d d f f f g g h h h h h d i p d f h g g g f d d f g f f g g g g f g h g g ",
"g g f g g f d d p a a p p p i p p p i p h h h p p p p d a a d p d h h h h f d p i i d a s f a a p d d p i d p d d d f f g g g g ",
"f f g d d d p d a a p p p p p p p p p p s h s a p p d p a a a d d d g g d d d p p d a a a a p a d d d p i i i i i i p d d f g g ",
"d p p i u i i i i i i i i i i i i p p p u p p u p i i i p i i i u u i u u i i u i i i i i p i i u u u i i i i i i u i u u i d p ",
"u u u u u u u u u u u u u u u u u u u u u u u u u u i u u u u u u u u u u u u u u u u u u u u u u u u u u u u u u u u u u u u u ",
"u u u u u u u u u u u u u u u u u u u u u u u u u u u u u u u p u u u u u u u u u u u u u u u u u u u u u u u u u u u u u u u u ",
"g g f u u u d g g g g g g g g g a u u h h h h h h h h h h h h h h h g g h g g g g g f d p u u g h h h h h h h g g g g g g g g g ",
"g g u u u a h h g g g g g g g g s u u g h h h h h h h h h h h h h h g g g g g g g f d p u u p h h h h h h g g g g g g g g g g g ",
"g u u u d h h g g g g g h g g g s i u s h h h h g h h h h h h h h h h g g g g g g f a i u u f h h g g g g g g h g g g g g g g g ",
"d u u p h h h h g g g g g g g g s u u s h h g s s g g h h h h h h h h h g g g g g a u u u p h g g g g g g g g g g g g g g h g g ",
"u u i h h h h h g d g g g g g g g u u a h h s s g g s s g h h h h h h g g g g g p u u u p h f f g h g g g g g g g h g g g g g g ",
"u u f h h h h h d d d d g g h g g i u a h s s s g g h s s s h h h h g g g g g d u u u d h f a d g g g g g g g g g g g g g g g d ",
"u i h h h h h h h s s s s g g g g i u i f s s s s g g g s s h h g f f g g g f u u u h h g a a a d d p d g g g g g g g g g g g u ",
"u d h g h g h h h h g s s s g h f i u i s s s s s g g g g s s s s a a g g g a u u g h g a a a a p d d f g g g g g g d g g g a u ",
"u d f d d d g h h h h s s s s s s i u u s s s s s s s g s s s s s a a g g g u u i h g a a a a a d d g g g g f s s s g g g g u u ",
"p d d d d d d f h h h g s s s s s a u u s s s s s s s s s s s s s a a g g g u u a g a a a a a a p f g g g s s a a a g g g a u u ",
"a a s s d d d d s g g s s s s s a p u u a s s s s s s s s s f g a a s s s s u u s g s a a a a a d d g f s a a a a s s f d a u u ",
"a s s s d a d a s s s s s s s s a a u u a a s s s s s s f g g g f a s s a p u u a g s a a a a s a d s s s a a a s s s s s i u u ",
"a a d s s s a d s s s s s s a a a a u u i a a s s s s s g g g g g s s s a a u u s g f a a s s s d a d s s a a s s s s s s i u u ",
"a a a s s s d a s s s s s s a i i i u u i a a a s s s s g g g g f s s s a p u u f g g f f s s s a d s s s s s s s s s s s i u u ",
"i a a s s s s s s a a i u u u u u u u u u a a a a s s s s s s s s s s s s a u u f g g g g g s s s s s s s s a a a a s s a a u u ",
"u a i i i i i u u u u u u u u u u i u u u u a a a a s s s s s s s s s a a p u u f g g g g g g s s s s s s a a a a a a s a a u u ",
"u u u u u u u u u u u u i a s g h h h i u u i a a a a a s s s s s a u u u u u u u p s s f g g g s s s s a a a s a a a a a u u u ",
"u u u u u i u i i a a s s f h h h h h h i u u i a a a a a a a s p u u u u u u u u u u p s f g g f s s a a p s s s s a a a u u u ",
"a a s s s s s s s s s s s s h h h h h h h i u u p a a a a a a p u u i a f g g f a u u u p s a a i u u u u u u u a s a p u u i f ",
"s d s s s s s s s s s s s s f h h h h h h f i u u u i u i i u u u i f g g h h h h g u u u u u u u u u u u u u u u s i u u u h h ",
"s s s s s s s s s s s s s s s h h h h h h h f u u u u u u u u u u f h g g g g g h h g u u u u u i a a s s f a u u i u u u h h f ",
"s s s s s s s s s s s s s s s f h h g s s h h f i u u 2.~ i u a g g g g g g g g g h h f u u p h h h h h h h h i u u u u f h h s ",
"s s s s s s s s s s s s s s s s a a a a a f h h u u p g Q v g g g g g g g g g g g g h h p u i h h h h h h h h h u u u i h h f s ",
"s s s s s s s s s s s s f s s s a a a s s s g f u u d g <.U v g g g g g g g f g s h g g a u u h h s s s s f h h a u u a h h f s ",
"s s s s s f g g s s s f g g s a a a s s s s s a u u g g ! V v g f f f s s s s s s s f h a u u h h h f s s s h h g u u s h h f s ",
"s s s s f g g g g s f g g g s a a a s f s s a i u i g g Y M v d s s s s s s s s f g s f a u u g h h h h s s h h h i u i h h s s ",
"s s s f g g g g g h g g g g s a a s g g d s a u u p g g T Y D v s s s s s s s g h h h s p u u h h h h h g s f h h i u u h h s s ",
"s s s g h g g g g g g g h s s a s g g g d d p u u d g g g T c 5 s s s s s s g h h h g s i u i h g h h h f s s s s a u u h h s s ",
"s s g g g f s s g g g g g s s s g g g g a a i u i g g g g 2.n * s s s s s s h h h g s s i u p h s s f f s s s s s s u u f h s s ",
"s s f h f s s s f g g g g g g s g g g s d d u u i g g g s 2.Y * f s s s g g h h g s s a u u a g s s s s s s f g g s u u s h g s ",
"s s s s s s f g g <.g g g g g s g g g s s a i r i s s s s 2.T * g g g g g g g h f f f d u u p s s s s f g g g s a u u u i g h f ",
"s s s s s g g h f <.v a a g g g s g g s s a u r i s s s s T T - g g g g g g g g g g f i u u a a f g g g g g s u u u u u u u s f ",
"a a s s a i u u u <.V v u u i g s f s s s a Y r i a s s s T Y 1 s g g g g g g g g a i u u u i p p s f g g a u u u a s a u u u i ",
"u u u u u u u u u <.R v u u u i a p p p p T n r u a s a s T T m s s f g ;.g f a u u u u u u u u u / u a i u u u f h h h s i u u ",
"u u u u u u u i a <.3.,.a u u u u u u u u Y N u u u u i i Y T T a s s s ;.a i u u u u a a a i i 2.1.U u u u u f h h h h h h a i ",
"a i u i a s h h h 2.2.,.,.a u u u u u u Y T c u u u u u u u T l i a s s ;.u u u i s h g g f g g 4.^ U u u i h h h h g g g h g s ",
"s g g h h h h h h h <.#.@.a u u f h h g T Y 0 a a a i @ u u T b . u a @.@.u u a g g g g g g h ! 2.~ U U u h h h h g g g g g s s ",
"s g g g g g s s g g ! n 5 i u u h h h h Y Y w h h h h @ h g T B . u u ;.;.u d f g g g g g g g <.<.<.C U u h h h g g g g g s s s ",
"s g g h h f s s h g ! M 6 u u i h h h h Y n , h h h @ @ h h { ' o u u %._ s g g g g g g g g f <.! ! d u u g h h g g g f d d a d ",
"s g g g g g s s g g ! T 5 u u ! n h h ! ! n , h h h @ @ h h } } > s u ! ! g g g g g g g g d d Y Y g d u u h h g g g d d d d d a ",
"s g g g g g g g g g ! R 5 u u ! l g d ! ! n , h h h , h h g } } * h a ! i g g g g g g g g d d Y Y h p u u h h g g g g d s s s s ",
"s s g g g g g g g g ) $.5 u u ! < d s ! ! z h h h S S h f d } } > h ! ! i g g g g g g f d d k Y Y f d u u h h h g g f d s s s s ",
"s s f g g g g g h g -.-.5 5 ! ! = d s W ! 5 h h h S x f d d +.O.> h ~ ^ u g g -.g f f d d d j Y d f d u u g h h g g g s s s s s ",
"s s s g g g g g g g -.-.7 7 ! ! = d s T T 3 h h h S x d > d 5.5.$ h -.-.I d s :.d d d d d : l Y g g i u i g h h h g g s s s s s ",
"s s s g g g g g g g -.-.7 5 ~ ~ z f T W T 3 d d 2 5 6 d > > :.5.$ h %.-...f -.g s s d d d ; b Y g g d u u h h h h g g f s s s s ",
"s s g g g h g g g h :.>.S 5 *.*.D 7 T T Y 3 d f Z > d d > # 5.5.$ o -.-.A f -.g f s s a d : Y m g g i u u g h g h g g f f g d s ",
"d f g g g g g g h h 6.6.x 5 5.5.S 7 ( ( V 3 g g 6.> s s @ @ -.-.: > :.>.Z f =.g g 6.6.f f ; Y E g g u u u u h h h h g g g g g f ",
"d g g g o @ g g h h >.=.S x 5.5.7 5 O.O.{ 3 g 8. .* s s @ @ X.-.S 7 >.6.A a 6.g g > 6.h # : -.-.f s 7 u u u a g h h h g g g g f ",
"p p p b & g h h 6 3 *.*.S x :.5.6 > O.O.P ; f 8.K s a f @ @ O.-.S 7 5.5.0 q :.f > , 6.6.; , -.+.f 7 7 u i u u d h h h h g g g d ",
"u u u b o d g g h 3 :.:.D 5 -.-.6 > O.O.J > f 8.3 s g a @ @ X.+.S 5 5.:.8 , :.d > g 6.6.6 Z -.-.i 7 u a > u u u a o.h h g i u u ",
"u u b j o u u p a 3 ;.;.F 6 -.-.6 * [ [ e ; 8.8.# a i u $ $ +.+.8 6 :.:.8 $ :.u $ h 7.7.6 S %.-.u 5 p h ; ; u u -.L g f u u u u ",
"d d b l * u u u 3 8 ;.>.D 7 %.-.6 > ] ] e ; 6.&.X u u u $ $ | | 8 0 ;.>.9 @ ;.u @ i 7.7.q e :.-.> * g h @ @ g i -.4 u u u u i a ",
"d d b l 2 d i u 3 3 ;.;.Z 2 $.:.% + ] ] e ; 6.`   u u a $ : | | 8 0 ;.;.J 5 +.G @ u 7.7.t % -.-.* > h g @ @ h -.-.> u u u a d d ",
"d d b l d d d w 3 3 :.*.S 2 o.*.% O y G e > 6.q   i a $ $ : | | e 0 >.;.L 7 X.H @ u 7.7.' % :.:.* > a d @ @ g -.o.> u u a s s s "
};
