/* XPM */
static char *result[] = {
/* columns rows colors chars-per-pixel */
"64 64 158 2 ",
"   c #0A4D00",
".  c #0A4F00",
"X  c #0D5100",
"o  c #0D5200",
"O  c #0B5401",
"+  c #0C5801",
"@  c #125F03",
"#  c #0A6101",
"$  c #0E6003",
"%  c #0E6504",
"&  c #0F6604",
"*  c #0F6704",
"=  c #096E02",
"-  c #0C6F01",
";  c #0F6804",
":  c #0E6E04",
">  c #136603",
",  c #176403",
"<  c #186202",
"1  c #186303",
"2  c #1A6402",
"3  c #106904",
"4  c #136A04",
"5  c #1A6A05",
"6  c #1B6C06",
"7  c #186E07",
"8  c #1D6F06",
"9  c #0C7603",
"0  c #077900",
"q  c #107703",
"w  c #1B7605",
"e  c #177809",
"r  c #226C06",
"t  c #287107",
"y  c #237F06",
"u  c #287A04",
"i  c #297B04",
"p  c #237A09",
"a  c #277B09",
"s  c #237D0A",
"d  c #247C0A",
"f  c #924A1B",
"g  c #944B1B",
"h  c #954C1B",
"j  c #954B1C",
"k  c #964C1C",
"l  c #984D1C",
"z  c #994E1C",
"x  c #9A4E1D",
"c  c #9C4F1D",
"v  c #9E501D",
"b  c #A0511D",
"n  c #A2521D",
"m  c #A0511E",
"M  c #A2521E",
"N  c #A4531E",
"B  c #A6541E",
"V  c #A6541F",
"C  c #A8541F",
"Z  c #AA561F",
"A  c #AC571F",
"S  c #AB5620",
"D  c #AC5720",
"F  c #AE5820",
"G  c #B05820",
"H  c #B15921",
"J  c #B15A20",
"K  c #B25A21",
"L  c #B45B21",
"P  c #B65C21",
"I  c #B65C22",
"U  c #B85D21",
"Y  c #B85C22",
"T  c #BA5E22",
"R  c #BC5F22",
"E  c #0B8204",
"W  c #078E04",
"Q  c #098904",
"!  c #098A04",
"~  c #0E8E04",
"^  c #138308",
"/  c #1E8208",
"(  c #1B8608",
")  c #0B9603",
"_  c #0D9505",
"`  c #069F03",
"'  c #0B9803",
"]  c #119206",
"[  c #1F9304",
"{  c #258206",
"}  c #208009",
"|  c #208608",
" . c #20830C",
".. c #2F800A",
"X. c #318705",
"o. c #328905",
"O. c #329107",
"+. c #359407",
"@. c #3E9F08",
"#. c #01A200",
"$. c #01A401",
"%. c #01A502",
"&. c #00A602",
"*. c #00A702",
"=. c #00A305",
"-. c #00A405",
";. c #00A505",
":. c #00A704",
">. c #00AA01",
",. c #00AB01",
"<. c #00AC01",
"1. c #01AE01",
"2. c #02AF02",
"3. c #00A904",
"4. c #09A803",
"5. c #18A406",
"6. c #01B202",
"7. c #02B203",
"8. c #00B501",
"9. c #00B701",
"0. c #01B701",
"q. c #00B402",
"w. c #00B702",
"e. c #09B702",
"r. c #01B800",
"t. c #01B900",
"y. c #00BA01",
"u. c #00BB01",
"i. c #00B802",
"p. c #01BD01",
"a. c #0EB803",
"s. c #16B604",
"d. c #1FB705",
"f. c #13B804",
"g. c #27A905",
"h. c #429B0F",
"j. c #449B0F",
"k. c #469D0D",
"l. c #4A9A10",
"z. c #4B9A11",
"x. c #46A909",
"c. c #48AB09",
"v. c #4AB009",
"b. c #4EB609",
"n. c #4DB70A",
"m. c #51B60A",
"M. c #50B70A",
"N. c #52B70A",
"B. c #00C100",
"V. c #02C100",
"C. c #02C101",
"Z. c #00C200",
"A. c #01C400",
"S. c #02C400",
"D. c #02C500",
"F. c #02C600",
"G. c #02C700",
"H. c #02C800",
/* pixels */
"K K K K K K K K K K K K K K K K K K K Y R R R R R R R R R L K K K K K K K P R R R R Y K K K K K K K K K Y R R T R R R R R Y K K ",
"K K K K K K P Y L K I Y Y Y Y Y L K K L T R R R R R R R R I K K K K K K P R R R R R P K L I L L K K K K I R R R R R R R R R I K ",
"K K K K K L R R Y I R R R R R R Y K K K K P T R R R R Y L K K K K K K L T R R R R Y K L T R R R T K K K K I R R R Y I T R R T K ",
"K K K K K L R R Y I R R R R R R K C C C C Z B L R R I K K K K K K K P T R R R R F C K L R R R R R L K K K K L I L K K L R R Y K ",
"K K K K K K I Y L G D D C C C N c c c v P R F M K F N Z F H K K K P R R R R Y C c c Z K P Y P P J C G K K K K K K K K K I T L K ",
"K K K K K F Z C N N m c c c c c c c c M R R Y c c c N N N N B V C P R R Y D N m c c V Z Z Z N N N N N N m m N C S D G K K K K K ",
"K K K Z B N N N N N M v v v v v b m m m G Y D M M M N N N N N N N C P K B N N N M M N N N N N N N N N v c c c c c c c M C K K K ",
"M M m x x x x x x x x x x x x x x x x x x x x x x x x x x x x x x x x x x x x x x x x x x x x x x x x l l l l l l l l l l v M M ",
"f f f f f f f f f f f f f f f f f f f f f f f f f f f f f f f f f f f f f f f f f f f f f f f f f f f f f f f f f f f f f f f f ",
"f f f f f f f f f f f f f f f f f f f f f f f f f f f f f f f f f f f f f f f f f f f f f f f f f f f f f f f f f f f f f f f f ",
"L L F k f f Z L L L L L L L L L V f f P R R R R R R R R R R R R R U L L L L L L L L G N c f f K R R R R R R T L L L L L L L L L ",
"L H k f f B R Y L L L L L L L L Z f f J R R R R R R R R R R R R R R P L L L L L L L Z M g f x R R R T T Y I L L L L L L L L L L ",
"L x f f B R R Y L L L L L L L L F f f F T R R Y K Y R R R R T R R R T L L L L L L G N k f f G R Y L L L L L L L L L L L L L L L ",
"V f f M R R R I L L L L L L L L K f f Z R R P Z F K K T R R R R R R T L L L L L L n g f f m T P L L L L L L L L L L L L L L L L ",
"j f k T R R R P G F K L L L L L L f f N R Y Z Z K L G A L Y R R R R Y L L L L L m f f f v T F K L L L L L L L L L L L L L L L K ",
"f f F R R R R T F Z Z D L L L L L k f v R F Z Z K L K A Z F R R R T L L L L L N f f g Z R J N V K L L L J K L L L L L L L L L N ",
"f x R R R R R R T F Z Z A L L L L l f x L Z Z Z F L L K Z Z L Y P D G L L L G f f k P R L N N N N C C C K L L L L L L K K L K j ",
"f Z R T T P T R R T F Z Z A L L G x f k Z Z Z Z Z F L L F Z Z Z Z N B K L L M f f K R L N N N N N N Z L L L L L K G D H L L B f ",
"k Z F A Z Z D T R R T Z Z Z Z D Z v f f Z Z Z Z Z Z F K A Z Z Z C N N G L L l f x R K N N N N N N Z L L L L F Z C Z G L L G k f ",
"c Z Z Z Z Z Z D T R R F Z Z Z Z Z b f f C Z Z Z Z Z Z Z Z Z Z F C N N G L L f f N L N N N N N N N F L L K A C N N V K L K B f f ",
"M C Z Z Z Z Z Z F P L Z Z Z Z Z V b f f B Z Z Z Z Z Z Z Z Z F L C N B Z A B f f V L B N N N N N C A K G Z B N N N C A F Z b f f ",
"N C Z Z Z Z Z Z Z Z Z Z Z Z Z B N b f f v V Z Z Z Z Z Z F L L L F B Z Z V m f f C L Z N N N N Z Z Z Z Z C N N N Z Z Z Z Z v f f ",
"N N Z Z Z Z Z Z Z Z Z Z Z Z B N N N f f c N B Z Z Z Z Z K L L L K Z Z Z N b f f S L F N N B Z Z Z Z Z Z C N B Z Z Z Z Z Z c f f ",
"b N C Z Z Z Z Z Z Z Z Z Z C M v x k f f x N N N Z Z Z Z J K L L G Z Z C N v f f D L L F D Z Z Z Z Z Z Z Z Z Z Z Z Z Z Z C v f f ",
"c N B Z Z Z Z Z Z N b x k f f f f f f f j N N N N Z Z Z Z Z Z D Z Z Z Z C n f f F L L L L J Z Z Z Z Z Z Z C B N N V Z Z B n f f ",
"k v c c c x l k f f f f f f f f f z k f f k N N N N V Z Z Z Z Z Z Z Z V N c f f F L K K L L K Z Z Z Z Z C N N N N N N B N N f f ",
"f f f f f f f f f f f g l m A K T R T c f f z N N N N N C Z Z Z Z M k f f f f f g v Z Z G L L K Z Z Z Z N N N C B N N N N l f f ",
"f f f f f k k z v M B Z Z F R R R R R T z f f c N N N N N N V Z v f f f f f f f f f f v Z F L L G Z Z M M M C Z Z Z N N v f f f ",
"V V Z Z Z Z Z Z Z Z Z Z Z Z Y R R R R R U k f f v N N N N N N c f f j N J P J F b f f f v Z C m x g f f f f f g N Z N v f f l J ",
"Z Z Z Z Z Z Z Z Z Z Z Z Z Z G R R R R R R L j f f j k l z z h f f k F L P T R R R P k f f g f f f f f f f f f f j V c f f k U T ",
"Z Z Z Z Z Z Z Z Z Z Z Z Z Z Z Y R R R Y T R G f f f f f f f f f k G L L L L L I T R L g f f f f z m V A A A M f f l f f k P R K ",
"Z Z Z Z Z Z Z Z Z Z Z Z Z Z Z D U T K B Z T R G k f f l k k l N K L L L L L L L L Y R G f f v T R R R R R R R v f f f f J R T Z ",
"Z Z Z Z Z Z Z Z Z Z Z Z Z Z Z Z B N N N N G R T g f v L L L L L L L L L L L L L L L P T x f z R R R T T Y Y R P g f f l R R K Z ",
"Z Z Z Z Z Z Z Z Z Z Z Z D A Z C N N N B Z Z K J f f C L L L L L L L L L L K F F F L L L M f f T T F Z Z Z G R R B f f m R R G Z ",
"Z Z Z Z Z G K K Z Z Z G L K Z V N N Z Z Z Z Z M f f K L L L L L G F A Z Z Z Z Z Z Z K L C f f P R R G Z Z Z Y R P f f B R R F Z ",
"Z Z Z Z G L L L K Z G L L K Z N N V A F Z Z Z k f l L L L F A Z Z Z Z Z Z Z Z Z G L D G V f f P R R R Y Z Z P R R l f c R T Z Z ",
"Z Z Z A L L L L L L L L L K C N N Z K L F Z N f f M L L L Z Z Z Z Z Z Z Z Z Z K R R P Z v f f T R R R R F Z G R T v f g R Y Z Z ",
"Z Z A K L L L L L L L L L A Z C C G L L F C v f f D L L L Z Z Z Z Z Z Z Z Z K R R R L Z x f k R L P R R F Z Z A A M f f P T Z Z ",
"Z Z K L L F A Z F L L L G A Z Z G L L L Z B z f g L L L &.Z Z Z Z Z Z Z Z Z R R R P Z Z k f v T A Z G F Z Z Z Z Z Z f f G T Z Z ",
"Z Z G L F Z Z Z G L L L L L K A K L K A Z B k f z L L K &.Z Z Z F D Z D K K Y R Y Z Z Z f f N L Z Z Z Z Z D A K K F f f C R I Z ",
"Z Z Z Z Z Z G L L L L L L L L J H L K Z Z B j f x D Z Z &.&.Z D L L K L L L L P K Z Z C f f M Z Z Z A G K L L D v f f f z P R G ",
"Z Z Z Z Z K L L D V N N N G L L F L J Z Z B j f z Z Z Z &.&.Z Z K L L L L L L L L L G M f f N Z F K L L L L V f f f f f f g Z G ",
"b C Z Z N z f f f f f f f f x K Z D Z Z C N k f l B Z Z &.&.Z Z A K L L L L L L K B l f f f z c v B G L K N f f f m A N f f f k ",
"f f k f f f f f f f f f f f f k b m b v v b g f k N B B &.&.&.Z Z Z F G H K K M g f f f f f f f f f g M z f f g K T T T G l f f ",
"f f f f f f f c V Z F H V g f f f f f f f f f f f j k l &.&.&.N B Z Z Z Z N k f f f k N N v x l g f f f f f k K T T T T T T C k ",
"V z f k N F Y T T T T T T V f f f f f f f f f f f f f f &.&.&.f k B Z Z M f f f l Z L L L L L L L Z f f f v Y T T Y L P Y T I D ",
"F L P T T T R T Y T T T T m f f L Y Y P L J G B M v c l 1.0.8.f f f M M f f f B L L L L L L L L L G v f f T T T T L L L L K Z Z ",
"D L L L I K D Z L L L L Y z f f T R R R R R R R R R R R G.H.H.H.f f f f f f Z L L L L L L L L G Z Z m f f T T T L L L L G Z Z Z ",
"Z L L L L G Z A L L L L T f f z T R R R R R R R R R R R H.H.H.t.F f f f f Z L L L L L L L L F Z Z F V f f T T I L L L F Z Z Z Z ",
"Z L L L L L Z F F.L L L L f f M R R R R R R R R R R R R R H.r.>.R D f f f L L L L L L L L F Z Z Z P V f f T T Y L L F Z Z Z Z Z ",
"Z F L L L L K G F.L L P A f f C R I D T R R T R R R R R T V.<.>.R R M f g L L L L L L L J Z Z Z Z T V f f T T Y L L F Z Z Z Z Z ",
"Z Z L L L L L L F.F.L Y B f f K T D Z A Y R R R R R R R G ,.>.>.R R N.N.g L L L L L L J Z Z Z Z Z K V f f T T T L L G Z Z Z Z Z ",
"Z Z F L L L L L F.F.P T x f f T L Z Z &.Z T R R R R T G Z >.>.#.R R N.N.k K K K H G F Z Z Z Z Z Z K N f f T T T L L K Z Z Z Z Z ",
"Z Z Z L L L L L F.F.F.Y f f h T F Z Z &.&.F T T P G Z Z Z >.>.0 X R N.N.l Z F A Z Z Z Z Z Z Z Z K Z.Z.f g T T T Y L L A Z Z Z Z ",
"Z Z D L L L L L F.F.F.Z f f l L Z Z Z &.%.] Z Z Z Z Z X Z >.4.- X T N.M.c F L K Z Z Z Z Z Z A Z.Z.Z.Z.f k T T T Y L L F Z Z Z Z ",
"Z Z K L L L L L F.F.F.v f f x A Z Z Z &.` d Z F Z Z Z X Z 5.j.r o y g.a.N F L L G Z Z Z Z A 9.Z.Z.Z.x f g K T T T P L G G H D Z ",
"Z F L L L L L L F.F.F.F.f f g Z Z Z Z &.%.s d L K Z X X Z h.z.t $ ; 2.i.M D K L L L K K F =.3.Z.Z.Z.g f f l Y T T Y L L L L L A ",
"Z L L L L L L P T F.F.D.f f f v Z Z Z &.&.} d L J Z X X Z l.z...* : w.i.f N A L L L L L L =.;.y.B.B f f f f M T T T T I L L L G ",
"b v M Z L L P T R F.F.C.k g f f v Z D &.&./ d F Z Z X X B g z.a * 9 w.i.i.f C N.L L K K =.=.=.-.:.k f f z f f D T T T T Y L K N ",
"f f f f g M P T T S.A.p.i.B g f * * L L &.( d d Z Z X X f f k.4 + # 6.i.i.f N.N.L L K Z W =.=.=.=.f f V L g f f V T T T L c f f ",
"f g f f f f f M M i.i.i.i.Z B g & % v K *.~ p d Z C X X f g c.>     [ f.d.f N.N.B P L G q =.=.=.=.f v T T H g f f v P D g f f f ",
"Z Z Z M l f f f f e.i.7.^ e Z = O . f f 9.) 6 8 c f X X c P N.o.    X.v.{ @.m.N.f c M 1 , ! =.=.f M Y T T T K l f f g f f f x N ",
"Z Z Z Z Z B z f f n.s._ e e Z $.    f f u.' 5 5 f f 7 @ T T N.u     i O.* 3 x.N.f f f 1 1 E =.=.G T U K K T T Y m f f f g M Z Z ",
"Z Z Z Z Z Z Z N v N.b.| e e Z q.    v x u.' 5 5 g k  . .F Z N.<     2 w * * +.N.N.f f 1 1 Q =.=.G A Z Z Z F K K F M f k V Z Z Z "
};
