/* XPM */
static char *result[] = {
/* columns rows colors chars-per-pixel */
"64 64 189 2 ",
"   c #073200",
".  c #0B3100",
"X  c #0A3B00",
"o  c #143D01",
"O  c #1A3E03",
"+  c #0A4D00",
"@  c #174300",
"#  c #1B4300",
"$  c #154B01",
"%  c #1C4A01",
"&  c #0E5300",
"*  c #0F5A00",
"=  c #145501",
"-  c #195200",
";  c #115B00",
":  c #214C01",
">  c #284D04",
",  c #255402",
"<  c #2A5404",
"1  c #205C01",
"2  c #2C5B04",
"3  c #325506",
"4  c #345B04",
"5  c #385A07",
"6  c #0D6403",
"7  c #076A01",
"8  c #0D6803",
"9  c #136403",
"0  c #1A6503",
"q  c #136B05",
"w  c #1B6D05",
"e  c #047603",
"r  c #0C7603",
"t  c #077B01",
"y  c #0B7E03",
"u  c #147206",
"i  c #1E7207",
"p  c #1C7B07",
"a  c #157508",
"s  c #1A7508",
"d  c #177909",
"f  c #1A7C0A",
"g  c #216604",
"h  c #2D6007",
"j  c #2F6608",
"k  c #236F08",
"l  c #2C6B08",
"z  c #3C6404",
"x  c #3E6A01",
"c  c #356C09",
"v  c #386F0C",
"b  c #247104",
"n  c #2C7507",
"m  c #227E06",
"M  c #2B7E03",
"N  c #277209",
"B  c #3D7904",
"V  c #3B730B",
"C  c #3E7A0E",
"Z  c #466D04",
"A  c #586B0F",
"S  c #4A7205",
"D  c #4A7807",
"F  c #407C0F",
"G  c #497D0E",
"H  c #527A04",
"J  c #5A760F",
"K  c #56790B",
"L  c #5B7D0C",
"P  c #5F7B10",
"I  c #627F0F",
"U  c #924A1B",
"Y  c #9A4E1D",
"T  c #9E501D",
"R  c #A4531E",
"E  c #AA561F",
"W  c #AC5720",
"Q  c #AE5820",
"!  c #B35B21",
"~  c #BB5E22",
"^  c #048A03",
"/  c #178405",
"(  c #1B8606",
")  c #148B06",
"_  c #1F820A",
"`  c #1D8B0F",
"'  c #019505",
"]  c #0D9304",
"[  c #019C02",
"{  c #099C04",
"}  c #13950B",
"|  c #139C09",
" . c #278405",
".. c #2B8307",
"X. c #258D07",
"o. c #298A06",
"O. c #20830B",
"+. c #2E8708",
"@. c #368703",
"#. c #3D8B0E",
"$. c #2E9209",
"%. c #359406",
"&. c #3F9506",
"*. c #359409",
"=. c #3D930D",
"-. c #3B9809",
";. c #3E8E10",
":. c #219712",
">. c #01A503",
",. c #0FA704",
"<. c #00AC01",
"1. c #0CAC05",
"2. c #15A706",
"3. c #1CA406",
"4. c #16A808",
"5. c #01B401",
"6. c #0DB306",
"7. c #00B902",
"8. c #08BC03",
"9. c #1DB705",
"0. c #1CBA04",
"q. c #22A905",
"w. c #3FA308",
"e. c #2AB706",
"r. c #36B706",
"t. c #49830D",
"y. c #598609",
"u. c #449F06",
"i. c #4C9F07",
"p. c #41910E",
"a. c #489A0E",
"s. c #5F920C",
"d. c #418311",
"f. c #418F10",
"g. c #4C8D11",
"h. c #479412",
"j. c #489511",
"k. c #4B9B11",
"l. c #618E00",
"z. c #64820F",
"x. c #6C860C",
"c. c #628B0E",
"v. c #6A8B0D",
"b. c #6A9A00",
"n. c #66930B",
"m. c #6D910C",
"M. c #71940B",
"N. c #78970A",
"B. c #759C09",
"V. c #7B9A0A",
"C. c #43A303",
"Z. c #45AA06",
"A. c #4BAC01",
"S. c #43A30A",
"D. c #4CA50E",
"F. c #47A909",
"G. c #4EAB0C",
"H. c #52AD09",
"J. c #4BB307",
"K. c #4BBD07",
"L. c #4DB10B",
"P. c #54BC05",
"I. c #59BE07",
"U. c #52B60A",
"Y. c #5AB60A",
"T. c #53BD08",
"R. c #59B909",
"E. c #71A302",
"W. c #7BA404",
"Q. c #7EAB01",
"!. c #64B203",
"~. c #6DB604",
"^. c #63B70A",
"/. c #74B403",
"(. c #01C400",
"). c #0BC401",
"_. c #03C900",
"`. c #05D100",
"'. c #52C007",
"]. c #5BC106",
"[. c #5FCC01",
"{. c #6CC402",
"}. c #62CC01",
"|. c #71C002",
" X c #6AD200",
".X c #8CA204",
"XX c #82AF00",
"oX c #94A804",
"OX c #8EBA00",
/* pixels */
"! ! Q ! ! ! Q ! ! ! ! ! ! ! ! ! ! ! ! ~ ~ ~ ~ ~ ~ ~ ~ ~ ~ ! ! ! ! ! ! ! Q ! ~ ~ ~ ~ ~ ! ! ! ! ! ! ! ! ! ! ~ ~ ~ ~ ~ ~ ~ ~ ~ ! ! ",
"! ! ! ! ! ! ! ~ ! Q ! ~ ! ~ ~ ! ! ! Q ! ~ ~ ~ ~ ~ ~ ~ ~ ~ ! ! ! ! Q ! ! ! ~ ~ ~ ~ ~ ~ ! ! ! ~ ! ! Q ! Q ~ ~ ~ ~ ~ ~ ~ ~ ~ ~ ! ! ",
"! Q ! Q ! ! ~ ~ ! ~ ~ ~ ~ ~ ~ ~ ! ! Q ! ! ! ! ~ ~ ~ ~ ~ ! ! ! ! ! Q ! ! ~ ~ ~ ~ ~ ! ! ! ~ ~ ~ ~ ~ ! ! ! ! ! ~ ~ ~ ~ ! ~ ~ ~ ~ ! ",
"! ! ! ! ! ! ~ ~ ~ ! ~ ~ ~ ~ ~ ~ W W W W W W W ! ~ ~ ~ ! ! ! Q ! ! ! ! ~ ~ ~ ~ ~ W E ! ! ~ ~ ~ ~ ~ ! ! Q ! ! ! ! ~ ! ! ! ~ ~ ~ ! ",
"! Q Q ! ! ! ! ! ! W W W W W R R T Y T T ~ ~ E R ! ! R W W ! W ! ! ! ~ ~ ~ ~ ~ W Y Y W ! ~ ! ! ~ Q W W ! ! Q ! ! ! ! ! W ! ~ ! ! ",
"! ! ! ! ! W W W W R R Y T T Y Y Y Y Y R ~ ~ ~ Y Y Y R R R R R W W ~ ~ ~ ~ ! Y W Y Y R W E E R R Y W R W W T R W W W Q ! ! ! ! ! ",
"! Q Q W W W T W R R R T T T T T R T T T E ~ E R R R R R R R R R W W ! ! W W W Y R R R R R R R R W W T T U Y Y Y Y Y Y W W W ! ! ",
"T W T Y U Y U Y Y Y Y Y Y Y Y Y Y Y Y Y Y Y Y Y Y Y Y Y Y Y Y Y U U Y U U Y Y Y Y Y Y Y Y Y Y Y U Y Y U Y U Y Y Y Y U Y U Y W T ",
"U U U U U U U U U U U U U U U U U U U U U U U U U U U U U U U U U U U U U U U U U U U U U U U U U U U U U U U U U U U U U U U U ",
"U U U U U U U U U U U U U U U U U U U U U U U Y U U U Y U U U Y U U U U U U U U U U U U U U U U U U U U U U U U U U U U U U U U ",
"Q ! W U U U W ! Q ! ! ! ! ! ! ! R U U ~ ~ ~ ~ ~ ~ ~ ~ ~ ~ ~ ~ ~ ~ ~ ! ! ! ! ! ! ! ! W R Y U U ! ~ ~ ~ ~ ~ ~ ~ ! ! ! ! ! ! ! ! ! ",
"! Q U U U W ~ ~ ! ! ! ! ! ! ! ! E U U Q ~ ~ ~ ~ ~ ~ ~ ~ ~ ~ ~ ~ ~ ~ ! ! ! ! ! ! ! ! W R U U Y ~ ~ ~ ~ ~ ~ ! ! ! ! ! ! ! ! ! ! ! ",
"! Y U U W ~ ~ ! ! ! ! ~ ! ! ! ! E Y U E ~ ~ ~ ~ Q ~ ~ ~ ~ ~ ~ ~ ~ ~ ~ ! ! ! ! ! ! ! R Y U U W ~ ~ ! ! ! ! ! ! ~ ! ! ! ! ! ! ! ~ ",
"W U U R ~ ~ ~ ~ ! ! ! ! ~ ! ! ! E U U E ~ ~ ~ E Q ! Q ~ ~ ~ ~ ~ ~ ~ ~ ! ! ! ! ! ! R U U U T ~ ~ ! ! ! ! ! ! ! ! ! ! ! ! ! ! ! ! ",
"U U U ~ ~ ~ ~ ~ Q Q Q ! ! ! ! ! ~ U U R ~ ~ E E Q ~ Q Q ~ ! ~ ~ ~ ~ ~ ! ! ! ! ! Y U U U Y ~ Q ! ~ ! ! ! ! ! ! ! ! ! ! ! ! ! ! ! ",
"U U W ~ ~ ~ ~ ~ Q W W W ! ! ~ ! Q Y U T ~ E E E ! ! ! E E Q ~ ~ ~ ~ ! ~ ! ! ~ W U U U E ~ ! R R ! ! ! ! ! ! ! ! ! ~ ! ! ! ! ! W ",
"U T ~ ~ ~ ~ ~ ~ ~ Q E E E ~ ! ! ! Y U Y Q E E E Q ! ! ! E E ! ~ ! Q Q ! ! ! Q U U Y ~ ~ ! R R R W W W T ! ! ! ! ! ! ! ! ! ! ! U ",
"U W ~ ~ ~ ! ~ ~ ~ ~ Q E E E ! ~ E Y U Y E E E E E W ! ~ W E E E E R R ! ! ! R U U ! ~ ! R R R R T W W ! ! ! ! ~ ! Q W ! ! ! E U ",
"U W W W W W W ~ ~ ~ ~ E E E E E E T U U E E E E E E W ! E E E E E R R ! ! ! Y U Y ~ ! R R R R R R W Q ! ! ! ! E E W Q ! ! Q U U ",
"Y W W W W W W W ~ ~ ~ E E E E E E R U U E E E E E E E E E 8.E Q E R R ! ! ! U U R ! R R R R R R R Q ! ! ! E R R R R ! ! ! R U U ",
"T W E E W W R W Q ~ ! E E E E E R T U U R E E E E E E E W 6.` ! R R E E E R U U R ! E R R R R R W E ! Q E R R R R E Q Q W T U U ",
"R R E E W R E E E E E E E E E R R T U U T R E E E E E E _.4.` ! Q R E E R R U U R ! E R R R R Q W R E E E R R R E E E E E T U U ",
"R R E E E E E E E E E E E E R R R R U U T R E E E E W W _.| ` ! ! E E E R T U U Q ! Q R R R E E E E E E E R R E E E E E E Y U U ",
"T R E E E E E E E E E E E E R Y Y Y U U Y R R R E W R W <.} ` ! Q E E E R T U U Q ! ! Q Q E E E E E E E E E E E E E E E E Y U U ",
"Y R E E E E E E E R R Y U U U U U U U U U R R R R E E <.>.} ` W E E E E R R U U Q ! ! ! ! ! E E E E E E E E R R R E E E R R U U ",
"Y T Y Y Y Y Y U U U U U U U U U U Y U U U U R R R R R >.<.{ / W E E Q R R T U U Q ! ! ! ! ! ! E E E E E E R R R R R R E R R U U ",
"U U U U U U U U U U U U Y R E ! ~ ~ ~ T U U Y R R R R <.<.5.6 6 E R U U U U U U U T E E Q ! ! ! E E E E R R R E R R R R R U U U ",
"U U U U U U U Y Y R R E E ! ~ ~ ~ ~ ~ ~ Y U U Y R R R R _._.y 9 T U U U U U U U U U U Y E Q ! ! ! E E T R T E E E E R R T U U U ",
"R W E E E E E E E E E E E E ! ~ ~ ~ ~ ~ ~ Y U U T R R R _._.>.9 U U Y R Q ! ! Q R U U U T E E T Y U U U U U U U R E R Y U U Y Q ",
"E E E E E E E E E E E E E E ! ~ ~ ~ ~ ~ ~ ! Y U U Y U Y _.5.>.8 U Y Q ! ! ~ ~ ~ ~ ! Y U U U U U U U U U U U U U U E Y U U U ~ ~ ",
"E E E E E E E E E E E E E E E ~ ~ ~ ~ ~ ~ ~ Q Y U U U U U <.<.^ U Q ! ! ! ! ! ~ ~ ~ ! U U U U U Y T E E E Q R U U Y U U Y ! ~ ! ",
"E E E E E E E 8.E E E E E E E Q ~ ~ ! R R ~ ~ Q U U U Y U <.>.<.! ! ! ! ! ! ! ! ! ~ ~ Q U U T ~ ~ ~ ~ ~ ~ ~ ~ T U U U U Q ~ ~ E ",
"E E E E E E E (.` E E E E E E E E R R R E Q ~ ~ U U Y ~ ! <.<.[ ! ! ! ! ~ Y.Q ! ! ! ! ~ Y U Y ~ `.~ ~ ~ ! ~ ~ ! Y U U Y ~ ~ ! E ",
"E E E E E E E _.| E E E W E E E R R R E E E Q Q U U E ! ! >.<.[ ! ! ! ! Y.Y.Q Q W ! ! ! R U U ~ `.`.E R E Q ~ ~ E U U T ~ ~ Q E ",
"E E E E E ! ! ! 1.` E ! ! ! E R R R E E E E >.R U U ! ! ! <.>.>.. E E E Y.Y.E E W E ! ! E U U ~ (._.6.:.:.W ! ~ ! U U E ~ ~ Q E ",
"E E E E E ~ ! ! _.` Q ! ! ! E R R R E E E E >.Y U Y ! ! ! E <.<.o E E Y.Y.E E E ! ! W Q E U U 7.(.(.6.:.W Q ! ~ ~ Y U Y ~ ~ E E ",
"E E E E ! ! ! ! (.:.X.! ! ! E R R E ! ! Q >.<.U U R ! ! ! E ,.3.X E W e.q.W W ! ~ ~ ! W Y U U 5.7.(.(.~ W W W ~ ~ Y U U ~ ~ E E ",
"E E E ~ ! ! ! ! (.e.^.! ! Q E E E Q ! ! E <.>.U U E ! + ! E k.k.q E E 7.7.W ! ~ ~ ~ ! Q Y U Y ' >.5.~ ~ W W W W E R U U ! ~ E E ",
"E E ! ! ! ! E E ! ).^.! Q E E W Q ! ! ! E >.) U Y ! ~ & ! W k.k.q E W 5.5.W ~ ~ ~ ! W W U U Y >.[ >.W W W W W W E E U U ! ~ E E ",
"E E E ~ Q E E E Q 7.r.! ! ! ! W ! q ! E E >.( U Y ! ! + W W k.k.q W W 7.7.! ! ~ ! W W W U U q >.>.>.W W W W W W ! Q U U E ~ ! E ",
"E E E E E E Q ~ ! 7.7.W ! ! ! ! 9 q ! E E <.m U Y W & & W W D.G.; ~ 9.e.e.! ! ~ ! T.R E U U u >.>.E Q Q ! ! ! W T U U U Y ! ~ ! ",
"E E E E E ! ! Q W 7.7.W W Q ! ! 6 6 E E 5.>.w U U W & & W W '.'.; + U.U.L.~ ! ! U.U.E R U U r >.>.! ! ! ! Q W U U U U U U U E Q ",
"T E E R R Y U U U 0.9.q.U U U ' r E E E <.{ b U U W O.O.W W K.'.; + U.U.U.! ~ U.U.R Y U U U y >.>.E Q ! ! R U U U R E R U U U Y ",
"U U Y U U U U U U ].].Z.U U U 7.t R R T <.] i U U W O.W T W '.'.; * U.U.U.Q ! U.U.U U U U U y 2.G.U U R Y U U U ! ! ~ ~ Q Y U U ",
"U U U U U U U T W P.].w.W U U 7.7 U U U 5.) i U U U O.U Y T U.U._ f U.U.T.W P.T.Y ].Y R R ; / G.U.U U U U U Y ! ~ ~ ~ ~ ! ~ R Y ",
"R Y U U R E ~ ~ ~ ~ I.Z.! W U 7.7 U U U <./ i U U _ O.U q U H.H._ d U.U.L.U ].].Y P.q ! ! * %.U.G.W U U U Y ! ~ ~ ~ ! ! ~ ~ ! E ",
"W ! ~ ~ ~ ~ ~ ~ ! ~ ].J.a T K.'.m ! ~ 5.<.s w W W $.f Y q s H.U._ d T.T.%.T.T.T.Q q w ! ~ 9 S.U.L.Q d d U ~ ~ ~ ! ! ! ! ! ! E E ",
"W ! ! ! ~ ! E R ! ~ ].L.d Y '.T. .~ ~ 1.4.s ~ ~  X .q ~ ~ 9 U.U._ d U.'. .T.T.T.! q %.! ! a S.U.U.W f U U ~ ~ ! &.! ! ! ! E E E ",
"E ! ! ~ ! Q W W ! ! I.T.s U T.'.O.~ ~ G.D.N ~ ~  Xu q ~ ~ - m.m.w q U.T.M C.T.I.q 9 C.~ ! s Z.U.W q u U U ~ ~ U.X.! ! Q E E E E ",
"E ! ! ! Q + + W ! ! T.T.d U '.'.O.~ ~ G.a.i ~ ~  Xq q ~ ~ = m.m.w q H.Y.n u.Y.Y.= & K.! ! w G.U.W 8 8 U U ~ ~ U.( ! Q E E E E E ",
"E E ! ! e + ! ! ~ ! T.T.d U U.U.d ! Q G.=.s !  XP.6 ~ ~ ~ = m.m.w q G.Y.+.-.Y.Y.& & [.}.E % G.U.W 8 q U & ! ~ G.f ! Q W E E E E ",
"E E ! ! ^ + ! ! ! ! Y.Y.f U T.U.q W D.D.+.9 ~  XA.6 ~ ~ Q ; m.m.w 8 F.Y.*.*.Y.R.& & }.}.E # G.k.W q q U & ~ ~ h.q ! Q W -.q E E ",
"E E Q ' e + ! ~ ! ! Y.Y.O.U U.U.8 W d.d.N 9 ~  Xu.* ~ Q E 0 m.m.1 $ i.U.$.$.T.Z.* * OXOXW # j.h.W + + U & ~ h.h.u ! Q U.*.q E E ",
"E E W ' 7 ! ! ! ! b Y.R.O.a U.U.8 W d.d.k 9 ~ [.@.6 E E E 0 m.m.: # u.T.$.X.T.Z.* * OXOX# # j.h.! @ W U * ~ h.h.a ! ! U.o.q E E ",
"E E Q ' 6 ! ! ! s b R.R.p u '.P.$ W d.d.w 9 W ].b @ R E E g m.m.: # u.T.o.s T.J.; * OXOX# c h.j.@ @ T U * ; h.;.a ! ~ U.w ; E E ",
"E E ' ' y ! ! ! s i T.T.p u T.'.% W d.d.k q ].].; . E E ; c v.v.: # S.T.o.q T.K.* ; OXOXC #.j.k.@ @ Y U ; g h.;.a ~ U.U.; & ! E ",
"E E 3.3.d ! ! h.b ~ T.T.f u T.T.- W s.s.N q [.[.$   W W C G I v.: @ b./.@.8 !./.0 l v.x.F t.k.k.@ @ U U F F a.=.u ~ U.G.= & ! E ",
"E ~ T.K.d ! ! f.i ~ T.T.O.u T.T.% W B.W.k q [.[.+   W W C G z.z.: @ l.XX@.9 E.XXt.d.A A C C k.k.@ # U U F F k.#.+ ~ a.;.& & ! ! ",
"T T T.K.q ! h.f.q ! ~.~. .d /./.% W B.B.w 9 [.[.@ o W W C G z.z.: # l.XXB = b.XXt.C A A C V a.k.2 @ U U F F k.#.+ ~ h.;.* * ! R ",
"U U T.J.q W h.f.9 W XXXX..d Q.XX2 B.B.W.0 9 {.|., , Q W F G z.z.% @ y.XXx @ l.XXy.F A A V V k.s.2 o U R F v j.G + ~ h.#.* Y U U ",
"U Y D.p.9 U g.g.; U XXXX..d Q.XX, M.m.M.0 9 oX.X, , Y U h 3 z.z.O . H W.x @ y.W.D < x.x.v V c.z.> . Y ~ : # y.K % T h.#.; U U U ",
"E E a.=.9 U P P 0 U XXXX..d E.W.: 5 v.v.0 9 oX.X1 , U # # 3 J J O . S M.z @ S B.Z # N.V.c 2 v.v.> . ! ~ # # L J : : k.=.* U Y R ",
"E E k.f.9 R P P l i Q.Q.V l m.B.: > v.v.w 9 M.v.# o U O # 3 J J O . Z B.4 @ Z B.H # N.V.> < z.v.> . ~ ! # O L L : : k.p.l R E E ",
"E E a.f.9 9 P P n s B.B.V j n.B.% o v.v.b q v.L o o R # # 5 J J O . z B.z # z b.L O m.V.: < v.x.> . E E # # K L % : k.k.C E E E "
};
