/* XPM */
static char *result[] = {
/* columns rows colors chars-per-pixel */
"64 64 53 1 ",
"  c #2B1B0D",
". c #311E0E",
"X c #34210F",
"o c #372210",
"O c #3B2511",
"+ c #3E2912",
"@ c #432C14",
"# c #492F17",
"$ c #4C3017",
"% c #4E3218",
"& c #503419",
"* c #53381A",
"= c #447C24",
"- c #498528",
"; c #4D8A2C",
": c #518E2F",
"> c #508831",
", c #56873C",
"< c #559332",
"1 c #589537",
"2 c #5C973B",
"3 c #6C9B54",
"4 c #6FA256",
"5 c #71A459",
"6 c #78A763",
"7 c #95B88A",
"8 c #99BA90",
"9 c #A6C39F",
"0 c #F1F29E",
"q c #EFF1AB",
"w c #F1F1A3",
"e c #EEEFB2",
"r c #ECEFBB",
"t c #EEF0B1",
"y c #C5D4CB",
"u c #CAD9D0",
"i c #DFE4DA",
"p c #EBEDC7",
"a c #E1E5CD",
"s c #EAEDCB",
"d c #E4E8D1",
"f c #E8EDD4",
"g c #E7EBDE",
"h c #E8ECDA",
"j c #D6DDE4",
"k c #D8DEE6",
"l c #D7E2E1",
"z c #DCE3E7",
"x c #DCE2EA",
"c c #E6EBE3",
"v c #E1E7EE",
"b c #E4EAED",
"n c #E3E9F1",
/* pixels */
"####%#%#$$%%%%%%%%%&&&&&&&&&&&&&$$$$&%%%&%%%*%%%%%*%&&%&%###$#O.",
"#%%%%%%%%%%%%%&&&*************&%%%&%&&****************&#%&%&%%O@",
"%%%%####$#$$%%&%%%&%%&%&&%&&%%%%%%&&%&%%%%&&%*%&%*%%%%#&%%%%%%@.",
"#%#############%##%%%%%%%#%%%%%%%%%%%%%%%&$&%%%%%%%%%%&%%%%%%%OO",
"@@@@O@@#########OOO++#########$%%%%%&&$%%%######%%%%%%%%%%$$%%@O",
"@@@#@@#@#######@OoO+@###########$$%$%%%%%########$$%%*%%%%%$$@O@",
"#%%%%%$$#########@#######@+@++@@###$%$%%###########$%%%%$$@@@@@.",
"#%%%%%%%%##################+@++++++@@##$##########$%%@@+@@O@@$OO",
"###$%%%%%%%####################@@++OO+++@@@@@@##$%%%%$$$@$$##$OO",
"#######$%%%%#######################@@@++O+++@@##%%%$$$$$%$%%$$OO",
"#$%%##$###%%%%%%#####%###################@#$%#$#####$$##$$%%%%OO",
"#%%%%%$#####%#%%####%&%%#############################$##@$$#$$OO",
"####%%#######################@@+@+++@@########@+O@O@@#######$#OO",
"#####%#####$#############@@+++O++++@+++@@@@+++++O@O@OO@@@###$#OO",
" XOo.........OO@OOOoXX.          ...... . . ...         ....    ",
".oOoO.......@@..OOOOX...         .......    ....        ....    ",
"$$%%%%&%OO#$%&&&&&&&&%&&&&&&%%+O%&&&&&&&&%&%&%%$#$###$#$$$$$$$$#",
"%%%%%%&&@@$%&&***&******&&&$%%++&***********%%%%#$%%%%%%$$%%%%%%",
"%%%%%%&%%%%%&&%%&&%%%%%%%%&$%&@+%%%&&&%%%%%%%%%%$$$##$##OO$%%%%%",
"%%%%%%%%%%%%%%%&&&%%%%%%$$$$$$++$%%%%%%%%%%%%%%%%$$#####@@##$$%%",
"$$%$%%%%%%%%##$$####$#@@+@++@@O@########$$$$%$%%%%%%%$$#########",
"####%%%%%%%%#########@@@@+++++OO@@##@@#########$$$%%%%%%$$$#####",
"######$$#%%%%%%$O@$###@#####@@OO++O@@@@@@@######$###%$%%%%%%$###",
"#############%$#@O@###########OO@@O+@O@@@##############$#$$$%%$#",
"@@@#@#@@@#######@@############OO@###########$$%$####@$$$OOOO@O@@",
"O@@O+@@@@####$#$#%%%%&&%######OO########%%%%%$$######$@@$%###@@+",
"##########%%%%&&%%%#####$@#$##OObn#%#&%&%$############$$$#######",
"########%%#%%%#######nn@@####kkngcn%&#################@@########",
"@@@@@@@###########@@nnnnnk+@@jncwqcn########$@@$@@@@@@.@.@@OO@O@",
"@OOo@@OO@@@@@@##$@O@ncrfnnk@+kncwwcn#######$@@@@@@@.O@@@@@O@++O@",
"         .......ooOonp0wnnn.  knccnv    .............@@....     ",
"        ........OOOOvctpggn.   vnnx     .............@.O....    ",
"##$$%&&&&&&%%%##$$$$znncwwc&&%%jkk&%%%%##kn&*%%&%%%*%*%*%$$$##+O",
"%%%%&&&&&&&&%%%&%%%%xnncqqc***<8k**&%%%%kbfsb**********%%%%%%%++",
"%%%%%%%%@+##%%#&%#$$%zxnbbn%%<>=&%%####kvc00gn%&%&%&%%%$$$##@$++",
"%%%%%%%%++###%&%%#######$$b9<<=%##@@@@xbcheecn##$%%%%$@#@$##$$++",
"#%%&%%%%%$%%%%%&%%######$#41<-@+++++++nbq0hnk##$$###########$#++",
"%%%%%%%%%%%%%%%%&%&&%$####<<-+++kkk####bq0hvk##@##############++",
"@@@@@@####$$$%wwcnk&&%%$@@<-+++knnxk###lbcnk##++##########$##@+O",
"@@##@@#######$qwgbvk$@@++<<-+jknccbx##<<$nk###+@#########@++++OO",
"$&*&$&$$$$####cctwgv@O+++<<@#jvnq0hnz4<&%&&####@######@@++++@#++",
"&**&&$&&%%%###nbw0hn@@@@#<<#kjvbqwhny1#%###########@@+++@@%%%%@+",
"&*&$%%&%%%%%%$xnghb#######<3jkxnccnz4@#####vn#$@@+@++@#%%%%%%%++",
"&*&&%%%%%%%%%%#kvvy,######--##kknnu5;#####adnn#@@@@@##$#$$%%&%++",
"&%%%%$$$$#########>:<<<@++--=+++@+2;#@##kd00gvn###############@+",
"%%%#$$@$########@@++>::<<7>-=++++<<-++++kbqqivnn##############++",
"        XXXXX+OXoOOXXXX 7k8<-    <;- ...nnnvewgvX.o.            ",
"         ..XOXOOOOOXX...kkk7<<  <<- ...onnnbw0d.....            ",
"%$@O$$$$&&$&&&&&&&&&&##knnkj6<<+<:-&&&%&<nnngix&%%*%%##$$$&&&%%%",
"&&@+%%%&*&**********&kknfsbv%<<<<-*****<;znnz*#&*%%%%%&$%&&*****",
"&&#$%%%%&&&&&&&&&&&#kkvn00sn##<<:-&&%&<;&&%%%%++%*%%%&%%%%%%%%&&",
"%&$$%%%%$&$&%%%%%###kvccrtcn##+<:-%%<<;%%%%%%%++$%%%%&%%%%%%%%%%",
"$$@###$#%#$#$$$@####@gwqcnvk##@<;$$<<;%%%%%%*%###$$%%%%$$#######",
"$@$$##$@####$@#######hwwbnk###+<;<<:-%%%%%%%####$@#$%$##########",
"$##@#@@@@@%%%%%#@+++@@hgv#####+<<<:-++$%%$$$####$$####@@@+@+++##",
"@@@@@@O@@$%%%%%%#@@@++++@@@@@@+<<:-@@#%%$######%#@@@+++++@@@####",
"##@@#######$$%$%%%%%#@@++++++++<<-$&%%%######@#+++++++@@@$######",
"##%############$##%%####@+@+++O<<&%%%%#####+++++@@##%#%####$####",
"########################$###++O<:%%%%###########################",
"#######@##################$@++O<:%%$##############@#@@@@@$######",
"####@$@@@@@@#@##%%#%%%%$#@++++O<:#############@+++++++++++++@@##",
"###@@@@O@.@@@@#%%%%%#@++++++++X<:###########@+++++++OO+++++O+++#",
"  . .... ..          X.XXXOOOOO<:OOOX.X.  .  o.                 ",
"    ... ....        ...X+OOOOOO<:OOOX...     .X                 "
};
