/* XPM */
static char *result[] = {
/* columns rows colors chars-per-pixel */
"64 64 116 2 ",
"   c #291A0C",
".  c #2B1B0C",
"X  c #2B1B0D",
"o  c #2C1B0D",
"O  c #2B1C0D",
"+  c #2C1C0D",
"@  c #2D1C0D",
"#  c #2D1D0D",
"$  c #2E1D0D",
"%  c #2F1D0D",
"&  c #301E0E",
"*  c #311F0E",
"=  c #321F0E",
"-  c #32200E",
";  c #32200F",
":  c #33200F",
">  c #34210F",
",  c #36220F",
"<  c #362210",
"1  c #372210",
"2  c #382310",
"3  c #392311",
"4  c #3A2411",
"5  c #3A2511",
"6  c #3B2511",
"7  c #3B2711",
"8  c #3C2711",
"9  c #3C2512",
"0  c #3C2612",
"q  c #3D2612",
"w  c #3C2712",
"e  c #3D2712",
"r  c #3C2811",
"t  c #3D2811",
"y  c #3D2812",
"u  c #3E2912",
"i  c #3F2912",
"p  c #3F2913",
"a  c #3F2A12",
"s  c #3F2A13",
"d  c #402A13",
"f  c #412A13",
"g  c #412B13",
"h  c #422B13",
"j  c #412B14",
"k  c #422B14",
"l  c #432B14",
"z  c #422C14",
"x  c #432C14",
"c  c #442C14",
"v  c #442D14",
"b  c #452D14",
"n  c #442C15",
"m  c #442D15",
"M  c #452D15",
"N  c #462D15",
"B  c #452E15",
"V  c #472E15",
"C  c #462F15",
"Z  c #462D16",
"A  c #472D16",
"S  c #462E16",
"D  c #472E16",
"F  c #482D15",
"G  c #482E15",
"H  c #482F15",
"J  c #482E16",
"K  c #492E16",
"L  c #482F16",
"P  c #492F16",
"I  c #492E17",
"U  c #482F17",
"Y  c #492F17",
"T  c #4A2F16",
"R  c #4B2F16",
"E  c #4A2F17",
"W  c #4B2F17",
"Q  c #4A3016",
"!  c #4A3017",
"~  c #4B3017",
"^  c #4B3217",
"/  c #4C3017",
"(  c #4C3117",
")  c #4D3117",
"_  c #4E3117",
"`  c #4C3217",
"'  c #4D3217",
"]  c #4C3317",
"[  c #4D3317",
"{  c #4B3018",
"}  c #4C3018",
"|  c #4C3118",
" . c #4D3118",
".. c #4E3118",
"X. c #4D3318",
"o. c #4E3218",
"O. c #4F3218",
"+. c #4F3318",
"@. c #4E3418",
"#. c #4F3418",
"$. c #4E3518",
"%. c #4F3518",
"&. c #4F3519",
"*. c #503318",
"=. c #503418",
"-. c #503518",
";. c #503419",
":. c #503519",
">. c #513519",
",. c #503619",
"<. c #513619",
"1. c #523619",
"2. c #523719",
"3. c #52371A",
"4. c #53371A",
"5. c #53381A",
/* pixels */
"F T T R ~ ~ ~ ~ ~ / ` X.@.@.@.@.@.@.@.$.%.%.$.:.:.:.:.:.:.:.:.#.) / ( o.%.$.%.%.$.@.@.$.%.%.%.%.$.@.@.@.@.@.@.@.( R T T T T 4 2 ",
"/ O.O.O.O.O.O.O.O.O.O.O.O.O.=.>.<.2.4.5.5.5.5.5.5.5.5.5.5.1.;.O.O.O.O.O.O.;.<.3.5.5.5.5.5.5.5.5.5.5.5.5.5.2.;.O.O.O.O.O.O.O.q 4 ",
"/ O.O. .{ E Y Y E E { | ..O.O.O.O.O.O.O.O.+.*.*.*.*.*.*.O.O.O.O.O.O.O.O.O.O.O.O.O.O.*.*.*.*.*.*.*.*.*.+.O.O.O.O.O.O.O.O.O.O.q 4 ",
"/ O.E J D D Y Y Y Y Y Y Y Y ! } W T ( o.O.O.O... .| |  . .O.O.O.O.O.O.O.O.O.O.O.O.O.O.O.o.o.O.O.O.O.O.O.O.O.O.O.O.O.O.O.O.O.q 4 ",
"l d u u u u Z Y Y Y Y Y Y Y Y D 4 4 y u a M Y Y Y Y Y Y Y Y ~  .O.O.O.O.O.O.O.O.O.O.{ Y Y Y Y E | O.O.O.O.O.O.O.O.O.O.O.O.O.e w ",
"i x N D D D Y Y Y Y Y Y Y Y Y D 4 4 y s k D Y Y Y Y Y Y Y Y Y Y E | O.O.O.O.O.O...E Y Y Y Y Y Y Y E  .O.O.O.O.O.O.O.O.o.P h u u ",
"/ O.O.O.O. .~ Y Y Y Y Y Y Y Y Y A Z U Y Y Y Y Y Y n g g g g k x M D E  .O.O.O. .Y Y Y Y Y Y Y Y Y Y Y ~ O.O.O.O./ L c i u a y 6 ",
"/ O.O.O.O.O.O.o.} Y Y Y Y Y Y Y Y Y Y Y Y Y Y Y Y U N x g i u u u u u d x S U Y Y Y Y Y Y Y Y Y Y Y | O.O.x d u u u a g M Y 9 4 ",
"D E ~ }  .o.O.O.O.o.} Y Y Y Y Y Y Y Y Y Y Y Y Y Y Y Y Y Y Y D n j a u u u u u s g x n M M M Z Y ~ o.O.O.O.../ ~ / ~ E Y Y Y 9 4 ",
"D Y Y Y Y Y E { ..O.O.o.} E Y Y Y Y Y Y Y Y Y Y Y Y Y Y Y Y Y Y Y Y D M k d u u u u u i f x V ..o... . . .....O.O.O.O.O. .| 9 4 ",
"/ .. .} ~ E Y Y Y ~  .O.O.O...| Y Y Y E { { ~ E Y Y Y Y Y Y Y Y Y Y Y Y Y Y Y J D J U {  .{ ! Y Y Y Y Y Y Y Y Y ! } ..O.O.O.q 4 ",
"I  .O.O.O.O.} Y Y Y Y Y ~ |  . .Y Y Y { ..O.O.O.E Y Y Y Y Y Y Y Y Y Y Y Y Y Y Y Y Y Y Y Y Y Y Y Y Y Y Y Y Y Y Y Y Y Y Y ~ } 9 4 ",
"D Y Y }  .{ Y Y Y Y Y Y Y Y Y Y Y Y Y Y Y Y E E Y Y Y Y J M k d a u u d k M U Y Y Y Y Y Y D n j s u u a k D Y Y Y Y Y Y Y Y 9 4 ",
"D Y Y Y Y Y Y Y Y Y Y Y Y Y Y Y Y Y Y Y Y Y Y Y D M k d u u u u u u u u u u u z M N n k a u u u u u u u u u d n D Y Y Y Y Y 9 4 ",
"@ * 6 1 : : : : : : : : 1 9 9 9 9 9 9 1 : : = @ + + + + + + + + @ * = = = = * $ + + + + $ * * $ + + + + + + + + $ * = % @ # X X ",
"@ 3 4 4 > & & & & & & > 4 4 4 4 4 4 4 4 > & & & .             . & & & & & & & & o     o & & & & o             o & & & & o       ",
"/ / / ' #.$.%.] r r K / &.:.:.:.:.:.:.:.:.$.%.%.$.@.@.@.X.` y 8 ] %.%.%.%.%.%.%.$.@.@.$.%.@.' ~ R T T T T T T R ~ ~ ~ ~ R T T T ",
"O.O.O.O.O.;.1.,.i u ) O.*.3.5.5.5.5.5.5.5.5.5.5.1.>.=.O.O.O.d u ,.5.5.5.5.5.5.5.5.4.1.>.*.O.O.O. ...O.O.O.O.O.O.) ) O.O.O.O.O.O.",
"O.O.O.O.O.O.O.O.) ) O.O.O.O.+.*.*.*.*.*.*.*.+.O.O.O.O.O.O.O.d u ) *.*.*.*.*.*.+.O.O.O.O.O.O.O.O.! Y Y Y E ! ~ E i i / O.O.O.O.O.",
"O.O.O.O.O.O.O.O.O.O.O.O.O.O.O.O.O.O.O..... . .| } } } } } | d u / o.O.O.O.O.O.O.O.O.O.O.O.O.O.O.O...} E Y Y Y J u u J Y ! }  .O.",
"E {  .o.O.O.O.O.O.O.O. .{ { { ! E Y Y Y Y J M x g d d d g x y y D Y Y Y Y Y Y E E ~ { }  ...O.O.O.O.O.O...} ~ Y J J Y Y Y Y Y Y ",
"Y Y Y Y E }  .O.O.O.O.O.} E Y Y J J Y Y Y x d d d d a u u u 5 4 p m U Y Y Y Y Y Y Y Y Y Y Y Y E {  .o.O.O.O.O.O...} E Y Y Y Y Y ",
"Y Y Y Y Y Y Y Y ! }  .O.O.O.o.~ u u J Y Y Y Y Y Y Y Y U N x 6 4 y u u g x n x k d k Y Y Y Y Y Y Y Y Y E }  .O.O.O.O.O. .{ Y Y Y ",
"Y Y Y Y Y Y Y Y Y Y Y Y E { } ! u u J Y Y Y Y Y Y Y Y Y Y Y 9 4 k g i u u u d k M Y Y Y Y Y Y Y Y Y Y Y Y Y Y ~ P ~ ( ) o...{ Y ",
"x M N S D D Z M D Y Y Y Y Y Y Y J J Y Y Y Y E E Y Y Y Y Y Y 9 4 D Y Y U U Y Y Y Y Y Y ! { } |  .E Y Y Y Y Y Y U k d u u u u g x ",
"s u u u a s f k Z Y Y Y Y Y E { }  . ...O.O.O.} Y Y Y Y Y Y 9 4 D Y Y Y Y Y E { | ..O.O...| { ! Y Y Y Y Y Y Y Y Y Y Y D M x k f ",
"Y Y Y Y Y Y Y Y E { }  ...O.O.O.O.o. .| { ! Y Y Y Y Y Y Y Y 9 4 E } } |  .o.O.O...} ~ Y Y Y Y Y Y Y Y Y Y Y Y Y Y Y Y Y Y Y Y Y ",
"Y Y Y Y Y Y Y Y  . . . .| } { ! Y Y Y Y Y U D S S D Y Y Y Y 9 4 / O.O... .} ~ Y Y Y Y Y Y Y Y Y Y Y Y Y Y Y Y Y U U Y Y Y Y Y Y ",
"g k x n M Z D U Y Y Y Y Y Y Y Y Y Y U x a u u u u u u d x S 9 4 D Y Y Y Y Y Y Y Y Y Y Y Y Y Y J N c k d s i u u u u u u u a s d ",
"u u u u u u u u a d g x m N D Y J x i u u u u u u u u u u u 5 4 M Y Y Y Y Y Y Y Y Y Y J M k d u u u u u u u u u u u u u u u u u ",
"+ + + + + + + + $ * = = = = = = , 4 4 , = = * $ + + + + + + X X O + # # # # # # & : - = = = = = = = = = , 4 4 , = = * $ + + + + ",
"              o & & & & & & & > 4 4 4 4 > & & & o                             o & & & & & & & & & & & > 4 4 4 4 > & & & o       ",
"G T T ( X.@.@.$.%.%.%.%.$.[ ~ / / / / / / ~ [ %.$.@.@.@.@.@.@.@.@.@.@.@.@.` R R ~ ~ @.%.%.%.%.%.%.%.$.:.:.:.:.:.o.~ ~ ~ R T t 7 ",
") O.O.O.O.*.>.3.,.&.:.;.O.O.O.O.O.O.O.O.O.O.O.;.3.5.5.5.5.5.5.5.5.5.3.>.*.O.O.O.O.O.O.;.2.5.5.5.5.5.5.5.5.5.2.;.O.O.O.o.o.o.d u ",
") O.O.O.O.O.O.) i u J Y ~ O.O.O.} } }  . ...o.O.O.O.*.*.*.*.*.*.+.O...| { ~ E E E Y Y Y E ~ | o.+.*.*.*.+.O...} ~ E Y Y Y Y s u ",
") O.O.O.O.O.O.) u u J E } O.O.O. .E Y Y Y Y Y Y E ~ | ..O.o. .} Y Z n k g d d d d D Y Y Y Y Y Y ! O.O...} E Y Y Y Y Y Y Y Y s u ",
") O.O.O.O.O.O.O.) ( O.O.O.O.O.O.O.O...! Y Y Y Y Y Y Y Y Y Z k s u u u u u d g k x U Y Y Y Y Y Y Y Y E Y Y Y Y Y Y Y Y Y Y Y s u ",
") O.O.O.O.O.O.O.O.O.O.O.O.O.O.O.O.O.O.O. .E Y Y Y Y J x a u u u u a z N U Y Y Y Y Y Y Y Y Y J J Y Y Y Y Y Y Y Y Y Y Y Y Y Y s u ",
"l x x x n Z Y Y Y Y E { | ..O.O.O.O.O.O.O.O. .E N g u u u u u d M Y Y Y Y Y Y Y Y Y Y Y Y J u u J Y Y Y Y Y Y Y Y Y Y U S M e 0 ",
"d v B C x M Y Y Y Y Y Y Y Y E P P ~ ( ( Q G c a u u u u u g Z Y Y Y Y Y Y Y Y Y E ~ ~ Y Y J u u J Y Y Y Y Y Y Y J n d u u u 6 4 ",
",.5.5.;.O.O... .~ Y Y Y Y Y Y a u u u u u u u u u u f n D Y Y Y Y Y Y Y E } ..O.O.O.O.} Y Y J J Y Y Y Y Y Y M g u u u a x G i u ",
",.5.5.*.O.O.O.O.O.O. .~ Y Y Y Y S n k j j k x m S Y Y Y Y Y Y Y Y Y Y E O.O... .} ~ E Y Y Y Y Y Y Y J M k u u u k V / O.O.O.d u ",
",.5.1.O.O.O.O.O.O.O.O.O...{ Y Y Y Y Y Y Y Y Y Y Y Y Y Y Y Y Y Y Y Y Y Y Y Y Y Y Y Y Y Y Y Y Y n g s u u a c P _ O.O.O.O.O.O.d u ",
",.1.O.O.O.O.O.O.O.O.O.O.o.o.} Y Y Y Y Y Y Y Y Y Y Y Y Y Y Y Y Y Y Y Y Y Y Y Y Y Y Y Y Y Y Y Y S n n M D ~ } }  . . ...o.O.O.d u ",
"#.O.O.O. .} { ! E Y Y Y Y Y Y Y Y Y J N n k g d a u u u u u u a d d j x n N D Y Y Y Y Y Y Y Y Y Y Y Y Y Y Y Y Y Y Y Y Y Y E s u ",
") O.} Y Y Y Y Y Y Y Y Y Y Y D m k s u u u u u u u u u u u u u u u u u u u u u u d k n S U Y Y Y Y Y Y Y Y Y Y Y Y Y Y Y Y Y s u ",
"# # # # # # # # & : : : < 5 5 5 5 5 4 , = = * $ + + + + + + + + + + + + $ * = = , 4 4 , = ; : : : : : & # # # # # # # # # # + + ",
"              o & & & > 4 4 4 4 4 4 4 4 > & & & o                     o & & & > 4 4 4 4 > & & & & & & & o                       ",
"@.^ 8 8 G T ` $.%.%.$.:.:.:.:.:.:.:.:.:.:.( ~ ~ R T T T T T t 7 ^ @.@.$.%.%.$.:.:.:.:.:.:.$.%.%.%.%.%.@.` T T T ~ X.@.@.@.@.@.@.",
"5.,.i u ) O.O.>.5.5.5.5.5.5.5.5.5.5.5.3.*.O.O.O.O.O.O.O.O.O.d u ,.5.5.5.5.5.5.5.5.5.5.5.5.5.,.,.5.1.;.O.O.O.O.O.O.O.>.4.5.5.5.5.",
"*.*.) ) O.O.O.O.O.+.*.*.*.*.*.*.*.*.+.O.O... .| } { ~ ! E E s u ,.3.=.*.*.*.*.*.*.*.*.*.*.' i i ) O.O.O.O.O.O.O.O.O.O.O.+.*.*.*.",
"O.O.O.O.O.O.O.O.O.O.O.O.O.o... .} { ! E Y Y Y Y Y Y Y Y Y Y s u -.O.O.O.O.O.O.O.O.O.O.O.O.) u u ( O.O.O.O.O.O.O.O.O.O.O.o.o.o.o.",
"Y Y Y Y E E ! { { { ! E Y Y Y Y Y Y Y Y Y Y Y Y Y Y Y Y Y Y s u ' O.O.O.O.O.O.O.O.O.O.O.O. .U J Y E  .O.O.O.O. .~ E Y Y Y Y Y Y ",
"Y Y Y Y Y Y Y Y Y U Y Y E Y Y Y Y Y Y Y Y Y Y Y Y Y Y Y Y Y s u ) O.O.O.O.O.O.O.O.O.O. .E Y Y Y Y Y Y ~ } { Y Y Y Y Y Y Y Y Y Y ",
"Y Y Y Y D M x g i i P o.O.O. .E a a s d k c N U Y Y Y Y Y Y s u H V c h d a / O.O. .E Y Y Y Y Y Y Y Y Y Y D M x g d a a a s Y Y ",
"Y N d u u i d x L _ O.O.O.O.O.O.Q V x a u u u u g x x x k g u u u u u f c V o.O.{ Y Y Y Y Y Y Y Y J M k a u u u a g c M D U Y Y ",
"Y Y S D U Y Y E { { { } }  ...O.O.O.O...D x d u u u u u u u u y c P ) O.O.O...E Y Y Y U D Z n k d u u u d z M D Y Y Y Y Y Y Y Y ",
"Y Y Y Y Y Y Y Y Y Y Y Y Y Y Y Y ~ }  ...{ Y Y D n g d f u u 5 4 / O.O.O.O...Y Y Y Y Y g s s d g l m S U Y Y Y Y Y Y Y Y Y Y Y Y ",
"Y Y Y Y Y Y Y Y Y Y Y Y Y Y Y Y Y Y Y Y Y Y Y Y Y Y Y Y u u 5 4 / O.O.O...Y Y Y Y Y Y Y Y Y Y Y Y Y Y Y Y Y Y Y Y Y Y Y Y Y Y Y ",
"Y Y Y Y Y Y Y Y Y Y Y Y Y Y Y Y Y Y Y Y Y Y Y Y Y Y Y c u u 5 4 W .. .{ Y Y Y Y Y Y Y Y Y Y Y Y Y J D N M M M Z D U Y Y Y Y Y Y ",
"Y Y Y Y Y J M k g d g M U Y Y E {  . .....o.o./ D n k u u u 5 4 D Y Y Y Y Y Y Y Y Y Y Y Y J n g a u u u u u u u u u a d x N Y Y ",
"Y Y U M g u u u u u u u u k P O.O.O.O.) P b d u u u u u u u 5 4 D Y Y Y Y Y Y Y Y Y Y D h u u u u u u u u u u u u u u u u u s S ",
"@ + + + $ * = = = = * $ + + + @ $ $ + + $ * = = , 4 5 5 5 5 4 4 9 9 9 1 : : : & # # @ + $ * * $ + + + + + + + + + + + + + + + + ",
"      o & & & & & & & & o             o & & & > 4 4 4 4 4 4 4 4 4 4 4 4 > & & & o     o & & & & o                               "
};
