/* XPM */
static char *result[] = {
/* columns rows colors chars-per-pixel */
"64 64 179 2 ",
"   c #291A0C",
".  c #2B1B0C",
"X  c #2B1B0D",
"o  c #2C1B0D",
"O  c #2B1C0D",
"+  c #2C1C0D",
"@  c #2D1C0D",
"#  c #2D1D0D",
"$  c #2E1D0D",
"%  c #2F1D0D",
"&  c #301E0E",
"*  c #311F0E",
"=  c #321F0E",
"-  c #0B3316",
";  c #0B3416",
":  c #0B3517",
">  c #0C3517",
",  c #0C3617",
"<  c #0C3717",
"1  c #0C3718",
"2  c #0C3818",
"3  c #0C3918",
"4  c #0D3A18",
"5  c #0D3A19",
"6  c #0D3B19",
"7  c #0D3C19",
"8  c #0D3D19",
"9  c #0D3D1A",
"0  c #0D3E1A",
"q  c #0D3F1A",
"w  c #0E3E1A",
"e  c #0E3F1A",
"r  c #0E3F1B",
"t  c #33200F",
"y  c #34210F",
"u  c #36220F",
"i  c #362210",
"p  c #372210",
"a  c #3A2411",
"s  c #3A2511",
"d  c #3B2711",
"f  c #3C2512",
"g  c #3D2612",
"h  c #3D2811",
"j  c #3D2812",
"k  c #3E2912",
"l  c #3F2912",
"z  c #3F2A12",
"x  c #3F2A13",
"c  c #402A13",
"v  c #412A13",
"b  c #412B13",
"n  c #422B13",
"m  c #412B14",
"M  c #422B14",
"N  c #432B14",
"B  c #422C14",
"V  c #432C14",
"C  c #442C14",
"Z  c #442D14",
"A  c #452D14",
"S  c #442C15",
"D  c #442D15",
"F  c #452D15",
"G  c #462D15",
"H  c #452E15",
"J  c #472E15",
"K  c #462F15",
"L  c #462D16",
"P  c #472D16",
"I  c #462E16",
"U  c #472E16",
"Y  c #482E15",
"T  c #482F15",
"R  c #482E16",
"E  c #482F16",
"W  c #492F16",
"Q  c #492E17",
"!  c #482F17",
"~  c #492F17",
"^  c #4A2F16",
"/  c #4B2F16",
"(  c #4A2F17",
")  c #4A3016",
"_  c #4A3017",
"`  c #4B3017",
"'  c #4B3217",
"]  c #4C3017",
"[  c #4C3117",
"{  c #4D3117",
"}  c #4E3117",
"|  c #4D3217",
" . c #4B3018",
".. c #4C3018",
"X. c #4C3118",
"o. c #4D3118",
"O. c #4E3118",
"+. c #4D3318",
"@. c #4E3218",
"#. c #4F3218",
"$. c #4F3318",
"%. c #4E3418",
"&. c #4F3418",
"*. c #4E3518",
"=. c #4F3518",
"-. c #4F3519",
";. c #503318",
":. c #503518",
">. c #503419",
",. c #503519",
"<. c #513519",
"1. c #503619",
"2. c #513619",
"3. c #523619",
"4. c #523719",
"5. c #52371A",
"6. c #53371A",
"7. c #53381A",
"8. c #0D401B",
"9. c #0E401A",
"0. c #0E401B",
"q. c #0E411B",
"w. c #0E421B",
"e. c #0E411C",
"r. c #0E421C",
"t. c #0E431C",
"y. c #0E441C",
"u. c #0F441C",
"i. c #0F451C",
"p. c #0F441D",
"a. c #0E451D",
"s. c #0F451D",
"d. c #0F461D",
"f. c #0F471D",
"g. c #0F471E",
"h. c #0F481E",
"j. c #0F491E",
"k. c #0F4A1E",
"l. c #0F4A1F",
"z. c #0F4B1F",
"x. c #104A1E",
"c. c #104A1F",
"v. c #104B1F",
"b. c #104C1F",
"n. c #104D1F",
"m. c #104C20",
"M. c #104D20",
"N. c #104E20",
"B. c #114F20",
"V. c #104E21",
"C. c #104F21",
"Z. c #114F21",
"A. c #115021",
"S. c #115121",
"D. c #115221",
"F. c #115321",
"G. c #115222",
"H. c #115322",
"J. c #115422",
"K. c #125422",
"L. c #125522",
"P. c #125523",
"I. c #125623",
"U. c #125723",
"Y. c #125724",
"T. c #125824",
"R. c #125924",
"E. c #135924",
"W. c #135A24",
"Q. c #135B24",
"!. c #135A25",
"~. c #135B25",
"^. c #135C25",
"/. c #135D25",
"(. c #145C25",
"). c #145D25",
"_. c #145D26",
"`. c #145E26",
"'. c #145F26",
/* pixels */
"8.3 ; - - - - - ` '.'.'.'.'.'.%.%.%.%.*.=.M.M.M.M.M.M.,.,.,.,.&.6 6 6 6 6 6 6 , - > 6 6 y.M.M.=.*.%.%.%.%.%.%.%.'.'.'.'.'.'.I.j.",
"- - - - - - - - #.'.'.'.'.'.'.<.2.4.6.7.7.M.M.M.M.M.M.M.M.3.>.#.#.6 6 6 6 6 6 6 , - 7 v.M.M.M.M.7.7.7.7.7.4.>.'.'.'.'.'.'.U.i., ",
"6 e.d.j. .( ~ ~ ( ( '.'.'.'.#.#.#.#.#.#.M.M.M.M.M.M.M.M.M.S.#.#.#.6 6 6 6 6 6 6 7 3 > m.M.M.M.M.;.;.;.$.#.#.'.'.'.'.'.`.x.7 7 6 ",
"M.M.M.M.U U ~ ~ ~ ~ ~ '.'.~ _ ..- - - - l.M.M.M.M.M.M.M.M.C.^.#.#.#.6 6 6 6 6 9 l.l.; d.M.M.M.M.#.#.#.#.#.'.'.'.'.'.).y.7 e B.W.",
"M.M.M.M.k k L ~ ~ ~ ~ ~ ~ ~ ~ U - - - - - ; 3 q.c.M.M.M.M.M.I.'.#.#.#.#.6 6 7 l.M.M.0.w.M.M.M.M.X.#.#.#.#.'.'.'.'.'.f.7 j.).'.`.",
"M.M.M.U U U ~ ~ ~ ~ ~ ~ ~ ~ ~ U - - - - - - - - 3 0.j.M.M.M.C.'.'.X.#.#.#.6 g.M.M.M.v.q M.M.M.M.~ ( o.#.'.'.'.'.'.D.7 v.'.'.'.'.",
"M.M.M.#.#.o.` ~ ~ ~ ~ ~ ~ ~ ~ ~ P L ! ~ j.d.e.9 3 7 7 t.m.M.M.~.'.'.( o.#.#.#.M.M.M.M.q.M.M.M.M.~ ~ ~ ` '.'.'.'.'.y.d.'.'.'.'.`.",
"M.M.#.#.#.#.#.@...~ ~ ~ ~ ~ ~ ~ ~ ~ ~ ~ M.M.M.M.m.s.9 7 9.m.M.U.'.'.'.c V I ! ~ M.M.M.s.M.M.M.M.~ ~ X.#.'.'.'.'./.8 Q.'.'.'.'.~.",
"U ( ` ..o.@.#.#.#.6 6 6 6 6 6 ~ ~ ~ ~ ~ M.M.M.M.M.M.m.w.7 q.M.H.'.'.'.k k k k x b M.M.v.M.M.M.~ ` @.#.#.'.'.'.'.I.v.'.'.'.'.'.^.",
"U ~ ~ ~ ~ ~ ( 6 6 6 6 6 6 6 6 ~ ~ ~ ~ ~ ~ M.M.M.M.M.M.M.t.7 d.A.'.'.'.'.M c k k k M.M.M.M.M.M.O.@.O.o.o.'.'.'.'.L.^.'.'.'.'.'.a ",
"] O.o...` ( 6 6 6 6 6 6 6 6 6 6 ~ ~ ~ (  .M.M.M.M.M.M.M.M.q.0 M.'.'.'.'.~ ~ ~ R U R M.M.M.M._ ~ ~ ~ ~ ~ '.'.'.'.'.'.'.'.'.#.g a ",
"Q o.#.#.#.f.7 6 6 6 6 6 6 6 6 5 - - - - O.#.M.N.M.M.M.M.M.m.0 h.'.'.'.U.- ~ ~ ~ ~ ~ ~ M.M.~ ~ ~ ~ ~ ~ ~ '.'.'.'.'.'.'.'.` ..f a ",
"U ~ ~ ..M.M.m.p.7 6 6 6 2 : - - - - - - ~ ~ ( ( /.W.Y.H.C.M.j.t.'.'.'.~.- - ! ~ ~ ~ ~ ~ ~ U S m x k k z M '.'.'.'.'.'.~ ~ ~ f a ",
"U ~ ~ M.M.M.M.M.v.e 7 4 ; - - - - - - - ~ ~ ~ ~ U '.'.'.'.E.Z.d.'.'.'.(.- - - B F G S M z k k k k k k k k '.'.'.'.'.'.~ ~ ~ f a ",
"@ * M.M.M.M.M.m.t.7 7 7 7 4 3 4 f f f p t t = @ + + + '.'.'.`.Z.'.'.'.'.- - - - + + + + $ * * $ + + + + + + '.'.'.'.= % @ # X X ",
"@ M.M.M.M.M.m.9.7 0 d.w 6 6 6 6 a a a a y & & & .       '.'.'.U.'.'.'.'.& - - - -     o & & & & o             '.'.& & & o       ",
"] M.M.M.M.M.q.7 y.m.M.t.6 6 6 6 ,.,.,.,.,.*.=.=.*.M.M.M.M.~.'.).'.'.'.=.=.=.=.- - %.%.*.=.%.| ` / M.M.M.M.M.M./ ` ` ` ` / ^ ^ ^ ",
"M.M.M.M.M.d.0 l.M.M.M.t.6 6 6 7.7.7.7.7.7.7.7.M.M.M.M.M.M.C.`.'.'.'.'.7.7.7.7.7.7.- - - ;.#.#.#.o.M.M.M.M.M.M.M.M.{ #.#.#.#.#.#.",
"M.M.M.M.m.q.v.M.M.M.m.9 6 6 6 ;.;.;.;.;.;.;.M.M.M.M.M.M.M.M.P.'.'.'.;.;.;.;.;.$.#.#.- - - - - - 3 l.M.M.M.M.M.M.M.M.] #.#.#.#.#.",
"M.M.M.M.l.b.M.M.M.l.0 6 6 6 #.#.#.#.#.O.O.'.`.U.N.M.M.M.M.M.M.U.w.- - - #.#.#.#.#.#.- - - - - - - - 3 t.M.M.M.M.M.M.M.~ _ ..o.#.",
"M.M.M.M.M.M.M.M.f.7 6 6  . . ._ ( ~ ~ ~ '.'.'.'._.G.M.c.q.3 ; - - - - - - - - - ( `  ...o.O.- - 0 < - - 7 d.M.M.M.M.M.M.~ ~ ~ ~ ",
"M.M.M.M.M.M.M.y.6 6 6 #...( ~ ~ R R ~ '.'.'.'.'.'.I.q.7 3 , ; 2 - - - - - - - - ~ ~ ~ ~ ~ ~ ~ ( M.M.h.w.8 7 q.b.M.M.M.M.M.~ ~ ~ ",
"z.M.M.M.M.M.t.6 6 ..o.#.#.#.@.` k k '.'.'.'.'.`.x.7 7 8 t.j.M.M.j k k b V S V M c M ~ ~ ~ ~ ~ ~ M.M.M.M.v.t.7 0 v.M.M.M.M.M.~ ~ ",
"6 y.M.M.M.y.6 6 ~ ~ ~ ~ (  ..._ k '.'.'.'.'.`.v.g.v.L.K.M.M.M.M.M b l k k k c M F ~ ~ ~ ~ ~ ~ ~ M.M.M.M.M.M.h.8 e m.M.A.D.C.M.~ ",
"V 6 9 0 6 6 6 F U ~ ~ ~ ~ ~ ~ ~ R '.'.'.'.'.H.M.J.`.'.~.M.M.M.M.U ~ ~ ! ! 6 6 6 6 6 6 _  ...X.o.M.M.M.M.M.M.M.j.8 q.!.'.'.'.`.V ",
"6 6 6 6 6 6 6 6 L ~ ~ ~ ~ - -  .'.'.'.'.'.W.M.P.'.'.'.).M.M.M.a U ~ ~ ~ ~ 6 6 6 6 6 6 6 6 X. ._ ~ M.M.M.M.M.M.M.h.7 S.'.'.'.'.'.",
"r.q.e 7 6 6 6 6 (  ...- - - #.#.'.'.'.'.'.H.K.'.'.'.'.^.M.M.M.a ( ....X.6 6 6 6 6 6 6 e j.M.~ ~ ~ M.M.M.M.M.M.M.I.x.e `.'.'.W.f.",
"M.M.M.M.v.d.r 4 - - - - - .. ._ '.'.'.'.`.H.'.'.'.'.'.W.M.M.f a - - - - 5 6 6 6 6 6 y.M.M.M.M.~ ~ ~ M.M.M.M.M.I.'.^.0 F.'.T.M.M.",
"M.M.M.c.t.3 ; - - - - - ~ ~ ~ ~ '.'.'.'.^.`.'.'.'.'.'.^.V I f a - - - - - - : < 6 t.M.M.M.M.M.M.G C M c U.W.).'.'.'.b.h.U.M.M.M.",
"M.j.0.7 < - - - - - - - D G U ~ '.'.'.'.'.'.'.'.'.'.'.k k k s a - - - - - - - ; 3 0.j.M.M.M.M.M.M.k k k k '.'.'.'.'.W.y.M.M.M.M.",
"t.7 7 8 q.a.d.l.d.* - - - = = = '.'.'.'.'.'.'.'.'.+ + + + + X X O + # # 4 3 2 6 7 7 7 t.m.M.M.M.M.M.= = u a a '.'.'.^.M.M.M.M.m.",
"7 9 s.m.M.M.M.M.& & - - - & & y '.'.'.'.'.'.'.'.o                       6 6 6 6 h.s.0 7 9.m.M.M.M.M.M.y a a a a '.'.A.M.M.M.m.9.",
"w.m.G.T.H.M.M.M.=.=.=.- - - ` ] ] '.'.'.'.'.'.=.*.M.M.M.M.M.M.%.%.%.%.%.6 6 6 6 m.M.M.t.7 q.M.M.M.M.M.,.,.,.,.,.@.P.M.M.M.M.q.7 ",
"H.^.'.T.M.M.M.M.1.-.,.- - - - #.#.'.'.'.'.'.'.>.5.M.M.M.M.M.M.M.M.7.5.<.;.6 6 6 M.M.M.M.f.8 d.M.M.M.M.M.7.7.4.>.#.A.M.M.M.d.7 t.",
"'.'.^.N.M.M.M.{ l k R ~ - - - - ....'.'.'.'.@.#.M.M.M.M.M.M.M.M.M.N.O.X. .6 6 6 m.M.M.M.M.j.q m.M.M.M.M.$.#.O...'.I.M.M.m.0 r.W.",
"'.'.S.M.M.M.#.{ k k R ( ..- - - - ( ~ '.B.- - - l.M.M.M.M.M.M.M.M.N.I.M b c 6 6 c.M.M.M.M.M.l.h.M.M.M.M...( ~ ~ '.`.A.M.f.8 Q.'.",
"'.E.M.M.#.#.#.#.{ [ #.#.#.#.- - - - - - - - - - - ; 3 8.j.M.M.M.M.M.S.'.k c b M M.M.M.M.M.M.M.b.M.M.M.M.~ ~ ~ ~ '.'.^.M.w.v.'.'.",
"'.G.M.#.#.#.#.#.#.#.#.#.#.#.#.- - - - - - - - - - - - - : 0.j.M.M.M.M.W.'.~ ~ ~ ~ M.M.M.M.M.M.M.M.M.M.M.~ ~ ~ ~ '.'.'.I.q W.'.'.",
"`.M.V V S L ~ ~ ~ ~ (  .X.O.#.#.- - - - - #.o.( j.d.e.0 7 7 7 t.m.M.M.J.'.'.~ ~ ~ ~ ~ M.M.M.M.M.M.M.M.M.~ ~ ~ ~ '.'.'.`.d.'.'.'.",
"c Z H K V F ~ ~ ~ ~ ~ ~ ~ ~ ( W W - - - ) Y C z M.M.M.M.m.s.9 7 9.m.M.C.'.'.'.~ ( ` ` ~ M.M.M.M.M.M.M.M.~ ~ ~ ~ '.'.'.'.B.'.'.'.",
"1.7.7.>.#.M.M.M.M.M.M.~ ~ ~ ~ z k - - - k k k k M.M.M.M.M.M.m.w.7 q.M.M.`.'.'.#.#.#.#...~ M.M.M.M.M.M.~ ~ ~ F b k '.'.'.~.'.'.'.",
"1.7.7.M.M.M.M.M.M.M.M.` ~ ~ ~ ~ I - - - m M V D I I.N.M.M.M.M.M.y.7 d.M.^.'.'.'...` ( ~ ~ M.M.M.M.M.M.F M k k k M J '.'.'.'.'.k ",
"1.7.'.T.G.M.M.M.M.M.M.M.O. .~ - - - - ~ ~ ~ ~ ~ ~ '._.Y.S.M.M.M.M.s.0 m.~.'.'.'.~ ~ ~ ~ ~ ~ M.M.M.M.k k z C W } #.#.'.'.'.'.c k ",
"1.'.'.'.'.T.M.M.M.M.M.l.- - - - - - ~ ~ ~ ~ ~ ~ ~ ~ '.'.'.~.J.M.M.M.s.f.~.'.'.'.~ ~ ~ ~ ~ ~ ~ M.M.S F U ` ....o.o.o.O.@.'.'.c k ",
"'.'.'.'.'.'.A.c.r.3 ; - - - - - - ~ R G S M b c z k k k '.'.'.^.H.M.M.d.~.'.'.'.~ ~ ~ ~ ~ 6 6 6 6 6 6 ~ ~ ~ ~ ~ ~ ~ ~ ~ ~ ( x k ",
"'.'.'.'.'.U.t.7 < ; - - - - - D M x k k k k k k k k k k k '.'.'.'.T.M.v.^.'.'.'.c M S I ! 6 6 6 6 r f.M.M.~ ~ ~ ~ ~ ~ ~ ~ ~ x '.",
"'.'.'.`.x.7 7 8 q.s.f.c.i s s s s s a u = = * $ + + + + + + + '.'.'.R.M.`.'.'.'.u a a u 6 6 6 r j.M.M.M.N.^.# # # # # # # # '.'.",
"'.'.).y.7 e f.m.M.M.M.M.a a a a a a a a y & & & o               '.'.'.H.'.'.'.'.a a a - 5 7 d.M.M.M.M.S.^.'.'.            '.'.'.",
"'.'.f.7 j.).A.M.M.M.M.M.,.,.,.,.,.M.M.M.M.M.M.` / ^ ^ ^ ^ ^ h d ' '.'.^.'.'.'.,.- - - - - ; 3 8.k.M.A.`.'.'.'.'.` +.%.%.%.'.'.'.",
"'.D.7 n.'.`.M.M.M.M.M.7.7.7.7.M.M.M.M.M.M.M.M.#.#.#.#.#.#.#.c k 1.'.'.'.'.'.'.- - - - - - - - , 7 0.G.'.'.'.'.'.'.#.<.6.'.'.'.'.",
"`.t.x.'.'.~.M.M.M.M.M.;.;.;.!.N.M.M.M.M.M.M.M.M... .` _ ( ( x k 1.5.'.'.'.'.- - - - ;.;.j.d.a.q.8 7 7 x.`.'.'.'.'.'.#.#.'.'.'.'.",
"E.d./.'.'.U.M.M.M.M.#.#.#.'.'.`.T.V.M.M.M.M.M.l.- - - - ~ ~ x k :.#.#.'.'.- - - - #.#.#.M.M.M.M.m.x.e 7 y.).'.^.'.'.'.#.'.'.'.'.",
"H.K.'.'.'.H.M.M. . ._ ( '.'.'.'.'.).A.j.8.3 ; - - - - - ~ ~ x k | #.#.#.#.- - - #.#.#.#.M.M.M.M.M.^.).j.7 f.I.H.'.'.'.~ '.'.'.'.",
"A./.'.'.'.S.M.~ ~ ! ~ '.'.'.'.'.'.U.u.: - - - - - - - - ~ ~ x k { #.#.#.- - - #.#.#.#.o.( M.M.M.A.'.'.'.b.7 f.M.`.'.'.'.'.'.'.'.",
"G.'.'.'.'.F V b l l '.'.'.'.'.`.x.7 7 3 6 e.d.j.~ ~ ~ ~ ~ ~ x k T J C n - - - #.#.o.( ~ ~ M.N.M.E.'.'.'.'.x.0 m.A.~.'.'.'.'.'.'.",
"U.'.'.'.k l c V E '.'.'.'.'.).y.7 e B.W.M.M.M.M.b V V V M b k k k k k v - - @.#. .~ ~ ~ ~ ~ '.`.'.'.'.'.'./.d.h.M.M.I.`.'.'.'.'.",
").'.'.U ! ~ ~ (  .'.'.'.'.'.f.7 j.).'.'.N.M.M.M.k k k k k k k j C 6 6 6 6 6 6 ( ~ ~ ~ ! U L S M '.'.'.'.'.'.P.A.'.).!.W.~ '.'.'.",
"'.'.'.~ ~ ~ ~ ~ '.'.'.'.'.D.7 n.'.'.'.'.N.M.M.U S b c v k k s a ] 6 6 6 6 6 6 6 6 ~ ~ b x x c b N '.'.'.'.'./.A.'.'.'.'.~ '.'.'.",
"'.'.~ ~ ~ ~ ~ ~ '.'.'.'.`.q.x.'.'.'.'.`.M.M.M.~ ~ ~ ~ ~ k k s a 6 6 6 6 6 6 6 6 6 6 ~ ~ ~ ~ ~ ~ ~ ~ ~ '.'.'.'.G.'.'.'.'.~ ~ '.'.",
"'.~ ~ ~ ~ ~ ~ ~ '.'.'.'.U.w./.'.'.'.'.E.M.M.~ ~ ~ ~ ~ C - - - - 5 6 6 6 6 6 6 6 6 6 6 ~ ~ ~ ~ ~ ~ R U G '.'.'.U.'.'.'.'.~ ~ ~ '.",
"M.M.M.~ ~ R F M '.'.'.'.B.H.'.'.'.'.'.W.O.@.@.] U S M k - - - - - - : < 4 6 6 6 6 6 6 e ~ R S b z k k k k '.'.).'.'.'.c V M.M.M.",
"M.M.M.F b k k k '.'.'.'.H./.'.'.'.'.'.{ W A c k k k k k - - - - - - - - - : 3 6 6 6 6 9 c.k k k k k k k k '.'.'.'.'.'.M.M.M.M.M.",
"M.M.M.M.$ * = = '.'.'.'.~.'.'.'.'.$ + + $ * = = u a s s s s a a 4 3 1 > - - - , 6 6 6 6 y.M.* $ + + + + + + '.'.'.'.'.U.A.M.M.M.",
"M.M.M.h.- - - - '.'.'.'.'.'.'.'.      o & & & y a a a a a a a a 6 6 6 6 6 1 ; - : 6 6 6 9 M.M.& o             '.'.'.'.'.'.U.M.M."
};
