/* XPM */
static char *result[] = {
/* columns rows colors chars-per-pixel */
"64 64 221 2 ",
"   c #3A0102",
".  c #3B0102",
"X  c #3D0102",
"o  c #3F0102",
"O  c #291A0C",
"+  c #2B1B0C",
"@  c #2B1B0D",
"#  c #2C1B0D",
"$  c #2C1C0D",
"%  c #2D1C0D",
"&  c #2D1D0D",
"*  c #2E1D0D",
"=  c #2F1D0D",
"-  c #301E0E",
";  c #311F0E",
":  c #321F0E",
">  c #32200E",
",  c #32200F",
"<  c #33200F",
"1  c #34210F",
"2  c #36220F",
"3  c #362210",
"4  c #372210",
"5  c #382310",
"6  c #392311",
"7  c #3A2411",
"8  c #3A2511",
"9  c #3B2511",
"0  c #3B2711",
"q  c #3C2711",
"w  c #3C2512",
"e  c #3C2612",
"r  c #3D2612",
"t  c #3C2712",
"y  c #3D2712",
"u  c #3C2811",
"i  c #3D2811",
"p  c #3D2812",
"a  c #3E2912",
"s  c #3F2912",
"d  c #3F2913",
"f  c #3F2A12",
"g  c #3F2A13",
"h  c #410102",
"j  c #480102",
"k  c #490102",
"l  c #4A0102",
"z  c #530102",
"x  c #510203",
"c  c #530203",
"v  c #550103",
"b  c #590103",
"n  c #5B0103",
"m  c #5C0103",
"M  c #5D0103",
"N  c #5F0203",
"B  c #630203",
"V  c #640103",
"C  c #600204",
"Z  c #610204",
"A  c #620204",
"S  c #630204",
"D  c #650204",
"F  c #660204",
"G  c #6A0204",
"H  c #6F0204",
"J  c #710204",
"K  c #740204",
"L  c #750204",
"P  c #760204",
"I  c #7B0204",
"U  c #7A0307",
"Y  c #7E0306",
"T  c #5C3704",
"R  c #402A13",
"E  c #412A13",
"W  c #412B13",
"Q  c #422B13",
"!  c #412B14",
"~  c #422B14",
"^  c #432B14",
"/  c #422C14",
"(  c #432C14",
")  c #442C14",
"_  c #442D14",
"`  c #452D14",
"'  c #442C15",
"]  c #442D15",
"[  c #452D15",
"{  c #462D15",
"}  c #452E15",
"|  c #472E15",
" . c #462F15",
".. c #462D16",
"X. c #472D16",
"o. c #462E16",
"O. c #472E16",
"+. c #482D15",
"@. c #482E15",
"#. c #482E16",
"$. c #492E16",
"%. c #482F16",
"&. c #492F16",
"*. c #492E17",
"=. c #482F17",
"-. c #492F17",
";. c #4A2F16",
":. c #4B2F16",
">. c #4A2F17",
",. c #4B2F17",
"<. c #4A3016",
"1. c #4A3017",
"2. c #4B3017",
"3. c #4B3217",
"4. c #4C3017",
"5. c #4C3117",
"6. c #4D3117",
"7. c #4E3117",
"8. c #4C3217",
"9. c #4D3217",
"0. c #4C3317",
"q. c #4D3317",
"w. c #4B3018",
"e. c #4C3018",
"r. c #4C3118",
"t. c #4D3118",
"y. c #4E3118",
"u. c #4D3318",
"i. c #4E3218",
"p. c #4F3218",
"a. c #4F3318",
"s. c #4E3418",
"d. c #4F3418",
"f. c #4E3518",
"g. c #4F3518",
"h. c #4F3519",
"j. c #503318",
"k. c #503418",
"l. c #503419",
"z. c #503519",
"x. c #513519",
"c. c #503619",
"v. c #513619",
"b. c #523619",
"n. c #523719",
"m. c #52371A",
"M. c #53371A",
"N. c #53381A",
"B. c #7A2E07",
"V. c #7B2E07",
"C. c #753206",
"Z. c #3E4302",
"A. c #106300",
"S. c #106600",
"D. c #106700",
"F. c #116A00",
"G. c #116B00",
"H. c #116C00",
"J. c #116F00",
"K. c #117000",
"L. c #117100",
"P. c #127200",
"I. c #127300",
"U. c #127400",
"Y. c #137600",
"T. c #147900",
"R. c #800204",
"E. c #850205",
"W. c #860205",
"Q. c #870205",
"!. c #890205",
"~. c #880307",
"^. c #8C0205",
"/. c #900205",
"(. c #910205",
"). c #920205",
"_. c #930205",
"`. c #940205",
"'. c #950406",
"]. c #9C0306",
"[. c #9D0306",
"{. c #980408",
"}. c #A60408",
"|. c #A90408",
" X c #A8040A",
".X c #AE0409",
"XX c #AF0409",
"oX c #B00407",
"OX c #B7040A",
"+X c #B6050A",
"@X c #B7050A",
"#X c #BB0508",
"$X c #B8050B",
"%X c #BA050B",
"&X c #BB050B",
"*X c #BD050A",
"=X c #BC050B",
"-X c #BE050A",
";X c #C30509",
":X c #C2050A",
">X c #C3050A",
",X c #C90509",
"<X c #CC0509",
"1X c #CD0509",
"2X c #CF0609",
"3X c #D00609",
"4X c #D10609",
"5X c #D40609",
"6X c #D6060A",
"7X c #D7060A",
"8X c #DB060A",
"9X c #E1060B",
"0X c #E6060C",
"qX c #EB070D",
"wX c #F4070F",
"eX c #F5070F",
"rX c #F6070F",
"tX c #F7070F",
"yX c #158200",
"uX c #158500",
"iX c #168700",
/* pixels */
"+.;.;.:.2.2.2.2.2.4.8.u.s.s.s.s.s.s.s.f.g.g.f.z.z.z.z.z.z.z.z.d.6.4.5.i.g.f.g.g.f.s.s.f.g.g.g.g.f.s.s.s.s.s.s.s.5.:.;.;.;.;.7 5 ",
"4.p.p.p.p.p.p.p.p.p.p.p.p.p.k.x.v.n.M.N.N.N.N.N.N.N.N.N.N.b.l.p.p.p.p.p.p.l.v.m.N.N.N.N.N.N.N.N.N.N.N.N.N.n.l.p.p.p.p.p.p.p.r 7 ",
"4.p.p.t.w.>.-.-.>.>.w.r.y.p.p.p.p.p.p.p.p.a.j.j.j.j.j.j.p.p.p.p.p.p.p.p.p.p.p.p.p.p.j.j.j.j.j.j.j.j.j.a.p.p.p.p.p.p.p.p.p.p.r 7 ",
"4.p.>.#.O.O.-.-.-.-.-.-.-.-.1.e.,.;.5.i.p.p.p.y.t.r.r.t.t.p.p.p.p.p.p.p.p.p.p.p.p.p.p.p.i.i.p.p.p.p.p.p.p.p.p.p.p.p.p.p.p.p.r 7 ",
"^ R a a a a ..-.-.-.-.-.-.-.-.O.7 7 p a f [ -.-.-.-.-.-.-.-.2.t.p.p.p.p.p.p.p.p.p.p.w.-.-.-.-.>.r.p.p.p.p.p.p.p.p.p.p.p.p.p.y t ",
"s ( { O.O.O.-.-.-.-.-.-.-.-.-.O.7 7 p g ~ O.-.-.-.-.-.-.-.-.-.-.>.r.p.p.p.p.p.p.y.>.-.-.-.-.-.-.-.>.t.p.p.p.p.p.p.p.p.i.&.Q a a ",
"4.p.p.p.p.t.2.-.-.-.-.-.-.-.-.-.X...=.-.-.-.-.-.-.' W W W W ~ ( [ O.>.t.p.p.p.t.-.-.-.-.-.-.-.-.-.-.-.2.p.p.p.p.4.%.) s a f p 9 ",
"4.p.p.p.p.p.p.i.e.-.-.-.-.-.-.-.-.-.-.-.-.-.-.-.-.=.{ ( W s a a a a a R ( o.=.-.-.-.-.-.-.-.-.-.-.-.r.p.p.( R a a a f W [ -.w 7 ",
"O.>.2.e.t.i.p.p.p.i.e.-.-.-.-.-.-.-.-.-.-.-.-.-.-.-.-.-.-.-.O.' ! f a a a a a g W ( ' [ [ [ ..-.2.i.p.p.p.y.4.2.4.2.>.-.-.-.w 7 ",
"O.-.-.-.-.-.>.w.y.p.p.i.e.>.-.-.-.-.-.-.-.-.-.-.-.-.-.-.-.-.-.-.-.-.O.[ ~ R a a a a a s E ( | y.i.y.t.t.t.y.y.p.p.p.p.p.t.r.w 7 ",
"4.y.t.e.2.>.-.-.-.2.t.p.p.p.y.r.-.-.-.>.w.w.2.>.-.-.-.-.-.-.-.-.-.-.-.-.-.-.-.#.O.#.=.w.t.w.1.-.-.-.-.-.-.-.-.-.1.e.y.p.p.p.r 7 ",
"*.t.p.p.p.p.e.-.-.-.-.-.2.r.t.t.-.-.-.w.y.p.p.p.>.-.-.-.-.-.-.-.-.-.-.-.-.-.-.-.-.-.-.-.-.-.-.-.-.-.-.-.-.-.-.-.-.-.-.-.2.e.w 7 ",
"O.-.-.e.t.w.-.-.-.-.-.-.-.-.-.-.-.-.-.-.-.-.>.>.-.-.-.-.#.[ ~ R f a a R ~ [ =.-.-.-.-.-.-.O.' ! g a a f ~ O.-.-.-.-.-.-.-.-.w 7 ",
"O.-.-.-.-.-.-.-.-.-.-.-.-.-.-.-.-.-.-.-.-.-.-.-.O.[ ~ R a a a a a a a a a a a / [ { ' ~ f a a a a a a a a a R ' O.-.-.-.-.-.w 7 ",
"% ; 9 4 < < < < < < < < 4 w w w w w w 4 < < : % $ $ $ $ $ $ $ $ % ; : : : : ; * $ $ $ $ * ; ; * $ $ $ $ $ $ $ $ * ; : = % & @ @ ",
"% 6 7 7 1 - - - - - - 1 7 7 7 7 7 7 7 7 1 - - - + O O O O O O + - - - - - - - - # O O # - - - - # O O O O O O # - - - - # O O O ",
"4.4.4.9.d.f.g.0.u u $.4.h.z.z.z.z.z.z.z.z.f.g.g.f.s.s.s.u.8.p q 0.g.g.g.g.g.g.g.f.s.s.f.g.s.9.2.:.;.;.;.;.;.;.:.2.2.2.2.:.;.;.;.",
"p.p.p.p.p.l.b.c.s a 6.p.j.m.N.N.N.N.N.N.N.N.N.N.b.x.k.p.p.p.R a c.N.N.N.N.N.N.N.N.M.b.x.j.p.p.p.t.y.p.p.p.p.p.p.6.6.p.p.p.p.p.p.",
"p.p.p.p.p.p.p.p.6.6.p.p.p.p.a.j.j.j.j.j.j.j.a.p.p.p.p.p.p.p.R a 6.j.j.j.j.j.j.a.p.p.p.p.p.p.p.p.1.-.-.-.>.1.2.>.s s 4.p.p.p.p.p.",
"p.p.p.p.p.p.p.p.p.p.p.p.p.p.p.p.p.p.p.y.y.t.t.r.e.e.e.e.e.r.R a 4.i.p.p.p.p.p.p.p.p.p.p.p.p.p.p.p.y.e.>.-.-.-.#.a a #.-.1.e.t.p.",
">.w.t.i.p.p.p.p.p.p.p.t.w.w.w.1.>.-.-.-.-.#.[ ( W R R R W ( p p O.-.-.-.-.-.-.>.>.2.w.e.t.y.p.p.p.p.p.p.y.e.2.-.#.#.-.-.-.-.-.-.",
"-.-.-.-.>.e.t.p.p.p.p.p.e.>.-.-.#.#.-.-.-.( R R R R f a a a 8 7 d ] =.-.-.-.-.-.-.-.-.-.-.-.-.>.w.t.i.p.p.p.p.p.y.e.>.-.-.-.-.-.",
"-.-.-.-.-.-.-.-.1.e.t.p.p.p.i.2.a a #.-.-.-.-.-.-.-.-.=.{ ( 9 %X%X%X%X%X( ' ( ~ R ~ -.-.-.-.-.-.-.-.-.>.e.t.p.p.p.p.p.t.w.-.-.-.",
"-.-.-.-.-.-.-.-.-.-.-.-.>.w.e.1.a a #.-.-.-.-.-.-.-.-.-.-.%X%X%X%X%X%X%X%X%X%X~ [ -.-.-.-.-.-.-.-.-.-.-.-.-.-.2.&.2.5.6.i.y.w.-.",
"( [ { o.O.O...[ O.-.-.-.-.-.-.-.#.#.-.-.-.-.>.>.-.-.-.%X%X%X%X%X%X%X%X%X%X%X%X%X-.-.-.1.w.e.r.t.>.-.-.-.-.-.-.=.~ R a a a a W ( ",
"g a a a f g E ~ ..-.-.-.-.-.>.w.e.t.t.y.p.p.p.e.-.%X%X%X%X%X{.|.}.|.+X%X%X%X%X%X:Xy.p.p.y.r.w.1.-.-.-.-.-.-.-.-.-.-.-.O.[ ( ~ E ",
"-.-.-.-.-.-.-.-.>.w.e.t.y.p.p.p.p.i.t.r.w.1.-.-.%X%X%X%X XB J (.(.(.`.XX%X%X&X,X4Xe.2.-.-.-.-.-.-.-.-.-.-.-.-.-.-.-.-.-.-.-.-.-.",
"-.-.-.-.-.-.-.-.t.t.t.t.r.e.w.1.-.-.-.-.-.=.O.3X-X%X%X%Xc N L Q.!./.(.`.@XOX;X3X4X4X-.-.-.-.-.-.-.-.-.-.-.-.-.-.=.=.-.-.-.-.-.-.",
"W ~ ( ' [ ..O.=.-.-.-.-.-.-.-.-.-.-.=.( f a a 4X2X*X%X~.h Z G I I R./.(.].).(._.[.oX-.-.-.-.-.#.{ ) ~ R g s a a a a a a a f g R ",
"a a a a a a a a f R W ( ] { O.-.#.( s a a a 4X4X4X2X-XU X C S P I I !.(.(.(.(.(.(.(.-.#.[ ~ R a a a a a a a a a a a a a a a a a ",
"$ $ $ $ $ $ $ $ * ; : : : : : : 2 7 7 2 : : 4X4X4X4X2XY   v A D K I W./.^.(.(.(.(.< > : : : : : : : : : 2 7 7 2 : : ; * $ $ $ $ ",
"O O O O O O O # - - - - - - - 1 7 7 7 7 1 - 4X4X4X4X4X'.  o M Z b m V n P (.(.(.(.- - - - - - - - - - 1 7 7 7 7 1 - - - # O O O ",
"@.;.;.5.u.s.s.f.g.g.g.g.f.q.2.4.4.4.4.4.4.2.8X4X4X4X4X4Xx   X k j j j z (.(.(.(.2.2.s.g.g.g.g.g.g.g.f.z.z.z.z.z.i.2.2.2.:.;.i 0 ",
"6.p.p.p.p.j.x.m.c.h.z.l.p.p.p.p.p.p.p.p.p.p.rX0X5X4X4X4X#Xx     . X l E.(.(.(.(.p.p.p.l.n.N.N.N.N.N.N.N.N.N.n.l.p.p.p.i.i.i.R a ",
"6.p.p.p.p.p.p.6.s a #.-.2.p.p.p.e.e.e.t.t.y.i.tXrXqX9X7X4X4X'.K F H (.(.(.(.(.>.>.-.-.-.>.2.r.i.a.j.j.j.a.p.y.e.2.>.-.-.-.-.g a ",
"6.p.p.p.p.p.p.6.a a #.>.e.p.p.p.t.>.-.-.-.-.-.tXtXtXwX6X4X2X>X|.(.(.(.(.(.(.R R R O.-.-.-.-.-.-.1.p.p.y.e.>.-.-.-.-.-.-.-.-.g a ",
"6.p.p.p.p.p.p.p.6.5.p.p.p.p.p.p.p.p.y.1.-.-.-.-.tXeX7X4X<X=X%X.X(.(.(.(.a R W ~ ( =.-.-.-.-.-.-.-.-.>.-.-.-.-.-.-.-.-.-.-.-.g a ",
"6.p.p.p.p.p.p.p.p.p.p.p.p.p.p.p.p.p.p.p.t.>.-.-.-.-.4X1X=X%X%X$X_.(./ { =.-.-.-.-.-.-.-.-.-.#.#.-.-.-.-.-.-.-.-.-.-.-.-.-.-.g a ",
"^ ( ( ( ' ..-.-.-.-.>.w.r.y.p.p.p.p.p.p.p.p.t.>.{ W a a a B.V.C.T Z.-.-.-.-.-.-.-.-.-.-.-.#.a a #.-.-.-.-.-.-.-.-.-.-.=.o.[ y e ",
"R _ }  .( [ -.-.-.-.-.-.-.-.>.&.&.2.5.5.<.@.) f a a a a a W ..P.D.A.-.-.-.-.-.-.>.2.2.-.-.#.a a #.-.-.-.-.-.-.-.#.' R a a a 9 7 ",
"c.N.N.l.p.p.y.t.2.-.-.-.-.-.-.f a a a a a a a a a a E ' O.-.-.-.F.A.-.-.>.e.y.p.p.p.p.e.-.-.#.#.-.-.-.-.-.-.[ W a a a f ( @.s a ",
"c.N.N.j.p.p.p.p.p.p.t.2.-.-.-.-.o.' ~ ! ! ~ ( ] o.-.-.-.-.-.-.-.T.T.-.>.p.p.y.t.e.2.>.-.-.-.-.-.-.-.#.[ ~ a a a ~ | 4.p.p.p.R a ",
"c.N.b.p.p.p.p.p.p.p.p.p.y.w.-.-.-.-.-.-.-.-.-.-.-.-.-.-.-.-.-.-.iXiX-.-.-.-.-.-.-.-.-.-.-.-.-.' W g a a f ) &.7.p.p.p.p.p.p.R a ",
"c.b.p.p.p.p.p.p.p.p.p.p.i.i.e.-.-.-.-.-.-.-.-.-.-.-.-.-.-.-.-.-.iXiX-.-.-.-.-.-.-.-.-.-.-.-.-.o.' ' [ O.2.e.e.t.t.t.y.i.p.p.R a ",
"d.p.p.p.t.e.w.1.>.-.-.-.-.-.-.-.-.-.#.{ ' ~ W R f a a a a a a f iXiX! ( ' { O.-.-.-.-.-.-.-.-.-.-.-.-.-.-.-.-.-.-.-.-.-.-.>.g a ",
"6.p.e.-.-.-.-.-.-.-.-.-.-.-.O.] ~ g a a a a a a a a a a a a a a iXiXa a a a a a R ~ ' o.=.-.-.-.-.-.-.-.-.-.-.-.-.-.-.-.-.-.g a ",
"& & & & & & & & - < < < 3 8 8 8 8 8 7 2 : : ; * $ $ $ $ $ $ $ $ iXiX$ $ * ; : : 2 7 7 2 : , < < < < < - & & & & & & & & & & $ $ ",
"O O O O O O O # - - - 1 7 7 7 7 7 7 7 7 1 - - - # O O O O O O O iXiXO # - - - 1 7 7 7 7 1 - - - - - - - # O O O O O O O O O O O ",
"s.3.q q @.;.8.f.g.g.f.z.z.z.z.z.z.z.z.z.z.5.2.2.:.;.;.;.;.;.i 0 iXiXs.f.g.g.f.z.z.z.z.z.z.f.g.g.g.g.g.s.8.;.;.;.2.u.s.s.s.s.s.s.",
"N.c.s a 6.p.p.x.N.N.N.N.N.N.N.N.N.N.N.m.j.p.p.p.p.p.p.p.p.p.R a iXiXN.N.N.N.N.N.N.N.N.N.N.N.c.c.N.b.l.p.p.p.p.p.p.p.x.M.N.N.N.N.",
"j.j.6.6.p.p.p.p.p.a.j.j.j.j.j.j.j.j.a.p.p.y.t.r.e.w.2.1.>.>.g a iXiXk.j.j.j.j.j.j.j.j.j.j.9.s s 6.p.p.p.p.p.p.p.p.p.p.p.a.j.j.j.",
"p.p.p.p.p.p.p.p.p.p.p.p.p.i.y.t.e.w.1.>.-.-.-.-.-.-.-.-.-.-.g a iXiXp.p.p.p.p.p.p.p.p.p.p.6.a a 5.p.p.p.p.p.p.p.p.p.p.p.i.i.i.i.",
"-.-.-.-.>.>.1.w.w.w.1.>.-.-.-.-.-.-.-.-.-.-.-.-.-.-.-.-.-.-.g a iXiXp.p.p.p.p.p.p.p.p.p.iXiX=.#.-.>.t.p.p.p.p.t.2.>.-.-.-.-.-.-.",
"-.-.-.-.-.-.-.-.-.=.-.-.>.-.-.-.-.-.-.-.-.-.-.-.-.-.-.-.-.-.g a iXiXp.p.p.p.p.p.p.iXiXiX>.-.-.-.-.-.-.2.e.w.-.-.-.-.-.-.-.-.-.-.",
"-.-.-.-.O.[ ( W s s &.i.p.p.t.>.f f g R ~ ) J.=.-.-.-.-.-.-.g a iXiX) Q R f 4.iXiXt.>.-.-.-.-.-.-.-.-.-.-.O.[ ( W R f f f g -.-.",
"-.{ R a a s R ( %.7.p.p.p.p.p.p.<.| ( f a a a J.J.U.( ( ~ W a a I.I.a E ) | J.p.w.-.-.-.-.-.-.-.-.#.[ ~ f a a a f W ) [ O.=.-.-.",
"-.-.o.O.=.-.-.>.w.w.w.e.e.t.y.p.p.p.p.y.O.( R a J.Y.iXa a a a p J.J.6.p.p.J.y.>.-.-.-.=.O...' ~ R a a a R / [ O.-.-.-.-.-.-.-.-.",
"-.-.-.-.-.-.-.-.-.-.-.-.-.-.-.-.2.e.t.y.w.-.-.O.' L.yXiXuXa 8 7 J.J.p.p.p.J.-.-.-.-.-.W g g R W ^ ] o.=.-.-.-.-.-.-.-.-.-.-.-.-.",
"-.-.-.-.-.-.-.-.-.-.-.-.-.-.-.-.-.-.-.-.-.-.-.-.-.-.K.U.L.J.8 7 G.G.p.p.J.-.-.-.-.-.-.-.-.-.-.-.-.-.-.-.-.-.-.-.-.-.-.-.-.-.-.-.",
"-.-.-.-.-.-.-.-.-.-.-.-.-.-.-.-.-.-.-.-.-.-.-.-.-.-.-.J.J.J.J.7 A.A.t.w.J.-.-.-.-.-.-.-.-.-.-.-.-.#.O.{ [ [ [ ..O.=.-.-.-.-.-.-.",
"-.-.-.-.-.#.[ ~ W R W [ =.-.-.>.w.t.t.y.y.i.i.4.O.' ~ a J.J.J.J.A.A.H.J.-.-.-.-.-.-.-.-.-.#.' W f a a a a a a a a a f R ( { -.-.",
"-.-.=.[ W a a a a a a a a ~ &.p.p.p.p.6.&.` R a a a a a a J.J.J.S.A.H.J.-.-.-.-.-.-.-.O.Q a a a a a a a a a a a a a a a a a g o.",
"% $ $ $ * ; : : : : ; * $ $ $ % * * $ $ * ; : : 2 7 8 8 8 J.J.J.S.A.H.J.< < < - & & % $ * ; ; * $ $ $ $ $ $ $ $ $ $ $ $ $ $ $ $ ",
"O O O # - - - - - - - - # O O O O O O # - - - 1 7 7 7 7 7 7 J.J.S.A.H.J.1 - - - # O O # - - - - # O O O O O O O O O O O O O O O "
};
